<svg version="1.1" width="485" height="364" viewBox="-1 -1 485 364" xmlns="http://www.w3.org/2000/svg" xmlns:xlink="http://www.w3.org/1999/xlink">
  <defs>
    <radialGradient id="grad_1" cx="321.8809" cy="240.7227" r="352.1997" gradientUnits="userSpaceOnUse">
      <stop offset="0.2293" stop-color="#009CDC"/>
      <stop offset="0.6128" stop-color="#414E9C"/>
      <stop offset="0.9731" stop-color="#2A295B"/>
    </radialGradient>
    <radialGradient id="grad_2" cx="291.3755" cy="184.103" r="59.4473" gradientUnits="userSpaceOnUse">
      <stop offset="0.474" stop-color="#B92B86"/>
      <stop offset="0.8921" stop-color="#611359"/>
      <stop offset="0.9998" stop-color="#9F3088"/>
    </radialGradient>
    <linearGradient id="grad_3" x1="239.3633" y1="159.2676" x2="286.1929" y2="159.2676" gradientUnits="userSpaceOnUse">
      <stop offset="0" stop-color="#FFFFFF"/>
      <stop offset="1" stop-color="#FFFFFF" stop-opacity="0.3"/>
    </linearGradient>
  </defs>
  <!-- Exported by Scratch - http://scratch.mit.edu/ -->
  <g id="ID0.008574062027037144">
    <path id="ID0.8024312094785273" fill="url(#grad_1)" d="M 0.284 -0.478 L 640 -0.478 L 640 480 L 0.284 480 L 0.284 -0.478 Z " transform="matrix(0.7550414204597473, 0, 0, 0.7550414204597473, 0, -1.2)"/>
    <path id="ID0.8339116792194545" fill="#FFED03" d="M 453.863 282.482 L 625.730 247.470 L 447.755 240.898 L 540.891 179.273 L 433.884 196.957 L 573.921 51.906 L 374.308 160.506 L 413.023 28.046 L 328.130 127 L 317.876 12.791 L 278.640 108.777 L 216.767 12.611 L 228 141 L 165.988 114.449 L 199.246 159.377 L 54.358 80.110 L 163 183 L 30.261 181.829 L 131 241.554 L 22.843 279.824 L 135 298.692 L 29.603 430.649 L 203 330.290 L 166.115 447.227 L 246.586 360.067 C 237.660 387.381 231.062 455.031 231.062 455.031 L 287.096 385.952 L 302.981 464.239 L 327.004 382.256 L 390.858 470.497 L 375.582 373.454 L 421.359 423.672 L 388.577 360.517 L 473.965 383.378 L 437.878 328.196 L 599.247 362.957 L 453.863 282.482 Z " transform="matrix(0.7550414204597473, 0, 0, 0.7550414204597473, 0, -1.2)"/>
    <g id="ID0.7527153789997101">
      <g id="ID0.494801611173898">
        <path id="ID0.4336865060031414" fill="#5274B7" d="M 323.162 244.229 L 324.414 244.229 L 324.414 259.780 L 323.162 259.780 L 323.162 244.229 Z " transform="matrix(0.7550414204597473, 0, 0, 0.7550414204597473, 0, -1.2)"/>
        <path id="ID0.5274156844243407" fill="#5274B7" d="M 316.027 251.378 L 331.551 251.378 L 331.551 252.632 L 316.027 252.632 L 316.027 251.378 Z " transform="matrix(0.7550414204597473, 0, 0, 0.7550414204597473, 0, -1.2)"/>
      </g>
      <g id="ID0.8609917610883713">
        <path id="ID0.335856877733022" fill="#5274B7" d="M 323.165 244.235 L 324.416 244.235 L 324.416 259.775 L 323.165 259.775 L 323.165 244.235 Z " transform="matrix(-0.5889322757720947, -0.47250494360923767, 0.47250494360923767, -0.5889322757720947, 316.05, 490.4)"/>
        <path id="ID0.884210326243192" fill="#5274B7" d="M 323.163 244.238 L 324.416 244.238 L 324.416 259.771 L 323.163 259.771 L 323.163 244.238 Z " transform="matrix(0.4714478850364685, -0.589762806892395, 0.589762806892395, 0.4714478850364685, -56.75, 261.2)"/>
      </g>
    </g>
    <path id="ID0.20390857243910432" opacity="0.4" d="M 356.801 236.122 C 356.801 243.746 333.884 249.920 305.614 249.920 C 277.344 249.920 254.427 243.746 254.427 236.122 C 254.427 228.501 277.344 222.326 305.614 222.326 C 333.884 222.326 356.801 228.501 356.801 236.122 Z " transform="matrix(0.7550414204597473, 0, 0, 0.7550414204597473, 0, -1.2)"/>
    <g id="ID0.38875802978873253">
      <g id="ID0.8376903426833451">
        <g id="ID0.3514601974748075">
          <path id="ID0.6212716652080417" fill="#90B9D0" d="M 346.597 198.761 C 346.031 185.375 337.079 173.951 327.965 164.143 C 318.849 154.332 308.788 144.497 305.027 131.638 C 301.096 118.201 304.716 103.855 306.012 90.284 C 305.863 91.866 298.935 93.159 290.148 93.266 C 281.370 93.159 274.441 91.866 274.289 90.284 C 275.590 103.854 279.207 118.201 275.275 131.638 C 271.515 144.496 261.455 154.332 252.338 164.143 C 243.222 173.952 234.271 185.375 233.706 198.761 C 233.253 209.490 238.499 219.517 245.630 227.209 C 252.900 235.045 271.378 244.009 290.148 244.009 C 309.468 244.009 327.403 235.045 334.672 227.209 C 341.803 219.517 347.050 209.491 346.597 198.761 Z " transform="matrix(0.7550414204597473, 0, 0, 0.7550414204597473, 0, -1.2)"/>
          <path id="ID0.06514069810509682" fill="#BFCFDE" d="M 346.597 198.761 C 346.223 189.899 342.170 181.897 336.830 174.653 C 341.339 181.276 344.614 188.512 344.948 196.439 C 345.401 207.168 340.153 217.196 333.025 224.887 C 325.754 232.723 307.818 241.685 288.496 241.685 C 269.725 241.685 251.249 232.723 243.979 224.887 C 242.746 223.556 241.573 222.150 240.471 220.688 C 242.016 223.001 243.756 225.189 245.629 227.209 C 252.899 235.045 271.377 244.009 290.147 244.009 C 309.467 244.009 327.402 235.045 334.671 227.209 C 341.803 219.517 347.050 209.491 346.597 198.761 Z M 311.543 144.999 C 308.739 140.868 306.438 136.466 305.026 131.639 C 301.095 118.202 304.715 103.856 306.011 90.285 C 305.965 90.789 305.226 91.264 303.960 91.681 C 302.471 104.132 299.805 117.098 303.376 129.314 C 305.057 135.057 307.996 140.196 311.543 144.999 Z " transform="matrix(0.7550414204597473, 0, 0, 0.7550414204597473, 0, -1.2)"/>
          <path id="ID0.9452856834977865" fill="#C05B9D" d="M 268.650 213.634 C 265.137 212.431 261.831 210.247 258.254 209.400 C 255.082 208.648 252.432 207.921 250.438 205.060 C 248.764 202.658 248.208 199.653 248.012 196.733 C 247.778 193.223 247.488 190.393 248.731 187.012 C 249.909 183.801 251.756 180.844 254.102 178.364 C 257.738 174.519 262.540 171.829 267.665 170.547 C 271.140 169.680 274.982 169.484 278.158 171.146 C 279.445 171.820 280.617 172.833 281.160 174.181 C 281.701 175.530 281.489 177.238 280.402 178.202 C 279.863 178.681 279.037 178.938 278.420 178.566 C 277.961 178.288 277.746 177.749 277.506 177.268 C 276.385 174.992 274.092 173.330 271.582 172.971 C 269.071 172.614 266.410 173.565 264.695 175.436 C 265.414 175.349 266.131 175.261 266.849 175.172 C 268.128 175.014 269.451 174.860 270.685 175.234 C 271.917 175.604 273.046 176.651 273.088 177.941 C 273.130 179.229 271.663 180.448 270.519 179.859 C 269.946 179.568 269.611 178.959 269.095 178.573 C 268.008 177.759 266.441 178.156 265.261 178.829 C 263.810 179.657 262.509 180.975 262.253 182.628 C 261.999 184.282 263.175 186.179 264.842 186.230 C 265.622 186.252 266.357 185.902 267.057 185.558 C 272.355 182.953 278.867 180.985 282.763 187.226 C 284.007 189.216 284.656 191.814 286.736 192.896 C 288.072 193.591 289.688 193.454 291.149 193.088 C 292.613 192.724 294.035 192.146 295.538 192.009 C 297.040 191.874 298.710 192.277 299.598 193.496 C 300.486 194.715 300.099 196.812 298.656 197.246 C 297.610 197.562 296.192 197.072 295.581 197.978 C 294.955 198.903 296.021 200.056 297.041 200.507 C 299.797 201.732 303.154 201.487 305.706 199.874 C 309.744 197.325 312.118 188.076 304.635 189.287 C 303.652 189.445 302.724 189.908 301.730 189.973 C 300.736 190.035 299.571 189.481 299.474 188.488 C 299.399 187.709 300.011 187.030 300.656 186.585 C 302.013 185.644 303.727 185.228 305.366 185.437 C 305.802 185.495 306.249 185.594 306.675 185.484 C 307.105 185.374 307.494 184.963 307.398 184.533 C 307.279 184 306.601 183.867 306.063 183.783 C 305.523 183.701 304.857 183.358 304.968 182.826 C 305.030 182.545 305.296 182.363 305.547 182.226 C 307.312 181.275 309.526 181.214 311.343 182.065 C 313.335 183.002 316.050 185.754 316.566 187.925 C 316.907 189.361 316.738 190.874 316.345 192.295 C 316.202 192.802 316.036 193.309 316.040 193.832 C 316.050 194.355 316.269 194.914 316.730 195.160 C 317.294 195.460 317.988 195.209 318.553 194.914 C 319.963 194.178 321.372 192.852 321.149 191.276 C 321.042 190.502 320.545 189.809 320.512 189.031 C 320.461 187.784 321.760 186.743 322.999 186.870 C 324.234 186.994 325.247 188.077 325.516 189.292 C 326.289 192.769 329.870 189.400 331.302 188.364 C 332.268 187.661 333.500 187.134 334.644 187.475 C 336.489 188.027 337.457 190.603 339.383 190.528 C 339.858 190.510 340.321 190.314 340.799 190.333 C 342.565 190.404 342.639 191.780 342.790 193.115 C 343 194.972 343.205 196.828 343.322 198.695 C 343.504 201.603 343.539 204.982 341.050 206.891 C 338.426 208.908 335.297 209.865 332.332 211.247 C 327.387 213.554 322.971 215.030 317.445 215.621 C 308.056 216.631 298.583 216.421 289.136 216.209 C 282.229 216.056 275.188 215.878 268.650 213.634 Z " transform="matrix(0.7550414204597473, 0, 0, 0.7550414204597473, 0, -1.2)"/>
          <path id="ID0.005488845985382795" fill="url(#grad_2)" d="M 333.445 199.653 C 333.465 199.728 333.481 199.806 333.493 199.882 C 333.687 201.113 332.539 202.749 331.720 203.622 C 330.879 204.522 329.761 205.132 328.616 205.563 C 324.618 207.068 320.370 207.168 316.355 208.781 C 312.357 210.388 308.566 212.575 304.268 213.300 C 296.119 214.681 287.388 210.493 281.204 205.425 C 277.794 202.632 270.931 194.659 276.523 190.676 C 278.326 189.393 281.277 189.921 282.197 191.935 C 282.609 192.840 282.621 193.939 283.258 194.701 C 283.965 195.551 285.307 195.691 286.287 195.178 C 287.266 194.665 287.891 193.625 288.127 192.544 C 288.608 190.317 287.529 187.931 285.768 186.493 C 284.002 185.051 281.664 184.462 279.388 184.453 C 273.907 184.434 268.552 187.825 266.219 192.793 C 265.657 193.993 265.198 195.348 264.114 196.107 C 259.499 199.345 256.909 187.001 256.998 184.493 C 257.176 179.452 259.599 174.488 263.607 171.401 C 267.777 168.188 273.210 166.663 278.442 167.235 C 279.206 167.319 280.098 167.403 280.622 166.839 C 281.196 166.220 280.909 165.138 280.243 164.616 C 279.578 164.094 278.682 163.995 277.838 163.969 C 272.105 163.780 266.328 166.015 262.211 170.016 C 266.696 165.658 270.357 161.687 276.249 159.088 C 279.085 157.837 282.075 156.940 285.130 156.431 C 287.746 155.997 291.750 155.143 294.212 156.380 C 294.687 156.618 295.132 156.927 295.646 157.048 C 296.160 157.169 296.788 157.046 297.052 156.589 C 297.324 156.119 297.099 155.489 296.700 155.118 C 296.301 154.747 295.767 154.565 295.264 154.352 C 294.737 154.127 294.225 153.860 293.739 153.552 C 293.624 153.476 293.494 153.383 293.479 153.243 C 293.452 153.017 293.723 152.884 293.946 152.828 C 297.364 151.991 301.133 152.743 303.968 154.822 C 305.573 156.004 307.700 160.496 307.072 162.498 C 306.857 163.181 306.344 163.722 305.820 164.207 C 302.571 167.213 298.227 169.006 293.803 169.162 C 298.213 169.006 301.168 171.001 305.802 168.928 C 307.204 168.301 308.538 167.502 309.697 166.491 C 310.621 165.685 311.811 164.552 312.028 163.295 C 312.384 161.268 312.318 159.172 311.857 157.170 C 311.443 155.387 310.820 153.848 309.563 152.516 C 308.455 151.340 307.152 150.340 305.723 149.579 C 302.951 148.100 299.604 147.521 296.609 148.674 C 298.450 147.965 300.388 147.499 302.145 146.600 C 303.900 145.702 305.511 144.258 306.001 142.347 C 306.079 142.036 306.118 141.681 305.928 141.426 C 305.810 141.268 305.624 141.180 305.436 141.121 C 304.357 140.778 303.176 141.275 302.311 142.007 C 301.450 142.739 300.803 143.692 300.008 144.500 C 297.106 147.452 292.895 147.980 289.038 148.736 C 267.398 152.981 243.586 169.064 236.578 190.838 C 232.416 203.768 237.933 216.263 246.721 225.741 C 253.812 233.387 271.836 242.128 290.149 242.128 C 308.996 242.128 326.496 233.386 333.587 225.741 C 335.984 223.151 338.132 220.179 339.831 217.082 C 342.188 212.776 343.729 208.197 344.433 203.345 C 345.040 199.166 345.379 194.913 343.311 191.017 C 343.010 190.454 342.660 189.885 342.119 189.547 C 341.574 189.212 340.793 189.185 340.353 189.649 C 340.121 189.895 340.019 190.239 339.986 190.577 C 339.797 192.556 341.765 194.269 341.545 196.244 C 341.449 197.092 340.919 197.880 340.169 198.285 C 339.913 198.424 339.605 198.520 339.336 198.411 C 338.938 198.249 338.827 197.756 338.676 197.355 C 338.230 196.144 337.186 195.195 335.967 195.628 C 335.381 195.835 334.805 195.331 334.207 195.167 C 333.694 195.023 333.118 195.146 332.707 195.483 C 332.297 195.820 332.065 196.364 332.105 196.894 C 332.180 197.923 333.164 198.673 333.445 199.653 Z " transform="matrix(0.7550414204597473, 0, 0, 0.7550414204597473, 0, -1.2)"/>
          <g id="ID0.9993524202145636">
            <path id="ID0.902618118096143" fill="#90B9D0" d="M 318.959 90.244 C 319.086 87.434 306.523 85.113 290.657 85.064 C 274.627 85.013 261.502 87.304 261.352 90.157 C 261.350 90.189 261.350 90.219 261.352 90.250 L 261.115 85.010 C 261.115 84.978 261.115 84.948 261.115 84.917 C 261.267 82.016 274.496 79.687 290.663 79.738 C 306.657 79.791 319.324 82.148 319.195 85.006 C 319.126 86.585 319.029 88.683 318.959 90.244 Z " transform="matrix(0.7550414204597473, 0, 0, 0.7550414204597473, 0, -1.2)"/>
          </g>
          <g id="ID0.31139548029750586">
            <path id="ID0.35325971664860845" fill="#90B9D0" d="M 319.195 85.005 L 318.959 90.243 C 318.955 90.274 318.954 90.305 318.953 90.335 L 319.186 85.097 C 319.192 85.068 319.195 85.037 319.195 85.005 Z " transform="matrix(0.7550414204597473, 0, 0, 0.7550414204597473, 0, -1.2)"/>
          </g>
          <g id="ID0.47645504865795374">
            <path id="ID0.14040717156603932" fill="#9B9395" d="M 277.540 98.678 C 275.030 89.322 271.835 79.816 267.946 70.239 C 268.796 72.331 278.191 73.993 289.764 74.029 C 301.604 74.068 311.483 72.393 312.359 70.238 C 308.470 79.816 305.274 89.318 302.764 98.677 C 302.453 99.441 298.807 100.438 298.989 99.315 C 298.950 99.550 298.911 99.787 298.876 100.023 C 298.040 100.205 297.192 100.337 296.337 100.422 C 296.233 100.433 296.128 100.441 296.033 100.417 C 295.643 100.329 295.636 99.843 295.264 99.720 C 295.202 100.757 294.256 100.631 293.208 100.679 C 292.115 100.727 291.020 100.747 289.930 100.745 C 288.505 100.738 287.084 100.692 285.664 100.600 C 284.143 100.499 284.096 100.122 283.863 98.948 C 284.242 100.874 281.552 100.200 280.189 99.888 C 279.483 99.728 277.733 99.396 277.540 98.678 Z " transform="matrix(0.7550414204597473, 0, 0, 0.7550414204597473, 0, -1.2)"/>
          </g>
          <g id="ID0.1589335580356419">
            <path id="ID0.29796356428414583" fill="#90B9D0" d="M 318.953 90.335 C 318.547 93.160 305.435 95.396 289.653 95.345 C 273.875 95.298 261.204 92.984 261.352 90.157 C 261.501 87.304 274.626 85.013 290.657 85.064 C 306.695 85.114 319.357 87.484 318.953 90.335 Z M 307.193 90.299 C 307.403 88.614 299.911 87.219 290.452 87.190 C 280.995 87.162 273.235 88.509 273.116 90.191 C 272.995 91.869 280.492 93.245 289.854 93.275 C 299.228 93.302 306.985 91.976 307.193 90.299 " transform="matrix(0.7550414204597473, 0, 0, 0.7550414204597473, 0, -1.2)"/>
          </g>
          <g id="ID0.9408586355857551">
            <path id="ID0.17397297266870737" fill="#90B9D0" d="M 261.353 90.250 L 261.116 85.010 C 261.246 87.842 273.916 90.143 289.650 90.192 C 305.559 90.242 318.778 87.971 319.187 85.098 L 318.954 90.336 C 318.548 93.161 305.436 95.397 289.654 95.346 C 274.044 95.298 261.476 93.034 261.353 90.250 Z " transform="matrix(0.7550414204597473, 0, 0, 0.7550414204597473, 0, -1.2)"/>
          </g>
          <path id="ID0.9938289574347436" fill="#878081" d="M 274.838 89.405 C 275.394 91.185 275.931 92.959 276.441 94.728 C 280.377 95.111 284.869 95.332 289.654 95.345 C 294.800 95.364 299.648 95.137 303.868 94.728 C 304.376 92.958 304.913 91.183 305.472 89.405 C 300.886 89.920 295.453 90.211 289.651 90.191 C 284.211 90.175 279.146 89.888 274.838 89.405 Z " transform="matrix(0.7550414204597473, 0, 0, 0.7550414204597473, 0, -1.2)"/>
          <g id="ID0.6975089497864246">
            <path id="ID0.8615250303409994" fill="#AABFD0" d="M 319.187 85.097 C 318.778 87.970 305.559 90.241 289.650 90.191 C 273.744 90.141 260.968 87.790 261.116 84.917 C 261.268 82.016 274.497 79.687 290.664 79.738 C 306.834 79.791 319.598 82.199 319.187 85.097 Z " transform="matrix(0.7550414204597473, 0, 0, 0.7550414204597473, 0, -1.2)"/>
          </g>
          <g id="ID0.5311553743667901">
            <path id="ID0.7026734231039882" fill="#BFCFDE" d="M 310.524 85.058 C 310.237 87.075 300.962 88.665 289.799 88.632 C 278.639 88.596 269.678 86.947 269.781 84.929 C 269.886 82.897 279.168 81.261 290.509 81.297 C 301.855 81.333 310.812 83.025 310.524 85.058 Z " transform="matrix(0.7550414204597473, 0, 0, 0.7550414204597473, 0, -1.2)"/>
          </g>
          <path id="ID0.16098612640053034" fill="#9B9395" d="M 271.994 80.886 C 273.007 83.736 273.948 86.576 274.838 89.406 C 279.146 89.888 284.211 90.176 289.650 90.191 C 295.453 90.211 300.885 89.920 305.471 89.405 C 306.358 86.576 307.303 83.734 308.311 80.886 C 303.471 80.187 297.360 79.759 290.664 79.738 C 283.606 79.716 277.097 80.148 271.994 80.886 Z " transform="matrix(0.7550414204597473, 0, 0, 0.7550414204597473, 0, -1.2)"/>
          <path id="ID0.11477145180106163" fill="#A5A2AA" d="M 272.741 83.060 C 273.220 84.452 273.682 85.841 274.132 87.228 C 277.794 88.066 283.438 88.611 289.800 88.632 C 296.414 88.651 302.362 88.101 306.172 87.230 C 306.621 85.843 307.085 84.453 307.565 83.060 C 304.059 82.023 297.779 81.322 290.510 81.297 C 282.989 81.273 276.377 81.986 272.741 83.060 Z " transform="matrix(0.7550414204597473, 0, 0, 0.7550414204597473, 0, -1.2)"/>
          <path id="ID0.18592619709670544" fill="#96673A" d="M 312.359 70.238 C 311.483 72.393 301.604 74.068 289.764 74.029 C 278.191 73.993 268.795 72.331 267.946 70.239 C 269.975 75.237 271.809 80.215 273.462 85.164 L 273.489 85.164 C 273.979 86.725 281.075 87.975 289.869 88.002 C 298.864 88.029 306.327 86.772 306.834 85.164 L 306.844 85.164 C 308.498 80.214 310.330 75.234 312.359 70.238 Z " transform="matrix(0.7550414204597473, 0, 0, 0.7550414204597473, 0, -1.2)"/>
          <path id="ID0.3488248777575791" fill="#875D34" d="M 267.946 70.239 C 268.026 70.441 268.104 70.640 268.185 70.842 C 268.360 70.894 268.532 70.956 268.704 71.033 C 268.317 70.777 268.056 70.512 267.946 70.239 Z " transform="matrix(0.7550414204597473, 0, 0, 0.7550414204597473, 0, -1.2)"/>
          <g id="ID0.0049758474342525005">
            <path id="ID0.3461687099188566" fill="#C58B49" d="M 312.455 70.029 C 312.394 70.937 310.711 71.625 309.481 72.111 C 308.117 72.650 306.957 73.522 306.195 74.584 C 306.189 73.993 306.185 73.402 306.181 72.810 C 304.359 73.477 302.379 73.838 300.398 73.870 C 300.192 73.871 299.973 73.874 299.792 73.958 C 299.581 74.058 299.460 74.248 299.354 74.427 C 299.085 74.884 298.819 75.339 298.547 75.794 C 298.486 75.428 298.492 74.564 298.111 74.327 C 297.660 74.049 296.033 74.270 295.474 74.288 C 293.719 74.343 291.976 74.515 290.226 74.599 C 286.745 74.761 283.234 74.574 279.798 74.037 C 279.802 75.550 279.807 77.060 279.812 78.561 C 278.645 77.281 277.472 75.995 276.297 74.704 C 275.941 74.311 275.575 73.912 275.071 73.642 C 274.425 73.300 273.664 73.231 272.967 72.994 C 272.168 72.721 271.630 72.271 270.847 71.978 C 269.932 71.634 268.511 71.296 268.046 70.475 C 267.480 69.472 268.534 68.531 269.466 68.038 C 272.564 66.403 276.398 65.835 279.994 65.268 C 280.167 65.241 280.352 65.217 280.511 65.284 C 280.642 65.341 280.723 65.452 280.798 65.557 C 281.254 66.203 281.708 66.846 282.161 67.489 C 282.062 66.884 282.582 66.305 283.237 66.022 C 284.308 65.557 286.077 65.406 287.282 65.208 C 288.796 64.958 290.370 65.044 291.899 65.140 C 295.313 65.353 298.718 65.642 302.104 66.005 C 302.604 66.058 302.810 67.083 302.493 67.242 C 304.053 66.460 305.698 66.956 307.297 67.311 C 308.774 67.640 310.492 68.027 311.664 68.865 C 312.256 69.285 312.479 69.673 312.455 70.029 Z " transform="matrix(0.7550414204597473, 0, 0, 0.7550414204597473, 0, -1.2)"/>
          </g>
          <path id="ID0.5974679286591709" fill="#D6A154" d="M 280.800 65.556 C 280.725 65.451 280.644 65.339 280.513 65.283 C 280.355 65.217 280.169 65.240 279.996 65.267 C 276.399 65.833 272.565 66.402 269.468 68.037 C 268.536 68.529 267.482 69.471 268.048 70.474 C 268.513 71.295 269.934 71.633 270.849 71.977 C 271.632 72.270 272.170 72.719 272.969 72.993 C 273.666 73.230 274.428 73.300 275.073 73.641 C 275.577 73.912 275.942 74.311 276.299 74.703 C 277.141 75.629 277.981 76.548 278.821 77.471 C 279.149 77.453 279.479 77.428 279.809 77.395 C 279.805 76.278 279.801 75.162 279.799 74.037 C 280.979 74.221 282.168 74.348 283.361 74.452 C 282.383 74.149 281.417 73.825 280.467 73.450 C 280.873 72.225 281.435 71.054 282.135 69.968 C 280.050 70.607 277.968 71.245 275.881 71.884 C 275.627 71.962 275.367 72.040 275.098 72.048 C 274.639 72.054 274.209 71.847 273.798 71.643 C 272.309 70.908 270.820 70.169 269.334 69.433 C 271.334 67.475 274.052 66.965 276.705 66.334 C 277.631 66.114 278.717 65.971 279.668 65.887 C 280.734 67.331 281.800 68.776 282.867 70.221 C 283.021 69.265 283.172 68.312 283.327 67.355 C 283.349 67.209 283.380 67.050 283.493 66.953 C 283.570 66.887 283.676 66.862 283.775 66.838 C 286.515 66.219 289.175 65.698 291.984 65.698 C 294.629 65.698 297.214 65.543 300.638 65.863 C 299.208 65.720 297.777 65.586 296.343 65.466 C 294.864 65.347 293.382 65.233 291.900 65.141 C 290.371 65.045 288.796 64.959 287.283 65.209 C 286.078 65.407 284.309 65.559 283.238 66.023 C 282.583 66.306 282.063 66.884 282.162 67.490 C 281.710 66.845 281.256 66.203 280.800 65.556 Z " transform="matrix(0.7550414204597473, 0, 0, 0.7550414204597473, 0, -1.2)"/>
          <path id="ID0.5732113267295063" fill="#AC7C40" d="M 302.495 67.241 C 302.777 67.099 302.644 66.271 302.255 66.056 C 301.187 67.151 300.144 68.271 299.151 69.439 C 300.713 68.595 302.268 67.730 303.816 66.861 C 303.372 66.910 302.929 67.021 302.495 67.241 Z M 282.163 67.488 C 281.710 66.845 281.256 66.203 280.800 65.556 C 280.725 65.451 280.644 65.339 280.513 65.283 C 280.509 65.282 280.506 65.281 280.501 65.281 C 280.755 66.108 281.177 66.885 281.605 67.644 L 282.683 69.558 C 282.621 68.449 282.684 67.336 282.853 66.236 C 282.396 66.550 282.086 67.009 282.163 67.488 Z M 275.005 73.615 C 275.028 73.626 275.052 73.631 275.073 73.640 C 275.577 73.911 275.942 74.310 276.299 74.702 C 277.474 75.993 278.647 77.279 279.814 78.559 C 279.809 77.176 279.806 75.788 279.800 74.396 L 279.745 73.899 C 280.159 72.688 280.731 71.536 281.448 70.476 C 279.280 71.476 277.136 72.530 275.005 73.615 Z " transform="matrix(0.7550414204597473, 0, 0, 0.7550414204597473, 0, -1.2)"/>
          <path id="ID0.4828981654718518" fill="#942F82" d="M 285.159 181.922 C 286.061 182.188 287.149 181.840 287.624 181.026 C 287.832 180.673 287.919 180.262 287.943 179.856 C 288.076 177.835 285.631 174.693 283.503 176.665 C 282.009 178.045 283.440 181.420 285.159 181.922 Z " transform="matrix(0.7550414204597473, 0, 0, 0.7550414204597473, 0, -1.2)"/>
          <path id="ID0.5182806514203548" fill="#942F82" d="M 334.340 193.624 C 334.752 193.248 334.954 192.626 334.752 192.107 C 334.656 191.872 334.487 191.667 334.295 191.503 C 333.256 190.616 330.734 190.517 330.563 192.315 C 330.394 194.086 333.271 194.597 334.340 193.624 Z " transform="matrix(0.7550414204597473, 0, 0, 0.7550414204597473, 0, -1.2)"/>
          <path id="ID0.7861012211069465" fill="#942F82" d="M 329.191 188.926 C 330.398 188.035 328.600 186.679 327.601 186.944 C 325.501 187.500 327.428 190.229 329.191 188.926 Z " transform="matrix(0.7550414204597473, 0, 0, 0.7550414204597473, 0, -1.2)"/>
          <path id="ID0.44598182989284396" fill="#C05B9D" d="M 318.163 187.233 C 317.326 186.715 317.469 185.169 318.590 185.276 C 319.382 185.350 319.969 186.191 319.526 186.909 C 319.258 187.352 318.605 187.504 318.163 187.233 Z " transform="matrix(0.7550414204597473, 0, 0, 0.7550414204597473, 0, -1.2)"/>
          <path id="ID0.8744998807087541" fill="#C05B9D" d="M 295.243 173.323 C 291.290 173.042 287.663 170.961 284.661 168.376 C 276.875 161.681 272.860 151.376 277.925 141.714 C 279.411 138.880 281.635 136.191 281.635 132.991 C 281.635 131.429 281.089 129.911 280.995 128.350 C 280.905 126.790 281.458 124.994 282.901 124.395 C 286.405 122.942 286.425 129.066 285.483 130.887 C 285.342 131.157 285.202 131.533 285.442 131.719 C 285.665 131.893 285.981 131.703 286.188 131.510 C 288.221 129.627 289.423 126.897 289.538 124.131 C 289.670 121.058 287.470 119.636 286.675 116.871 C 285.987 114.480 288.464 111.219 290.866 113.106 C 297.143 118.037 295.248 129.611 290.896 135.117 C 289.392 137.021 287.609 138.471 285.844 140.056 C 284.270 141.471 283.527 143.910 283.128 145.935 C 282.238 150.435 283.237 155.357 286.109 158.972 C 283.756 155.326 283.493 150.423 285.441 146.546 C 285.711 146.011 286.035 145.476 286.529 145.141 C 287.029 144.803 287.732 144.718 288.213 145.078 C 289.148 145.783 288.505 147.238 287.981 148.285 C 286.082 152.064 286.809 156.639 288.209 160.631 C 289.039 163.009 290.189 165.427 292.267 166.845 C 295.259 168.887 300.025 169.455 303.396 168.182 C 306.161 167.139 308.463 164.919 309.608 162.191 C 310.217 164.114 308.538 165.938 307.013 167.258 C 310.797 166.027 311.541 161.578 311.430 158.125 C 311.371 156.356 310.979 154.578 310.093 153.047 C 310.356 153.502 310.846 153.887 311.143 154.334 C 311.472 154.822 311.750 155.342 311.979 155.883 C 312.438 156.968 312.696 158.137 312.733 159.314 C 312.815 161.798 311.801 164.280 310.352 166.260 C 307.133 170.653 300.675 173.706 295.243 173.323 Z " transform="matrix(0.7550414204597473, 0, 0, 0.7550414204597473, 0, -1.2)"/>
          <path id="ID0.4245419595390558" fill="#C05B9D" d="M 293.263 106.650 C 294.554 109.090 295.180 112.354 294.848 115.097 C 294.810 115.401 294.685 115.780 294.376 115.793 C 294.085 115.805 293.921 115.469 293.830 115.190 C 293.313 113.641 292.675 111.639 291.610 110.373 C 290.735 109.334 289.477 108.708 288.817 107.436 C 288.387 106.610 288.339 105.496 288.989 104.827 C 289.622 104.177 290.716 104.178 291.509 104.620 C 292.300 105.064 292.837 105.849 293.263 106.650 Z " transform="matrix(0.7550414204597473, 0, 0, 0.7550414204597473, 0, -1.2)"/>
          <path id="ID0.8049252815544605" fill="#C05B9D" d="M 283.292 121.983 C 283.878 121.795 284.256 121.222 284.466 120.644 C 284.978 119.203 284.628 117.491 283.589 116.370 C 283.404 116.171 283.193 115.981 282.930 115.911 C 281.733 115.589 280.872 117.065 280.808 118.024 C 280.720 119.295 281.236 122.643 283.292 121.983 Z " transform="matrix(0.7550414204597473, 0, 0, 0.7550414204597473, 0, -1.2)"/>
          <path id="ID0.20394802931696177" fill="#C05B9D" d="M 304.547 176.852 C 309.121 174.615 311.094 170.290 312.221 165.506 C 312.750 163.260 312.790 160.830 311.901 158.699 C 311.637 160.962 311.335 163.231 310.678 165.414 C 309.451 169.512 307.041 172.761 302.906 174.158 C 300.658 174.919 298.289 175.242 295.957 175.683 C 295.256 175.815 294.422 176.081 294.263 176.779 C 294.198 177.060 294.266 177.359 294.391 177.619 C 295.072 179.028 297.015 179.184 298.555 178.916 C 300.642 178.553 302.642 177.782 304.547 176.852 Z " transform="matrix(0.7550414204597473, 0, 0, 0.7550414204597473, 0, -1.2)"/>
          <path id="ID0.6263942061923444" fill="#942F82" d="M 302.317 139.305 C 304.125 138.478 303.592 136.692 302.534 136.073 C 301.798 135.645 300.805 135.780 300.165 137.189 C 299.300 139.094 300.569 140.102 302.317 139.305 Z " transform="matrix(0.7550414204597473, 0, 0, 0.7550414204597473, 0, -1.2)"/>
          <path id="ID0.5071687512099743" fill="#942F82" d="M 310.893 150.721 C 311.372 150.852 311.955 150.886 312.289 150.521 C 312.697 150.073 312.458 149.356 312.152 148.834 C 311.552 147.822 309.377 145.686 308.058 145.947 C 304.959 146.559 309.648 150.382 310.893 150.721 Z " transform="matrix(0.7550414204597473, 0, 0, 0.7550414204597473, 0, -1.2)"/>
          <path id="ID0.4330683625303209" fill="#942F82" d="M 292.708 196.498 C 293.604 194.664 292.979 193.337 291.933 191.865 C 291.412 191.128 291.306 190.829 290.443 190.581 C 290.255 190.528 289.289 190.499 289.201 190.310 C 290.017 192.062 290.107 194.425 288.995 196.060 C 288.678 196.525 288.263 197.026 288.376 197.577 C 288.490 198.135 289.111 198.443 289.678 198.482 C 290.953 198.564 292.144 197.650 292.708 196.498 Z " transform="matrix(0.7550414204597473, 0, 0, 0.7550414204597473, 0, -1.2)"/>
          <path id="ID0.26608919631689787" fill="#875D34" d="M 301.609 81 C 302.071 80.746 302.341 80.246 302.530 79.754 C 302.646 79.449 302.746 79.131 302.734 78.807 C 302.723 78.480 302.592 78.145 302.326 77.957 C 301.463 77.351 300.505 78.321 300.331 79.109 C 300.138 79.976 300.226 81.755 301.609 81 Z " transform="matrix(0.7550414204597473, 0, 0, 0.7550414204597473, 0, -1.2)"/>
          <path id="ID0.8299186020158231" fill="#875D34" d="M 287.155 81.336 C 287.479 81.735 288.100 81.828 288.560 81.596 C 289.020 81.364 289.309 80.855 289.337 80.338 C 289.383 79.480 288.686 78.487 287.746 78.556 C 286.399 78.653 286.516 80.555 287.155 81.336 Z " transform="matrix(0.7550414204597473, 0, 0, 0.7550414204597473, 0, -1.2)"/>
          <path id="ID0.07644338393583894" fill="#875D34" d="M 285.657 85.361 C 285.882 85.562 286.245 85.400 286.450 85.179 C 286.641 84.968 286.782 84.694 286.769 84.408 C 286.704 82.996 284.388 84.228 285.657 85.361 Z " transform="matrix(0.7550414204597473, 0, 0, 0.7550414204597473, 0, -1.2)"/>
          <path id="ID0.17122417502105236" fill="#875D34" d="M 273.633 77.103 C 273.923 77.175 274.219 76.980 274.386 76.732 C 274.820 76.100 274.613 74.929 273.755 74.763 C 272.523 74.523 272.692 76.871 273.633 77.103 Z " transform="matrix(0.7550414204597473, 0, 0, 0.7550414204597473, 0, -1.2)"/>
          <path id="ID0.4787211939692497" fill="#875D34" d="M 283.290 78.950 C 283.397 79.021 283.546 78.951 283.655 78.877 C 283.975 78.654 284.068 78.337 284.025 78.065 C 283.960 77.627 283.551 77.307 283.193 77.689 C 282.815 78.087 282.828 78.650 283.290 78.950 Z " transform="matrix(0.7550414204597473, 0, 0, 0.7550414204597473, 0, -1.2)"/>
          <path id="ID0.8038600794970989" fill="#875D34" d="M 305.115 84.564 C 306.422 84.636 306.883 82.449 305.515 82.628 C 304.752 82.726 304.035 84.505 305.115 84.564 Z " transform="matrix(0.7550414204597473, 0, 0, 0.7550414204597473, 0, -1.2)"/>
          <path id="ID0.7681173090822995" fill="#875D34" d="M 307.725 78.569 C 307.723 78.728 307.759 78.904 307.888 78.996 C 307.998 79.071 308.149 79.062 308.270 79.008 C 308.391 78.949 308.484 78.850 308.569 78.746 C 308.880 78.370 308.891 77.347 308.155 77.695 C 307.828 77.849 307.729 78.236 307.725 78.569 Z " transform="matrix(0.7550414204597473, 0, 0, 0.7550414204597473, 0, -1.2)"/>
          <path id="ID0.7521086754277349" fill="#875D34" d="M 296.431 77.611 C 296.732 77.063 296.342 75.404 295.460 75.966 C 294.316 76.694 295.604 79.118 296.431 77.611 Z " transform="matrix(0.7550414204597473, 0, 0, 0.7550414204597473, 0, -1.2)"/>
          <path id="ID0.0761866164393723" fill="#875D34" d="M 298.475 86.172 C 299.085 86.025 299.133 85.179 298.537 84.929 C 297.615 84.541 297.458 86.415 298.475 86.172 Z " transform="matrix(0.7550414204597473, 0, 0, 0.7550414204597473, 0, -1.2)"/>
          <path id="ID0.9679378625005484" fill="#D084B6" d="M 287.832 115.606 C 287.335 116.979 287.759 118.637 288.853 119.601 C 289.214 119.920 289.642 120.170 289.941 120.549 C 290.643 121.432 290.454 122.715 290.831 123.778 C 290.881 123.911 290.957 124.059 291.096 124.086 C 291.242 124.116 291.371 123.995 291.461 123.876 C 291.711 123.538 291.844 123.132 291.945 122.726 C 292.511 120.461 292.103 117.966 290.840 116.003 C 290.111 114.874 288.503 113.751 287.832 115.606 Z " transform="matrix(0.7550414204597473, 0, 0, 0.7550414204597473, 0, -1.2)"/>
          <path id="ID0.8925923630595207" fill="#D084B6" d="M 277.347 147.386 C 276.949 149.746 276.897 152.289 278.002 154.410 C 278.167 154.726 278.569 155.064 278.817 154.810 C 278.917 154.709 278.931 154.554 278.938 154.412 C 278.991 153.146 278.864 151.879 278.881 150.611 C 278.959 145.789 281.377 141.795 282.768 137.340 C 282.823 137.158 282.877 136.967 282.848 136.780 C 282.818 136.592 282.673 136.410 282.487 136.397 C 282.297 136.382 282.137 136.533 282.009 136.675 C 279.487 139.504 277.969 143.702 277.347 147.386 Z " transform="matrix(0.7550414204597473, 0, 0, 0.7550414204597473, 0, -1.2)"/>
          <path id="ID0.20847208565101027" fill="#D084B6" d="M 285.188 150.292 C 285.229 150.506 285.323 150.751 285.534 150.796 C 285.723 150.835 285.895 150.691 286.027 150.547 C 286.848 149.660 287.352 148.485 287.431 147.276 C 287.520 145.933 286.447 146.517 285.866 147.126 C 285.085 147.942 284.978 149.199 285.188 150.292 Z " transform="matrix(0.7550414204597473, 0, 0, 0.7550414204597473, 0, -1.2)"/>
          <path id="ID0.2583165201358497" fill="#D084B6" d="M 300.663 187.669 C 300.577 187.818 300.505 188.010 300.597 188.156 C 300.676 188.285 300.843 188.322 300.993 188.327 C 301.634 188.348 302.220 188.001 302.809 187.745 C 303.463 187.459 304.163 187.273 304.874 187.199 C 305.630 187.121 306.401 187.164 307.124 186.941 C 307.261 186.902 307.407 186.836 307.458 186.703 C 307.502 186.586 307.450 186.456 307.383 186.352 C 307.088 185.920 306.501 185.820 305.980 185.808 C 304.311 185.766 301.597 186.038 300.663 187.669 Z " transform="matrix(0.7550414204597473, 0, 0, 0.7550414204597473, 0, -1.2)"/>
          <path id="ID0.34585359785705805" fill="#D084B6" d="M 309.812 183.354 C 310.033 183.278 310.275 183.148 310.315 182.918 C 310.357 182.680 310.155 182.466 309.946 182.340 C 309.302 181.946 306.775 181.310 306.400 182.495 C 305.987 183.801 309.183 183.567 309.812 183.354 Z " transform="matrix(0.7550414204597473, 0, 0, 0.7550414204597473, 0, -1.2)"/>
          <path id="ID0.7309782411903143" fill="#D084B6" d="M 279.569 173.524 C 278.604 171.784 276.967 170.861 274.970 170.920 C 274.664 170.930 274.266 171.060 274.276 171.366 C 274.288 171.627 274.588 171.757 274.833 171.845 C 276.354 172.378 277.876 173.781 278.210 175.407 C 278.300 175.836 278.372 176.368 278.782 176.528 C 278.981 176.605 279.208 176.563 279.395 176.466 C 279.881 176.211 280.120 175.619 280.096 175.070 C 280.074 174.521 279.833 174.006 279.569 173.524 Z " transform="matrix(0.7550414204597473, 0, 0, 0.7550414204597473, 0, -1.2)"/>
          <path id="ID0.5171678690239787" fill="#D084B6" d="M 271.987 177.435 C 271.983 177.229 271.866 177.045 271.737 176.882 C 271.178 176.197 269.625 175.168 269.321 176.608 C 268.999 178.141 272.003 178.583 271.987 177.435 Z " transform="matrix(0.7550414204597473, 0, 0, 0.7550414204597473, 0, -1.2)"/>
          <path id="ID0.18472369387745857" fill="#D084B6" d="M 293.624 193.943 C 293.683 194.306 294.062 194.521 294.407 194.646 C 295.038 194.868 295.706 194.967 296.372 194.947 C 296.969 194.926 297.561 194.806 298.118 194.588 C 298.388 194.483 298.679 194.328 298.765 194.050 C 298.879 193.690 298.601 193.324 298.299 193.097 C 297.590 192.567 296.617 192.021 295.700 192.183 C 295.031 192.299 293.494 193.125 293.624 193.943 Z " transform="matrix(0.7550414204597473, 0, 0, 0.7550414204597473, 0, -1.2)"/>
          <path id="ID0.3126390101388097" fill="url(#grad_3)" opacity="0.61" d="M 266.032 204.773 C 274.264 194.150 278.656 178.407 281.620 167.012 C 286.437 148.492 287.388 129.060 284.757 110.121 C 284.427 107.744 283.935 105.210 282.222 103.531 C 280.805 103.844 280.298 105.579 280.132 107.023 C 278.666 119.796 279.933 131.496 273.261 143.022 C 267.552 152.886 259.491 161.082 252.730 170.191 C 244.634 181.095 235.703 193.387 240.916 207.684 C 243.428 214.565 249.994 216.911 256.398 213.360 C 260.099 211.307 263.280 208.328 266.032 204.773 Z " transform="matrix(0.7550414204597473, 0, 0, 0.7550414204597473, 0, -1.2)"/>
          <path id="ID0.010596905369311571" fill="#BFCFDE" d="M 290.566 89.885 C 274.665 89.560 261.930 86.992 262.129 84.119 C 262.147 83.863 262.272 83.614 262.484 83.373 C 261.622 83.860 261.144 84.378 261.114 84.916 C 260.967 87.789 273.742 90.141 289.648 90.190 C 294.662 90.206 299.406 89.991 303.567 89.598 C 299.629 89.871 295.215 89.980 290.566 89.885 Z " transform="matrix(0.7550414204597473, 0, 0, 0.7550414204597473, 0, -1.2)"/>
          <path id="ID0.3284507798962295" fill="#FFFFFF" d="M 265.376 86.731 C 265.300 86.765 265.224 86.814 265.186 86.887 C 265.134 86.987 265.162 87.113 265.228 87.202 C 265.292 87.289 265.392 87.348 265.488 87.403 C 265.967 87.647 266.513 87.733 267.049 87.775 C 267.299 87.794 267.555 87.804 267.797 87.745 C 267.866 87.726 267.940 87.700 267.985 87.645 C 268.049 87.569 268.045 87.455 268 87.367 C 267.955 87.277 267.877 87.213 267.796 87.153 C 267.210 86.728 266.081 86.415 265.376 86.731 Z " transform="matrix(0.7550414204597473, 0, 0, 0.7550414204597473, 0, -1.2)"/>
          <path id="ID0.8860248154960573" fill="#FFFFFF" d="M 270.110 87.811 C 269.651 87.339 268.315 87.716 268.981 88.111 C 269.305 88.304 269.727 88.328 270.071 88.164 C 270.118 88.142 270.163 88.117 270.186 88.074 C 270.234 87.990 270.178 87.881 270.110 87.811 Z " transform="matrix(0.7550414204597473, 0, 0, 0.7550414204597473, 0, -1.2)"/>
          <path id="ID0.9034900921396911" fill="#FFFFFF" opacity="0.7" d="M 263.776 159.926 C 263.184 161.080 262.801 162.527 263.485 163.629 C 264.081 164.588 265.354 164.967 266.471 164.775 C 267.587 164.587 268.569 163.937 269.444 163.219 C 270.497 162.357 271.463 161.363 272.122 160.173 C 272.780 158.982 273.108 157.577 272.855 156.240 C 272.719 155.530 272.379 154.803 271.743 154.460 C 270.987 154.050 270.047 154.288 269.261 154.634 C 266.896 155.674 264.948 157.636 263.776 159.926 Z " transform="matrix(0.7550414204597473, 0, 0, 0.7550414204597473, 0, -1.2)"/>
          <path id="ID0.2933006603270769" fill="#FFFFFF" opacity="0.7" d="M 272.236 151.083 C 272.143 151.595 272.157 152.192 272.537 152.551 C 273.011 152.998 273.780 152.846 274.380 152.587 C 275.597 152.062 276.755 151.093 276.960 149.780 C 277.030 149.326 276.968 148.822 276.667 148.473 C 275.021 146.567 272.528 149.502 272.236 151.083 Z " transform="matrix(0.7550414204597473, 0, 0, 0.7550414204597473, 0, -1.2)"/>
        </g>
        <path id="ID0.23985390178859234" fill="none" stroke="#7A542E" stroke-width="3.0212" stroke-linecap="round" d="M 274.556 136.930 C 277.460 139.802 281.189 141.752 285.101 142.909 C 289.013 144.063 293.118 144.454 297.205 144.483 C 301.712 144.520 306.241 144.122 310.615 143.028 " transform="matrix(0.7550414204597473, 0, 0, 0.7550414204597473, 0, -1.2)"/>
        <path id="ID0.8482281523756683" fill="none" stroke="#96673A" stroke-width="3.0212" stroke-linecap="round" d="M 273.716 135.061 C 282.086 143.290 297.685 142.901 308.051 139.456 " transform="matrix(0.7550414204597473, 0, 0, 0.7550414204597473, 0, -1.2)"/>
        <path id="ID0.17725881654769182" fill="none" stroke="#96673A" stroke-width="3.0212" stroke-linecap="round" d="M 307.531 140.831 C 308.640 141.198 309.351 142.290 309.756 143.387 C 310.535 145.499 310.488 147.810 310.692 150.051 C 310.899 152.292 311.448 154.663 313.088 156.202 C 315.341 158.311 321.515 158.731 322.640 154.974 C 322.954 153.926 322.521 152.812 322.035 151.832 C 320.914 149.586 319.532 146.516 317.564 144.907 C 315.466 143.192 312.652 142.722 310.132 141.720 C 309.807 141.592 309.486 141.452 309.163 141.314 " transform="matrix(0.7550414204597473, 0, 0, 0.7550414204597473, 0, -1.2)"/>
        <path id="ID0.38475260557606816" fill="#C88E4D" d="M 332.512 158.035 C 331.820 157.229 331.119 156.421 330.336 155.699 C 330.256 155.626 328.670 154.005 329.080 154.024 C 325.320 153.834 321.559 153.641 317.801 153.450 C 317.451 153.432 317.080 153.421 316.776 153.595 C 316.503 153.751 316.329 154.036 316.166 154.308 C 315.873 154.800 315.581 155.295 315.287 155.787 C 315.890 156.035 316.600 156.203 317.343 156.261 C 317.452 156.101 317.572 155.950 317.706 155.828 C 318.374 155.224 319.499 154.924 320.371 154.902 C 320.997 154.884 321.651 155.064 322.098 155.506 C 322.927 156.330 322.527 157.670 321.804 158.408 C 321.351 158.872 320.772 159.195 320.168 159.428 C 319.667 159.623 319.136 159.762 318.601 159.731 C 318.175 159.708 317.750 159.563 317.423 159.297 C 316.121 159.241 314.829 158.933 313.730 158.410 C 313.254 159.208 312.785 160.002 312.309 160.799 L 311.595 162.005 C 311.488 162.183 311.382 162.370 311.386 162.576 C 311.395 162.754 311.485 162.916 311.573 163.066 C 315.117 169.166 318.254 175.470 321.560 181.710 C 323.036 180.918 324.525 180.154 326.025 179.415 C 326.502 179.181 329.433 178.031 329.527 177.439 C 329.539 177.373 329.506 177.305 329.474 177.248 C 328.970 176.279 328.466 175.312 327.959 174.346 C 328.972 174.873 329.927 175.508 330.806 176.238 C 330.929 176.344 331.060 176.453 331.216 176.497 C 331.353 176.536 331.500 176.520 331.640 176.501 C 333.679 176.212 335.714 175.056 337.620 174.315 C 338.298 174.049 344.096 171.487 344.419 171.862 L 332.512 158.035 Z " transform="matrix(0.7550414204597473, 0, 0, 0.7550414204597473, 0, -1.2)"/>
        <path id="ID0.5937225054949522" fill="#D6A154" d="M 322.181 180.387 C 324.002 179.586 325.824 178.785 327.647 177.984 C 327.766 177.930 327.902 177.864 327.946 177.737 C 327.989 177.609 327.916 177.470 327.850 177.352 C 326.818 175.581 325.788 173.813 324.756 172.043 C 326.187 172.897 327.680 173.646 329.221 174.277 C 329.772 174.500 330.342 174.716 330.938 174.742 C 331.602 174.774 332.254 174.569 332.893 174.367 C 336.468 173.229 340.045 172.079 343.629 170.943 L 332.512 158.034 C 331.820 157.228 331.119 156.420 330.336 155.698 C 330.256 155.625 328.670 154.004 329.080 154.023 C 325.320 153.833 321.559 153.640 317.801 153.449 C 317.451 153.431 317.080 153.420 316.776 153.594 C 316.503 153.750 316.329 154.035 316.166 154.307 C 315.873 154.799 315.581 155.294 315.287 155.786 C 315.890 156.034 316.600 156.202 317.343 156.260 C 317.452 156.100 317.572 155.949 317.706 155.827 C 318.374 155.223 319.499 154.923 320.371 154.901 C 320.997 154.883 321.651 155.063 322.098 155.505 C 322.927 156.329 322.527 157.669 321.804 158.407 C 321.351 158.871 320.772 159.194 320.168 159.427 C 319.667 159.622 319.136 159.761 318.601 159.730 C 318.175 159.707 317.750 159.562 317.423 159.296 C 316.121 159.240 314.829 158.932 313.730 158.409 C 313.254 159.207 312.785 160.001 312.309 160.798 L 311.595 162.004 C 311.522 162.124 311.452 162.248 311.415 162.380 C 315.004 168.383 318.592 174.385 322.181 180.387 Z " transform="matrix(0.7550414204597473, 0, 0, 0.7550414204597473, 0, -1.2)"/>
        <path id="ID0.26065409230068326" fill="#96673A" d="M 328.232 160.356 C 328.709 160.289 329.189 160.238 329.660 160.194 C 329.453 159.752 328.878 159.641 328.389 159.635 C 325.878 159.613 322.957 161.031 321.420 163.033 C 320.037 164.834 319.338 167.702 320.856 169.637 C 321.479 170.428 322.432 170.891 323.403 171.145 C 325.435 171.677 327.696 171.352 329.448 170.187 C 330.286 169.627 331.018 168.871 331.400 167.938 C 331.786 167.006 331.786 165.891 331.276 165.020 C 330.694 164.039 329.512 163.493 328.372 163.534 C 327.232 163.575 326.153 164.145 325.345 164.954 C 324.983 165.313 324.660 165.739 324.564 166.243 C 324.470 166.743 324.658 167.326 325.111 167.561 C 325.559 167.799 326.236 167.524 326.288 167.018 C 326.333 166.582 325.953 166.190 325.973 165.750 C 325.998 165.305 326.432 164.988 326.860 164.855 C 327.758 164.574 328.932 164.969 329.159 165.882 C 329.397 166.837 328.555 167.693 327.782 168.306 C 326.820 169.064 325.800 169.818 324.607 170.098 C 323.299 170.406 321.698 170.001 321.108 168.689 C 319.924 166.052 322.782 163.612 324.899 162.709 C 326.049 162.215 327.272 161.909 328.489 161.607 C 327.131 161.138 325.639 161.556 324.263 161.975 C 325.312 160.959 326.760 160.567 328.232 160.356 Z " transform="matrix(0.7550414204597473, 0, 0, 0.7550414204597473, 0, -1.2)"/>
      </g>
      <path id="ID0.6190312043763697" fill="#FFFFFF" d="M 342.336 115.320 L 344.004 135.009 L 363.666 136.679 L 344.004 138.350 L 342.336 158.040 L 340.670 138.350 L 321.007 136.679 L 340.670 135.009 L 342.336 115.320 " transform="matrix(0.7550414204597473, 0, 0, 0.7550414204597473, 0, -1.2)"/>
      <path id="ID0.17193008633330464" fill="#FFFFFF" d="M 356.869 83.425 L 357.961 96.296 L 370.812 97.388 L 357.961 98.480 L 356.869 111.351 L 355.782 98.480 L 342.928 97.388 L 355.782 96.296 L 356.869 83.425 " transform="matrix(0.7550414204597473, 0, 0, 0.7550414204597473, 0, -1.2)"/>
      <path id="ID0.4571811310015619" fill="#FFFFFF" d="M 238.135 118.578 L 240.247 143.535 L 265.169 145.651 L 240.247 147.768 L 238.135 172.725 L 236.021 147.768 L 211.101 145.651 L 236.021 143.535 L 238.135 118.578 " transform="matrix(0.7550414204597473, 0, 0, 0.7550414204597473, 0, -1.2)"/>
    </g>
  </g>
  <text id="ID0.6274085403420031" fill="#000000" x="126" y="230.25" text-anchor="start" font-family="Helvetica" font-size="22" transform="matrix(2.0797226428985596, 0, 0, 2.0797226428985596, 133, 196.3)">BRAVO !</text>
</svg>