<?xml version="1.0" encoding="utf-8"?>
<!-- Generator: Adobe Illustrator 16.0.0, SVG Export Plug-In . SVG Version: 6.00 Build 0)  -->
<!DOCTYPE svg PUBLIC "-//W3C//DTD SVG 1.0//EN" "http://www.w3.org/TR/2001/REC-SVG-20010904/DTD/svg10.dtd">
<svg version="1.0" id="Calque_1" xmlns="http://www.w3.org/2000/svg" xmlns:xlink="http://www.w3.org/1999/xlink" x="0px" y="0px"
	 width="480px" height="360px" viewBox="0 0 480 360" enable-background="new 0 0 480 360" xml:space="preserve">
<g>
	<g>
		<defs>
			<polyline id="SVGID_1_" points="523.896,-26.416 -71.107,-26.416 -71.107,814.584 523.896,814.584 			"/>
		</defs>
		<clipPath id="SVGID_2_">
			<use xlink:href="#SVGID_1_"  overflow="visible"/>
		</clipPath>
		<rect y="-0.167" clip-path="url(#SVGID_2_)" fill="#73CAEA" width="480" height="248.835"/>
	</g>
	<g>
		<defs>
			<polyline id="SVGID_3_" points="523.896,-26.416 -71.107,-26.416 -71.107,814.584 523.896,814.584 			"/>
		</defs>
		<clipPath id="SVGID_4_">
			<use xlink:href="#SVGID_3_"  overflow="visible"/>
		</clipPath>
		<polygon clip-path="url(#SVGID_4_)" fill="#FFFFFF" points="31.917,184.135 31.631,150.365 65.114,146.526 77.667,128.085 
			91.67,147.314 92.683,183.697 		"/>
	</g>
	<g>
		<defs>
			<polyline id="SVGID_5_" points="523.896,-26.416 -71.107,-26.416 -71.107,814.584 523.896,814.584 			"/>
		</defs>
		<clipPath id="SVGID_6_">
			<use xlink:href="#SVGID_5_"  overflow="visible"/>
		</clipPath>
		<polygon clip-path="url(#SVGID_6_)" fill="#FFFFFF" points="-0.777,186.833 0,157.942 8.347,145.861 21.796,161.921 
			22.348,189.324 		"/>
	</g>
	<g>
		<defs>
			<polyline id="SVGID_7_" points="523.896,-26.416 -71.107,-26.416 -71.107,814.584 523.896,814.584 			"/>
		</defs>
		<clipPath id="SVGID_8_">
			<use xlink:href="#SVGID_7_"  overflow="visible"/>
		</clipPath>
		<polygon clip-path="url(#SVGID_8_)" fill="#0072BB" points="0,146.737 9.334,144.664 23.533,161.741 21.811,162.556 
			7.947,146.084 0,157.942 		"/>
	</g>
	<g>
		<defs>
			<polyline id="SVGID_9_" points="523.896,-26.416 -71.107,-26.416 -71.107,814.584 523.896,814.584 			"/>
		</defs>
		<clipPath id="SVGID_10_">
			<use xlink:href="#SVGID_9_"  overflow="visible"/>
		</clipPath>
		<polygon clip-path="url(#SVGID_10_)" fill="#E9511D" points="28.851,151.521 38.363,134.403 79.055,126.664 93.046,146.352 
			91.322,147.167 77.667,128.084 65.629,146.255 		"/>
	</g>
	<g>
		<defs>
			<polyline id="SVGID_11_" points="523.896,-26.416 -71.107,-26.416 -71.107,814.584 523.896,814.584 			"/>
		</defs>
		<clipPath id="SVGID_12_">
			<use xlink:href="#SVGID_11_"  overflow="visible"/>
		</clipPath>
		<polygon clip-path="url(#SVGID_12_)" points="6.249,156.152 6.846,166.274 10.801,166.206 10.698,156.141 		"/>
	</g>
	<g>
		<defs>
			<polyline id="SVGID_13_" points="523.896,-26.416 -71.107,-26.416 -71.107,814.584 523.896,814.584 			"/>
		</defs>
		<clipPath id="SVGID_14_">
			<use xlink:href="#SVGID_13_"  overflow="visible"/>
		</clipPath>
		<polygon clip-path="url(#SVGID_14_)" points="42.651,154.29 42.491,164.429 38.535,164.531 38.205,154.47 		"/>
	</g>
	<g>
		<defs>
			<polyline id="SVGID_15_" points="523.896,-26.416 -71.107,-26.416 -71.107,814.584 523.896,814.584 			"/>
		</defs>
		<clipPath id="SVGID_16_">
			<use xlink:href="#SVGID_15_"  overflow="visible"/>
		</clipPath>
		<polygon clip-path="url(#SVGID_16_)" points="43.27,168.664 43.109,178.802 39.154,178.905 38.824,168.843 		"/>
	</g>
	<g>
		<defs>
			<polyline id="SVGID_17_" points="523.896,-26.416 -71.107,-26.416 -71.107,814.584 523.896,814.584 			"/>
		</defs>
		<clipPath id="SVGID_18_">
			<use xlink:href="#SVGID_17_"  overflow="visible"/>
		</clipPath>
		<polygon clip-path="url(#SVGID_18_)" fill="#FFFFFF" points="39.772,137.676 43.638,140.752 43.478,150.89 36.505,151.562 
			36.174,141.5 		"/>
	</g>
	<g>
		<defs>
			<polyline id="SVGID_19_" points="523.896,-26.416 -71.107,-26.416 -71.107,814.584 523.896,814.584 			"/>
		</defs>
		<clipPath id="SVGID_20_">
			<use xlink:href="#SVGID_19_"  overflow="visible"/>
		</clipPath>
		<polygon clip-path="url(#SVGID_20_)" points="42.084,141.714 42.113,149.485 38.159,149.588 37.638,141.893 		"/>
	</g>
	<g>
		<defs>
			<polyline id="SVGID_21_" points="523.896,-26.416 -71.107,-26.416 -71.107,814.584 523.896,814.584 			"/>
		</defs>
		<clipPath id="SVGID_22_">
			<use xlink:href="#SVGID_21_"  overflow="visible"/>
		</clipPath>
		<g clip-path="url(#SVGID_22_)">
			<g>
				<defs>
					<polyline id="SVGID_23_" points="523.896,814.584 -71.107,814.584 -71.107,-26.416 523.896,-26.416 					"/>
				</defs>
				<defs>
					<polyline id="SVGID_24_" points="523.896,814.584 -71.107,814.584 -71.107,-26.416 523.896,-26.416 					"/>
				</defs>
				<defs>
					<polyline id="SVGID_25_" points="523.896,814.584 -71.107,814.584 -71.107,-26.416 523.896,-26.416 					"/>
				</defs>
				<defs>
					<polyline id="SVGID_26_" points="523.896,814.584 -71.107,814.584 -71.107,-26.416 523.896,-26.416 					"/>
				</defs>
				<defs>
					<polyline id="SVGID_27_" points="523.896,814.584 -71.107,814.584 -71.107,-26.416 523.896,-26.416 					"/>
				</defs>
				<defs>
					<polyline id="SVGID_28_" points="523.896,814.584 -71.107,814.584 -71.107,-26.416 523.896,-26.416 					"/>
				</defs>
				<defs>
					<polyline id="SVGID_29_" points="523.896,814.584 -71.107,814.584 -71.107,-26.416 523.896,-26.416 					"/>
				</defs>
				<defs>
					<polyline id="SVGID_30_" points="523.896,814.584 -71.107,814.584 -71.107,-26.416 523.896,-26.416 					"/>
				</defs>
				<defs>
					<polyline id="SVGID_31_" points="523.896,814.584 -71.107,814.584 -71.107,-26.416 523.896,-26.416 					"/>
				</defs>
				<defs>
					<polyline id="SVGID_32_" points="523.896,814.584 -71.107,814.584 -71.107,-26.416 523.896,-26.416 					"/>
				</defs>
				<defs>
					<polyline id="SVGID_33_" points="523.896,814.584 -71.107,814.584 -71.107,-26.416 523.896,-26.416 					"/>
				</defs>
				<defs>
					<polyline id="SVGID_34_" points="523.896,814.584 -71.107,814.584 -71.107,-26.416 523.896,-26.416 					"/>
				</defs>
				<defs>
					<polyline id="SVGID_35_" points="523.896,814.584 -71.107,814.584 -71.107,-26.416 523.896,-26.416 					"/>
				</defs>
				<defs>
					<polyline id="SVGID_36_" points="523.896,814.584 -71.107,814.584 -71.107,-26.416 523.896,-26.416 					"/>
				</defs>
				<defs>
					<polyline id="SVGID_37_" points="523.896,814.584 -71.107,814.584 -71.107,-26.416 523.896,-26.416 					"/>
				</defs>
				<defs>
					<polyline id="SVGID_38_" points="523.896,814.584 -71.107,814.584 -71.107,-26.416 523.896,-26.416 					"/>
				</defs>
				<defs>
					<polyline id="SVGID_39_" points="523.896,814.584 -71.107,814.584 -71.107,-26.416 523.896,-26.416 					"/>
				</defs>
				<defs>
					<polyline id="SVGID_40_" points="523.896,814.584 -71.107,814.584 -71.107,-26.416 523.896,-26.416 					"/>
				</defs>
				<defs>
					<polyline id="SVGID_41_" points="523.896,814.584 -71.107,814.584 -71.107,-26.416 523.896,-26.416 					"/>
				</defs>
				<defs>
					<polyline id="SVGID_42_" points="523.896,814.584 -71.107,814.584 -71.107,-26.416 523.896,-26.416 					"/>
				</defs>
				<defs>
					<polyline id="SVGID_43_" points="523.896,814.584 -71.107,814.584 -71.107,-26.416 523.896,-26.416 					"/>
				</defs>
				<defs>
					<polyline id="SVGID_44_" points="523.896,814.584 -71.107,814.584 -71.107,-26.416 523.896,-26.416 					"/>
				</defs>
				<defs>
					<polyline id="SVGID_45_" points="523.896,814.584 -71.107,814.584 -71.107,-26.416 523.896,-26.416 					"/>
				</defs>
				<defs>
					<polyline id="SVGID_46_" points="523.896,814.584 -71.107,814.584 -71.107,-26.416 523.896,-26.416 					"/>
				</defs>
				<defs>
					<polyline id="SVGID_47_" points="523.896,814.584 -71.107,814.584 -71.107,-26.416 523.896,-26.416 					"/>
				</defs>
				<defs>
					<polyline id="SVGID_48_" points="523.896,814.584 -71.107,814.584 -71.107,-26.416 523.896,-26.416 					"/>
				</defs>
				<defs>
					<polyline id="SVGID_49_" points="523.896,814.584 -71.107,814.584 -71.107,-26.416 523.896,-26.416 					"/>
				</defs>
				<defs>
					<polyline id="SVGID_50_" points="523.896,814.584 -71.107,814.584 -71.107,-26.416 523.896,-26.416 					"/>
				</defs>
				<defs>
					<polyline id="SVGID_51_" points="523.896,814.584 -71.107,814.584 -71.107,-26.416 523.896,-26.416 					"/>
				</defs>
				<defs>
					<polyline id="SVGID_52_" points="523.896,814.584 -71.107,814.584 -71.107,-26.416 523.896,-26.416 					"/>
				</defs>
				<defs>
					<polyline id="SVGID_53_" points="523.896,814.584 -71.107,814.584 -71.107,-26.416 523.896,-26.416 					"/>
				</defs>
				<defs>
					<polyline id="SVGID_54_" points="523.896,814.584 -71.107,814.584 -71.107,-26.416 523.896,-26.416 					"/>
				</defs>
				<defs>
					<polyline id="SVGID_55_" points="523.896,814.584 -71.107,814.584 -71.107,-26.416 523.896,-26.416 					"/>
				</defs>
				<defs>
					<polyline id="SVGID_56_" points="523.896,814.584 -71.107,814.584 -71.107,-26.416 523.896,-26.416 					"/>
				</defs>
				<defs>
					<polyline id="SVGID_57_" points="523.896,814.584 -71.107,814.584 -71.107,-26.416 523.896,-26.416 					"/>
				</defs>
				<defs>
					<polyline id="SVGID_58_" points="523.896,814.584 -71.107,814.584 -71.107,-26.416 523.896,-26.416 					"/>
				</defs>
				<defs>
					<polyline id="SVGID_59_" points="523.896,814.584 -71.107,814.584 -71.107,-26.416 523.896,-26.416 					"/>
				</defs>
				<defs>
					<polyline id="SVGID_60_" points="523.896,814.584 -71.107,814.584 -71.107,-26.416 523.896,-26.416 					"/>
				</defs>
				<defs>
					<polyline id="SVGID_61_" points="523.896,814.584 -71.107,814.584 -71.107,-26.416 523.896,-26.416 					"/>
				</defs>
				<defs>
					<polyline id="SVGID_62_" points="523.896,814.584 -71.107,814.584 -71.107,-26.416 523.896,-26.416 					"/>
				</defs>
				<defs>
					<polyline id="SVGID_63_" points="523.896,814.584 -71.107,814.584 -71.107,-26.416 523.896,-26.416 					"/>
				</defs>
				<defs>
					<polyline id="SVGID_64_" points="523.896,814.584 -71.107,814.584 -71.107,-26.416 523.896,-26.416 					"/>
				</defs>
				<defs>
					<polyline id="SVGID_65_" points="523.896,814.584 -71.107,814.584 -71.107,-26.416 523.896,-26.416 					"/>
				</defs>
				<defs>
					<polyline id="SVGID_66_" points="523.896,814.584 -71.107,814.584 -71.107,-26.416 523.896,-26.416 					"/>
				</defs>
				<defs>
					<polyline id="SVGID_67_" points="523.896,814.584 -71.107,814.584 -71.107,-26.416 523.896,-26.416 					"/>
				</defs>
				<defs>
					<polyline id="SVGID_68_" points="523.896,814.584 -71.107,814.584 -71.107,-26.416 523.896,-26.416 					"/>
				</defs>
				<defs>
					<polyline id="SVGID_69_" points="523.896,814.584 -71.107,814.584 -71.107,-26.416 523.896,-26.416 					"/>
				</defs>
				<defs>
					<polyline id="SVGID_70_" points="523.896,814.584 -71.107,814.584 -71.107,-26.416 523.896,-26.416 					"/>
				</defs>
				<defs>
					<polyline id="SVGID_71_" points="523.896,814.584 -71.107,814.584 -71.107,-26.416 523.896,-26.416 					"/>
				</defs>
				<defs>
					<polyline id="SVGID_72_" points="523.896,814.584 -71.107,814.584 -71.107,-26.416 523.896,-26.416 					"/>
				</defs>
				<defs>
					<polyline id="SVGID_73_" points="523.896,814.584 -71.107,814.584 -71.107,-26.416 523.896,-26.416 					"/>
				</defs>
				<defs>
					<polyline id="SVGID_74_" points="523.896,814.584 -71.107,814.584 -71.107,-26.416 523.896,-26.416 					"/>
				</defs>
				<defs>
					<polyline id="SVGID_75_" points="523.896,814.584 -71.107,814.584 -71.107,-26.416 523.896,-26.416 					"/>
				</defs>
				<defs>
					<polyline id="SVGID_76_" points="523.896,814.584 -71.107,814.584 -71.107,-26.416 523.896,-26.416 					"/>
				</defs>
				<defs>
					<polyline id="SVGID_77_" points="523.896,814.584 -71.107,814.584 -71.107,-26.416 523.896,-26.416 					"/>
				</defs>
				<defs>
					<polyline id="SVGID_78_" points="523.896,814.584 -71.107,814.584 -71.107,-26.416 523.896,-26.416 					"/>
				</defs>
				<defs>
					<polyline id="SVGID_79_" points="523.896,814.584 -71.107,814.584 -71.107,-26.416 523.896,-26.416 					"/>
				</defs>
				<defs>
					<polyline id="SVGID_80_" points="523.896,814.584 -71.107,814.584 -71.107,-26.416 523.896,-26.416 					"/>
				</defs>
				<defs>
					<polyline id="SVGID_81_" points="523.896,814.584 -71.107,814.584 -71.107,-26.416 523.896,-26.416 					"/>
				</defs>
				<defs>
					<polyline id="SVGID_82_" points="523.896,814.584 -71.107,814.584 -71.107,-26.416 523.896,-26.416 					"/>
				</defs>
				<defs>
					<polyline id="SVGID_83_" points="523.896,814.584 -71.107,814.584 -71.107,-26.416 523.896,-26.416 					"/>
				</defs>
				<defs>
					<polyline id="SVGID_84_" points="523.896,814.584 -71.107,814.584 -71.107,-26.416 523.896,-26.416 					"/>
				</defs>
				<defs>
					<polyline id="SVGID_85_" points="523.896,814.584 -71.107,814.584 -71.107,-26.416 523.896,-26.416 					"/>
				</defs>
				<defs>
					<polyline id="SVGID_86_" points="523.896,814.584 -71.107,814.584 -71.107,-26.416 523.896,-26.416 					"/>
				</defs>
				<defs>
					<polyline id="SVGID_87_" points="523.896,814.584 -71.107,814.584 -71.107,-26.416 523.896,-26.416 					"/>
				</defs>
				<defs>
					<polyline id="SVGID_88_" points="523.896,814.584 -71.107,814.584 -71.107,-26.416 523.896,-26.416 					"/>
				</defs>
				<defs>
					<polyline id="SVGID_89_" points="523.896,814.584 -71.107,814.584 -71.107,-26.416 523.896,-26.416 					"/>
				</defs>
				<defs>
					<polyline id="SVGID_90_" points="523.896,814.584 -71.107,814.584 -71.107,-26.416 523.896,-26.416 					"/>
				</defs>
				<defs>
					<polyline id="SVGID_91_" points="523.896,814.584 -71.107,814.584 -71.107,-26.416 523.896,-26.416 					"/>
				</defs>
				<defs>
					<polyline id="SVGID_92_" points="523.896,814.584 -71.107,814.584 -71.107,-26.416 523.896,-26.416 					"/>
				</defs>
				<defs>
					<polyline id="SVGID_93_" points="523.896,814.584 -71.107,814.584 -71.107,-26.416 523.896,-26.416 					"/>
				</defs>
				<defs>
					<polyline id="SVGID_94_" points="523.896,814.584 -71.107,814.584 -71.107,-26.416 523.896,-26.416 					"/>
				</defs>
				<defs>
					<polyline id="SVGID_95_" points="523.896,814.584 -71.107,814.584 -71.107,-26.416 523.896,-26.416 					"/>
				</defs>
				<defs>
					<polyline id="SVGID_96_" points="523.896,814.584 -71.107,814.584 -71.107,-26.416 523.896,-26.416 					"/>
				</defs>
				<defs>
					<polyline id="SVGID_97_" points="523.896,814.584 -71.107,814.584 -71.107,-26.416 523.896,-26.416 					"/>
				</defs>
				<defs>
					<polyline id="SVGID_98_" points="523.896,814.584 -71.107,814.584 -71.107,-26.416 523.896,-26.416 					"/>
				</defs>
				<defs>
					<polyline id="SVGID_99_" points="523.896,814.584 -71.107,814.584 -71.107,-26.416 523.896,-26.416 					"/>
				</defs>
				<defs>
					<polyline id="SVGID_100_" points="523.896,814.584 -71.107,814.584 -71.107,-26.416 523.896,-26.416 					"/>
				</defs>
				<defs>
					<polyline id="SVGID_101_" points="523.896,814.584 -71.107,814.584 -71.107,-26.416 523.896,-26.416 					"/>
				</defs>
				<defs>
					<polyline id="SVGID_102_" points="523.896,814.584 -71.107,814.584 -71.107,-26.416 523.896,-26.416 					"/>
				</defs>
				<defs>
					<polyline id="SVGID_103_" points="523.896,814.584 -71.107,814.584 -71.107,-26.416 523.896,-26.416 					"/>
				</defs>
				<defs>
					<polyline id="SVGID_104_" points="523.896,814.584 -71.107,814.584 -71.107,-26.416 523.896,-26.416 					"/>
				</defs>
				<defs>
					<polyline id="SVGID_105_" points="523.896,814.584 -71.107,814.584 -71.107,-26.416 523.896,-26.416 					"/>
				</defs>
				<defs>
					<polyline id="SVGID_106_" points="523.896,814.584 -71.107,814.584 -71.107,-26.416 523.896,-26.416 					"/>
				</defs>
				<defs>
					<polyline id="SVGID_107_" points="523.896,814.584 -71.107,814.584 -71.107,-26.416 523.896,-26.416 					"/>
				</defs>
				<defs>
					<polyline id="SVGID_108_" points="523.896,814.584 -71.107,814.584 -71.107,-26.416 523.896,-26.416 					"/>
				</defs>
				<defs>
					<polyline id="SVGID_109_" points="523.896,814.584 -71.107,814.584 -71.107,-26.416 523.896,-26.416 					"/>
				</defs>
				<defs>
					<polyline id="SVGID_110_" points="523.896,814.584 -71.107,814.584 -71.107,-26.416 523.896,-26.416 					"/>
				</defs>
				<defs>
					<polyline id="SVGID_111_" points="523.896,814.584 -71.107,814.584 -71.107,-26.416 523.896,-26.416 					"/>
				</defs>
				<defs>
					<polyline id="SVGID_112_" points="523.896,814.584 -71.107,814.584 -71.107,-26.416 523.896,-26.416 					"/>
				</defs>
				<defs>
					<polyline id="SVGID_113_" points="523.896,814.584 -71.107,814.584 -71.107,-26.416 523.896,-26.416 					"/>
				</defs>
				<defs>
					<polyline id="SVGID_114_" points="523.896,814.584 -71.107,814.584 -71.107,-26.416 523.896,-26.416 					"/>
				</defs>
				<defs>
					<polyline id="SVGID_115_" points="523.896,814.584 -71.107,814.584 -71.107,-26.416 523.896,-26.416 					"/>
				</defs>
				<defs>
					<polyline id="SVGID_116_" points="523.896,814.584 -71.107,814.584 -71.107,-26.416 523.896,-26.416 					"/>
				</defs>
				<defs>
					<polyline id="SVGID_117_" points="523.896,814.584 -71.107,814.584 -71.107,-26.416 523.896,-26.416 					"/>
				</defs>
				<defs>
					<polyline id="SVGID_118_" points="523.896,814.584 -71.107,814.584 -71.107,-26.416 523.896,-26.416 					"/>
				</defs>
				<defs>
					<polyline id="SVGID_119_" points="523.896,814.584 -71.107,814.584 -71.107,-26.416 523.896,-26.416 					"/>
				</defs>
				<defs>
					<polyline id="SVGID_120_" points="523.896,814.584 -71.107,814.584 -71.107,-26.416 523.896,-26.416 					"/>
				</defs>
				<defs>
					<polyline id="SVGID_121_" points="523.896,814.584 -71.107,814.584 -71.107,-26.416 523.896,-26.416 					"/>
				</defs>
				<defs>
					<polyline id="SVGID_122_" points="523.896,814.584 -71.107,814.584 -71.107,-26.416 523.896,-26.416 					"/>
				</defs>
				<defs>
					<polyline id="SVGID_123_" points="523.896,814.584 -71.107,814.584 -71.107,-26.416 523.896,-26.416 					"/>
				</defs>
				<defs>
					<polyline id="SVGID_124_" points="523.896,814.584 -71.107,814.584 -71.107,-26.416 523.896,-26.416 					"/>
				</defs>
				<defs>
					<polyline id="SVGID_125_" points="523.896,814.584 -71.107,814.584 -71.107,-26.416 523.896,-26.416 					"/>
				</defs>
				<defs>
					<polyline id="SVGID_126_" points="523.896,814.584 -71.107,814.584 -71.107,-26.416 523.896,-26.416 					"/>
				</defs>
				<defs>
					<polyline id="SVGID_127_" points="523.896,814.584 -71.107,814.584 -71.107,-26.416 523.896,-26.416 					"/>
				</defs>
				<defs>
					<polyline id="SVGID_128_" points="523.896,814.584 -71.107,814.584 -71.107,-26.416 523.896,-26.416 					"/>
				</defs>
				<defs>
					<polyline id="SVGID_129_" points="523.896,814.584 -71.107,814.584 -71.107,-26.416 523.896,-26.416 					"/>
				</defs>
				<defs>
					<polyline id="SVGID_130_" points="523.896,814.584 -71.107,814.584 -71.107,-26.416 523.896,-26.416 					"/>
				</defs>
				<defs>
					<polyline id="SVGID_131_" points="523.896,814.584 -71.107,814.584 -71.107,-26.416 523.896,-26.416 					"/>
				</defs>
				<defs>
					<polyline id="SVGID_132_" points="523.896,814.584 -71.107,814.584 -71.107,-26.416 523.896,-26.416 					"/>
				</defs>
				<defs>
					<polyline id="SVGID_133_" points="523.896,814.584 -71.107,814.584 -71.107,-26.416 523.896,-26.416 					"/>
				</defs>
				<defs>
					<polyline id="SVGID_134_" points="523.896,814.584 -71.107,814.584 -71.107,-26.416 523.896,-26.416 					"/>
				</defs>
				<defs>
					<polyline id="SVGID_135_" points="523.896,814.584 -71.107,814.584 -71.107,-26.416 523.896,-26.416 					"/>
				</defs>
				<defs>
					<polyline id="SVGID_136_" points="523.896,814.584 -71.107,814.584 -71.107,-26.416 523.896,-26.416 					"/>
				</defs>
				<defs>
					<polyline id="SVGID_137_" points="523.896,814.584 -71.107,814.584 -71.107,-26.416 523.896,-26.416 					"/>
				</defs>
				<defs>
					<polyline id="SVGID_138_" points="523.896,814.584 -71.107,814.584 -71.107,-26.416 523.896,-26.416 					"/>
				</defs>
				<defs>
					<polyline id="SVGID_139_" points="523.896,814.584 -71.107,814.584 -71.107,-26.416 523.896,-26.416 					"/>
				</defs>
				<defs>
					<polyline id="SVGID_140_" points="523.896,814.584 -71.107,814.584 -71.107,-26.416 523.896,-26.416 					"/>
				</defs>
				<defs>
					<polyline id="SVGID_141_" points="523.896,814.584 -71.107,814.584 -71.107,-26.416 523.896,-26.416 					"/>
				</defs>
				<defs>
					<polyline id="SVGID_142_" points="523.896,814.584 -71.107,814.584 -71.107,-26.416 523.896,-26.416 					"/>
				</defs>
				<defs>
					<polyline id="SVGID_143_" points="523.896,814.584 -71.107,814.584 -71.107,-26.416 523.896,-26.416 					"/>
				</defs>
				<defs>
					<polyline id="SVGID_144_" points="523.896,814.584 -71.107,814.584 -71.107,-26.416 523.896,-26.416 					"/>
				</defs>
				<defs>
					<polyline id="SVGID_145_" points="523.896,814.584 -71.107,814.584 -71.107,-26.416 523.896,-26.416 					"/>
				</defs>
				<defs>
					<polyline id="SVGID_146_" points="523.896,814.584 -71.107,814.584 -71.107,-26.416 523.896,-26.416 					"/>
				</defs>
				<defs>
					<polyline id="SVGID_147_" points="523.896,814.584 -71.107,814.584 -71.107,-26.416 523.896,-26.416 					"/>
				</defs>
				<defs>
					<polyline id="SVGID_148_" points="523.896,814.584 -71.107,814.584 -71.107,-26.416 523.896,-26.416 					"/>
				</defs>
				<defs>
					<polyline id="SVGID_149_" points="523.896,814.584 -71.107,814.584 -71.107,-26.416 523.896,-26.416 					"/>
				</defs>
				<defs>
					<polyline id="SVGID_150_" points="523.896,814.584 -71.107,814.584 -71.107,-26.416 523.896,-26.416 					"/>
				</defs>
				<defs>
					<polyline id="SVGID_151_" points="523.896,814.584 -71.107,814.584 -71.107,-26.416 523.896,-26.416 					"/>
				</defs>
				<defs>
					<polyline id="SVGID_152_" points="523.896,814.584 -71.107,814.584 -71.107,-26.416 523.896,-26.416 					"/>
				</defs>
				<defs>
					<polyline id="SVGID_153_" points="523.896,814.584 -71.107,814.584 -71.107,-26.416 523.896,-26.416 					"/>
				</defs>
				<defs>
					<polyline id="SVGID_154_" points="523.896,814.584 -71.107,814.584 -71.107,-26.416 523.896,-26.416 					"/>
				</defs>
				<defs>
					<polyline id="SVGID_155_" points="523.896,814.584 -71.107,814.584 -71.107,-26.416 523.896,-26.416 					"/>
				</defs>
				<defs>
					<polyline id="SVGID_156_" points="523.896,814.584 -71.107,814.584 -71.107,-26.416 523.896,-26.416 					"/>
				</defs>
				<defs>
					<polyline id="SVGID_157_" points="523.896,814.584 -71.107,814.584 -71.107,-26.416 523.896,-26.416 					"/>
				</defs>
				<clipPath id="SVGID_158_">
					<use xlink:href="#SVGID_23_"  overflow="visible"/>
				</clipPath>
				<clipPath id="SVGID_159_" clip-path="url(#SVGID_158_)">
					<use xlink:href="#SVGID_24_"  overflow="visible"/>
				</clipPath>
				<clipPath id="SVGID_160_" clip-path="url(#SVGID_159_)">
					<use xlink:href="#SVGID_25_"  overflow="visible"/>
				</clipPath>
				<clipPath id="SVGID_161_" clip-path="url(#SVGID_160_)">
					<use xlink:href="#SVGID_26_"  overflow="visible"/>
				</clipPath>
				<clipPath id="SVGID_162_" clip-path="url(#SVGID_161_)">
					<use xlink:href="#SVGID_27_"  overflow="visible"/>
				</clipPath>
				<clipPath id="SVGID_163_" clip-path="url(#SVGID_162_)">
					<use xlink:href="#SVGID_28_"  overflow="visible"/>
				</clipPath>
				<clipPath id="SVGID_164_" clip-path="url(#SVGID_163_)">
					<use xlink:href="#SVGID_29_"  overflow="visible"/>
				</clipPath>
				<clipPath id="SVGID_165_" clip-path="url(#SVGID_164_)">
					<use xlink:href="#SVGID_30_"  overflow="visible"/>
				</clipPath>
				<clipPath id="SVGID_166_" clip-path="url(#SVGID_165_)">
					<use xlink:href="#SVGID_31_"  overflow="visible"/>
				</clipPath>
				<clipPath id="SVGID_167_" clip-path="url(#SVGID_166_)">
					<use xlink:href="#SVGID_32_"  overflow="visible"/>
				</clipPath>
				<clipPath id="SVGID_168_" clip-path="url(#SVGID_167_)">
					<use xlink:href="#SVGID_33_"  overflow="visible"/>
				</clipPath>
				<clipPath id="SVGID_169_" clip-path="url(#SVGID_168_)">
					<use xlink:href="#SVGID_34_"  overflow="visible"/>
				</clipPath>
				<clipPath id="SVGID_170_" clip-path="url(#SVGID_169_)">
					<use xlink:href="#SVGID_35_"  overflow="visible"/>
				</clipPath>
				<clipPath id="SVGID_171_" clip-path="url(#SVGID_170_)">
					<use xlink:href="#SVGID_36_"  overflow="visible"/>
				</clipPath>
				<clipPath id="SVGID_172_" clip-path="url(#SVGID_171_)">
					<use xlink:href="#SVGID_37_"  overflow="visible"/>
				</clipPath>
				<clipPath id="SVGID_173_" clip-path="url(#SVGID_172_)">
					<use xlink:href="#SVGID_38_"  overflow="visible"/>
				</clipPath>
				<clipPath id="SVGID_174_" clip-path="url(#SVGID_173_)">
					<use xlink:href="#SVGID_39_"  overflow="visible"/>
				</clipPath>
				<clipPath id="SVGID_175_" clip-path="url(#SVGID_174_)">
					<use xlink:href="#SVGID_40_"  overflow="visible"/>
				</clipPath>
				<clipPath id="SVGID_176_" clip-path="url(#SVGID_175_)">
					<use xlink:href="#SVGID_41_"  overflow="visible"/>
				</clipPath>
				<clipPath id="SVGID_177_" clip-path="url(#SVGID_176_)">
					<use xlink:href="#SVGID_42_"  overflow="visible"/>
				</clipPath>
				<clipPath id="SVGID_178_" clip-path="url(#SVGID_177_)">
					<use xlink:href="#SVGID_43_"  overflow="visible"/>
				</clipPath>
				<clipPath id="SVGID_179_" clip-path="url(#SVGID_178_)">
					<use xlink:href="#SVGID_44_"  overflow="visible"/>
				</clipPath>
				<clipPath id="SVGID_180_" clip-path="url(#SVGID_179_)">
					<use xlink:href="#SVGID_45_"  overflow="visible"/>
				</clipPath>
				<clipPath id="SVGID_181_" clip-path="url(#SVGID_180_)">
					<use xlink:href="#SVGID_46_"  overflow="visible"/>
				</clipPath>
				<clipPath id="SVGID_182_" clip-path="url(#SVGID_181_)">
					<use xlink:href="#SVGID_47_"  overflow="visible"/>
				</clipPath>
				<clipPath id="SVGID_183_" clip-path="url(#SVGID_182_)">
					<use xlink:href="#SVGID_48_"  overflow="visible"/>
				</clipPath>
				<clipPath id="SVGID_184_" clip-path="url(#SVGID_183_)">
					<use xlink:href="#SVGID_49_"  overflow="visible"/>
				</clipPath>
				<clipPath id="SVGID_185_" clip-path="url(#SVGID_184_)">
					<use xlink:href="#SVGID_50_"  overflow="visible"/>
				</clipPath>
				<clipPath id="SVGID_186_" clip-path="url(#SVGID_185_)">
					<use xlink:href="#SVGID_51_"  overflow="visible"/>
				</clipPath>
				<clipPath id="SVGID_187_" clip-path="url(#SVGID_186_)">
					<use xlink:href="#SVGID_52_"  overflow="visible"/>
				</clipPath>
				<clipPath id="SVGID_188_" clip-path="url(#SVGID_187_)">
					<use xlink:href="#SVGID_53_"  overflow="visible"/>
				</clipPath>
				<clipPath id="SVGID_189_" clip-path="url(#SVGID_188_)">
					<use xlink:href="#SVGID_54_"  overflow="visible"/>
				</clipPath>
				<clipPath id="SVGID_190_" clip-path="url(#SVGID_189_)">
					<use xlink:href="#SVGID_55_"  overflow="visible"/>
				</clipPath>
				<clipPath id="SVGID_191_" clip-path="url(#SVGID_190_)">
					<use xlink:href="#SVGID_56_"  overflow="visible"/>
				</clipPath>
				<clipPath id="SVGID_192_" clip-path="url(#SVGID_191_)">
					<use xlink:href="#SVGID_57_"  overflow="visible"/>
				</clipPath>
				<clipPath id="SVGID_193_" clip-path="url(#SVGID_192_)">
					<use xlink:href="#SVGID_58_"  overflow="visible"/>
				</clipPath>
				<clipPath id="SVGID_194_" clip-path="url(#SVGID_193_)">
					<use xlink:href="#SVGID_59_"  overflow="visible"/>
				</clipPath>
				<clipPath id="SVGID_195_" clip-path="url(#SVGID_194_)">
					<use xlink:href="#SVGID_60_"  overflow="visible"/>
				</clipPath>
				<clipPath id="SVGID_196_" clip-path="url(#SVGID_195_)">
					<use xlink:href="#SVGID_61_"  overflow="visible"/>
				</clipPath>
				<clipPath id="SVGID_197_" clip-path="url(#SVGID_196_)">
					<use xlink:href="#SVGID_62_"  overflow="visible"/>
				</clipPath>
				<clipPath id="SVGID_198_" clip-path="url(#SVGID_197_)">
					<use xlink:href="#SVGID_63_"  overflow="visible"/>
				</clipPath>
				<clipPath id="SVGID_199_" clip-path="url(#SVGID_198_)">
					<use xlink:href="#SVGID_64_"  overflow="visible"/>
				</clipPath>
				<clipPath id="SVGID_200_" clip-path="url(#SVGID_199_)">
					<use xlink:href="#SVGID_65_"  overflow="visible"/>
				</clipPath>
				<clipPath id="SVGID_201_" clip-path="url(#SVGID_200_)">
					<use xlink:href="#SVGID_66_"  overflow="visible"/>
				</clipPath>
				<clipPath id="SVGID_202_" clip-path="url(#SVGID_201_)">
					<use xlink:href="#SVGID_67_"  overflow="visible"/>
				</clipPath>
				<clipPath id="SVGID_203_" clip-path="url(#SVGID_202_)">
					<use xlink:href="#SVGID_68_"  overflow="visible"/>
				</clipPath>
				<clipPath id="SVGID_204_" clip-path="url(#SVGID_203_)">
					<use xlink:href="#SVGID_69_"  overflow="visible"/>
				</clipPath>
				<clipPath id="SVGID_205_" clip-path="url(#SVGID_204_)">
					<use xlink:href="#SVGID_70_"  overflow="visible"/>
				</clipPath>
				<clipPath id="SVGID_206_" clip-path="url(#SVGID_205_)">
					<use xlink:href="#SVGID_71_"  overflow="visible"/>
				</clipPath>
				<clipPath id="SVGID_207_" clip-path="url(#SVGID_206_)">
					<use xlink:href="#SVGID_72_"  overflow="visible"/>
				</clipPath>
				<clipPath id="SVGID_208_" clip-path="url(#SVGID_207_)">
					<use xlink:href="#SVGID_73_"  overflow="visible"/>
				</clipPath>
				<clipPath id="SVGID_209_" clip-path="url(#SVGID_208_)">
					<use xlink:href="#SVGID_74_"  overflow="visible"/>
				</clipPath>
				<clipPath id="SVGID_210_" clip-path="url(#SVGID_209_)">
					<use xlink:href="#SVGID_75_"  overflow="visible"/>
				</clipPath>
				<clipPath id="SVGID_211_" clip-path="url(#SVGID_210_)">
					<use xlink:href="#SVGID_76_"  overflow="visible"/>
				</clipPath>
				<clipPath id="SVGID_212_" clip-path="url(#SVGID_211_)">
					<use xlink:href="#SVGID_77_"  overflow="visible"/>
				</clipPath>
				<clipPath id="SVGID_213_" clip-path="url(#SVGID_212_)">
					<use xlink:href="#SVGID_78_"  overflow="visible"/>
				</clipPath>
				<clipPath id="SVGID_214_" clip-path="url(#SVGID_213_)">
					<use xlink:href="#SVGID_79_"  overflow="visible"/>
				</clipPath>
				<clipPath id="SVGID_215_" clip-path="url(#SVGID_214_)">
					<use xlink:href="#SVGID_80_"  overflow="visible"/>
				</clipPath>
				<clipPath id="SVGID_216_" clip-path="url(#SVGID_215_)">
					<use xlink:href="#SVGID_81_"  overflow="visible"/>
				</clipPath>
				<clipPath id="SVGID_217_" clip-path="url(#SVGID_216_)">
					<use xlink:href="#SVGID_82_"  overflow="visible"/>
				</clipPath>
				<clipPath id="SVGID_218_" clip-path="url(#SVGID_217_)">
					<use xlink:href="#SVGID_83_"  overflow="visible"/>
				</clipPath>
				<clipPath id="SVGID_219_" clip-path="url(#SVGID_218_)">
					<use xlink:href="#SVGID_84_"  overflow="visible"/>
				</clipPath>
				<clipPath id="SVGID_220_" clip-path="url(#SVGID_219_)">
					<use xlink:href="#SVGID_85_"  overflow="visible"/>
				</clipPath>
				<clipPath id="SVGID_221_" clip-path="url(#SVGID_220_)">
					<use xlink:href="#SVGID_86_"  overflow="visible"/>
				</clipPath>
				<clipPath id="SVGID_222_" clip-path="url(#SVGID_221_)">
					<use xlink:href="#SVGID_87_"  overflow="visible"/>
				</clipPath>
				<clipPath id="SVGID_223_" clip-path="url(#SVGID_222_)">
					<use xlink:href="#SVGID_88_"  overflow="visible"/>
				</clipPath>
				<clipPath id="SVGID_224_" clip-path="url(#SVGID_223_)">
					<use xlink:href="#SVGID_89_"  overflow="visible"/>
				</clipPath>
				<clipPath id="SVGID_225_" clip-path="url(#SVGID_224_)">
					<use xlink:href="#SVGID_90_"  overflow="visible"/>
				</clipPath>
				<clipPath id="SVGID_226_" clip-path="url(#SVGID_225_)">
					<use xlink:href="#SVGID_91_"  overflow="visible"/>
				</clipPath>
				<clipPath id="SVGID_227_" clip-path="url(#SVGID_226_)">
					<use xlink:href="#SVGID_92_"  overflow="visible"/>
				</clipPath>
				<clipPath id="SVGID_228_" clip-path="url(#SVGID_227_)">
					<use xlink:href="#SVGID_93_"  overflow="visible"/>
				</clipPath>
				<clipPath id="SVGID_229_" clip-path="url(#SVGID_228_)">
					<use xlink:href="#SVGID_94_"  overflow="visible"/>
				</clipPath>
				<clipPath id="SVGID_230_" clip-path="url(#SVGID_229_)">
					<use xlink:href="#SVGID_95_"  overflow="visible"/>
				</clipPath>
				<clipPath id="SVGID_231_" clip-path="url(#SVGID_230_)">
					<use xlink:href="#SVGID_96_"  overflow="visible"/>
				</clipPath>
				<clipPath id="SVGID_232_" clip-path="url(#SVGID_231_)">
					<use xlink:href="#SVGID_97_"  overflow="visible"/>
				</clipPath>
				<clipPath id="SVGID_233_" clip-path="url(#SVGID_232_)">
					<use xlink:href="#SVGID_98_"  overflow="visible"/>
				</clipPath>
				<clipPath id="SVGID_234_" clip-path="url(#SVGID_233_)">
					<use xlink:href="#SVGID_99_"  overflow="visible"/>
				</clipPath>
				<clipPath id="SVGID_235_" clip-path="url(#SVGID_234_)">
					<use xlink:href="#SVGID_100_"  overflow="visible"/>
				</clipPath>
				<clipPath id="SVGID_236_" clip-path="url(#SVGID_235_)">
					<use xlink:href="#SVGID_101_"  overflow="visible"/>
				</clipPath>
				<clipPath id="SVGID_237_" clip-path="url(#SVGID_236_)">
					<use xlink:href="#SVGID_102_"  overflow="visible"/>
				</clipPath>
				<clipPath id="SVGID_238_" clip-path="url(#SVGID_237_)">
					<use xlink:href="#SVGID_103_"  overflow="visible"/>
				</clipPath>
				<clipPath id="SVGID_239_" clip-path="url(#SVGID_238_)">
					<use xlink:href="#SVGID_104_"  overflow="visible"/>
				</clipPath>
				<clipPath id="SVGID_240_" clip-path="url(#SVGID_239_)">
					<use xlink:href="#SVGID_105_"  overflow="visible"/>
				</clipPath>
				<clipPath id="SVGID_241_" clip-path="url(#SVGID_240_)">
					<use xlink:href="#SVGID_106_"  overflow="visible"/>
				</clipPath>
				<clipPath id="SVGID_242_" clip-path="url(#SVGID_241_)">
					<use xlink:href="#SVGID_107_"  overflow="visible"/>
				</clipPath>
				<clipPath id="SVGID_243_" clip-path="url(#SVGID_242_)">
					<use xlink:href="#SVGID_108_"  overflow="visible"/>
				</clipPath>
				<clipPath id="SVGID_244_" clip-path="url(#SVGID_243_)">
					<use xlink:href="#SVGID_109_"  overflow="visible"/>
				</clipPath>
				<clipPath id="SVGID_245_" clip-path="url(#SVGID_244_)">
					<use xlink:href="#SVGID_110_"  overflow="visible"/>
				</clipPath>
				<clipPath id="SVGID_246_" clip-path="url(#SVGID_245_)">
					<use xlink:href="#SVGID_111_"  overflow="visible"/>
				</clipPath>
				<clipPath id="SVGID_247_" clip-path="url(#SVGID_246_)">
					<use xlink:href="#SVGID_112_"  overflow="visible"/>
				</clipPath>
				<clipPath id="SVGID_248_" clip-path="url(#SVGID_247_)">
					<use xlink:href="#SVGID_113_"  overflow="visible"/>
				</clipPath>
				<clipPath id="SVGID_249_" clip-path="url(#SVGID_248_)">
					<use xlink:href="#SVGID_114_"  overflow="visible"/>
				</clipPath>
				<clipPath id="SVGID_250_" clip-path="url(#SVGID_249_)">
					<use xlink:href="#SVGID_115_"  overflow="visible"/>
				</clipPath>
				<clipPath id="SVGID_251_" clip-path="url(#SVGID_250_)">
					<use xlink:href="#SVGID_116_"  overflow="visible"/>
				</clipPath>
				<clipPath id="SVGID_252_" clip-path="url(#SVGID_251_)">
					<use xlink:href="#SVGID_117_"  overflow="visible"/>
				</clipPath>
				<clipPath id="SVGID_253_" clip-path="url(#SVGID_252_)">
					<use xlink:href="#SVGID_118_"  overflow="visible"/>
				</clipPath>
				<clipPath id="SVGID_254_" clip-path="url(#SVGID_253_)">
					<use xlink:href="#SVGID_119_"  overflow="visible"/>
				</clipPath>
				<clipPath id="SVGID_255_" clip-path="url(#SVGID_254_)">
					<use xlink:href="#SVGID_120_"  overflow="visible"/>
				</clipPath>
				<clipPath id="SVGID_256_" clip-path="url(#SVGID_255_)">
					<use xlink:href="#SVGID_121_"  overflow="visible"/>
				</clipPath>
				<clipPath id="SVGID_257_" clip-path="url(#SVGID_256_)">
					<use xlink:href="#SVGID_122_"  overflow="visible"/>
				</clipPath>
				<clipPath id="SVGID_258_" clip-path="url(#SVGID_257_)">
					<use xlink:href="#SVGID_123_"  overflow="visible"/>
				</clipPath>
				<clipPath id="SVGID_259_" clip-path="url(#SVGID_258_)">
					<use xlink:href="#SVGID_124_"  overflow="visible"/>
				</clipPath>
				<clipPath id="SVGID_260_" clip-path="url(#SVGID_259_)">
					<use xlink:href="#SVGID_125_"  overflow="visible"/>
				</clipPath>
				<clipPath id="SVGID_261_" clip-path="url(#SVGID_260_)">
					<use xlink:href="#SVGID_126_"  overflow="visible"/>
				</clipPath>
				<clipPath id="SVGID_262_" clip-path="url(#SVGID_261_)">
					<use xlink:href="#SVGID_127_"  overflow="visible"/>
				</clipPath>
				<clipPath id="SVGID_263_" clip-path="url(#SVGID_262_)">
					<use xlink:href="#SVGID_128_"  overflow="visible"/>
				</clipPath>
				<clipPath id="SVGID_264_" clip-path="url(#SVGID_263_)">
					<use xlink:href="#SVGID_129_"  overflow="visible"/>
				</clipPath>
				<clipPath id="SVGID_265_" clip-path="url(#SVGID_264_)">
					<use xlink:href="#SVGID_130_"  overflow="visible"/>
				</clipPath>
				<clipPath id="SVGID_266_" clip-path="url(#SVGID_265_)">
					<use xlink:href="#SVGID_131_"  overflow="visible"/>
				</clipPath>
				<clipPath id="SVGID_267_" clip-path="url(#SVGID_266_)">
					<use xlink:href="#SVGID_132_"  overflow="visible"/>
				</clipPath>
				<clipPath id="SVGID_268_" clip-path="url(#SVGID_267_)">
					<use xlink:href="#SVGID_133_"  overflow="visible"/>
				</clipPath>
				<clipPath id="SVGID_269_" clip-path="url(#SVGID_268_)">
					<use xlink:href="#SVGID_134_"  overflow="visible"/>
				</clipPath>
				<clipPath id="SVGID_270_" clip-path="url(#SVGID_269_)">
					<use xlink:href="#SVGID_135_"  overflow="visible"/>
				</clipPath>
				<clipPath id="SVGID_271_" clip-path="url(#SVGID_270_)">
					<use xlink:href="#SVGID_136_"  overflow="visible"/>
				</clipPath>
				<clipPath id="SVGID_272_" clip-path="url(#SVGID_271_)">
					<use xlink:href="#SVGID_137_"  overflow="visible"/>
				</clipPath>
				<clipPath id="SVGID_273_" clip-path="url(#SVGID_272_)">
					<use xlink:href="#SVGID_138_"  overflow="visible"/>
				</clipPath>
				<clipPath id="SVGID_274_" clip-path="url(#SVGID_273_)">
					<use xlink:href="#SVGID_139_"  overflow="visible"/>
				</clipPath>
				<clipPath id="SVGID_275_" clip-path="url(#SVGID_274_)">
					<use xlink:href="#SVGID_140_"  overflow="visible"/>
				</clipPath>
				<clipPath id="SVGID_276_" clip-path="url(#SVGID_275_)">
					<use xlink:href="#SVGID_141_"  overflow="visible"/>
				</clipPath>
				<clipPath id="SVGID_277_" clip-path="url(#SVGID_276_)">
					<use xlink:href="#SVGID_142_"  overflow="visible"/>
				</clipPath>
				<clipPath id="SVGID_278_" clip-path="url(#SVGID_277_)">
					<use xlink:href="#SVGID_143_"  overflow="visible"/>
				</clipPath>
				<clipPath id="SVGID_279_" clip-path="url(#SVGID_278_)">
					<use xlink:href="#SVGID_144_"  overflow="visible"/>
				</clipPath>
				<clipPath id="SVGID_280_" clip-path="url(#SVGID_279_)">
					<use xlink:href="#SVGID_145_"  overflow="visible"/>
				</clipPath>
				<clipPath id="SVGID_281_" clip-path="url(#SVGID_280_)">
					<use xlink:href="#SVGID_146_"  overflow="visible"/>
				</clipPath>
				<clipPath id="SVGID_282_" clip-path="url(#SVGID_281_)">
					<use xlink:href="#SVGID_147_"  overflow="visible"/>
				</clipPath>
				<clipPath id="SVGID_283_" clip-path="url(#SVGID_282_)">
					<use xlink:href="#SVGID_148_"  overflow="visible"/>
				</clipPath>
				<clipPath id="SVGID_284_" clip-path="url(#SVGID_283_)">
					<use xlink:href="#SVGID_149_"  overflow="visible"/>
				</clipPath>
				<clipPath id="SVGID_285_" clip-path="url(#SVGID_284_)">
					<use xlink:href="#SVGID_150_"  overflow="visible"/>
				</clipPath>
				<clipPath id="SVGID_286_" clip-path="url(#SVGID_285_)">
					<use xlink:href="#SVGID_151_"  overflow="visible"/>
				</clipPath>
				<clipPath id="SVGID_287_" clip-path="url(#SVGID_286_)">
					<use xlink:href="#SVGID_152_"  overflow="visible"/>
				</clipPath>
				<clipPath id="SVGID_288_" clip-path="url(#SVGID_287_)">
					<use xlink:href="#SVGID_153_"  overflow="visible"/>
				</clipPath>
				<clipPath id="SVGID_289_" clip-path="url(#SVGID_288_)">
					<use xlink:href="#SVGID_154_"  overflow="visible"/>
				</clipPath>
				<clipPath id="SVGID_290_" clip-path="url(#SVGID_289_)">
					<use xlink:href="#SVGID_155_"  overflow="visible"/>
				</clipPath>
				<clipPath id="SVGID_291_" clip-path="url(#SVGID_290_)">
					<use xlink:href="#SVGID_156_"  overflow="visible"/>
				</clipPath>
				<clipPath id="SVGID_292_" clip-path="url(#SVGID_291_)">
					<use xlink:href="#SVGID_157_"  overflow="visible"/>
				</clipPath>
				<path clip-path="url(#SVGID_292_)" fill="#00592C" d="M391.35,102.911c-9.262,31.699-17.295,78.333-17.295,78.333l39.481-0.098
					C403.064,135.153,391.35,102.911,391.35,102.911"/>
				<path clip-path="url(#SVGID_292_)" d="M390.839,185.105c0.655-8.735,0.236-73.487,0.236-73.487l0.851-0.541
					c1.561,12.98,3.49,74.793,3.49,74.793L390.839,185.105z"/>
				<polyline clip-path="url(#SVGID_292_)" points="392.271,177.206 378.553,173.354 378.521,172.858 392.175,175.843 				"/>
				<polygon clip-path="url(#SVGID_292_)" points="392.746,169.751 379.376,164.479 379.379,163.939 391.514,167.955 				"/>
				<polygon clip-path="url(#SVGID_292_)" points="392.575,162.206 381.202,156.598 381.239,156.058 393.078,160.87 				"/>
				<polygon clip-path="url(#SVGID_292_)" points="391.477,152.587 382.193,146.659 382.291,146.129 391.617,151.366 				"/>
				<polygon clip-path="url(#SVGID_292_)" points="392.523,143.607 384.432,136.145 384.618,135.638 392.88,142.433 				"/>
				<polyline clip-path="url(#SVGID_292_)" points="391.938,130.458 386.909,125.46 387.119,124.962 391.98,129.277 				"/>
				<polyline clip-path="url(#SVGID_292_)" points="393.275,175.825 408.52,171.521 408.54,171.025 393.341,174.457 				"/>
				<polygon clip-path="url(#SVGID_292_)" points="393.303,168.401 406.87,162.715 406.857,162.173 393.809,166.557 				"/>
				<polygon clip-path="url(#SVGID_292_)" points="392.539,159.902 404.949,153.933 404.896,153.397 392.005,158.579 				"/>
				<polygon clip-path="url(#SVGID_292_)" points="393.041,149.821 402.176,143.67 402.064,143.142 392.868,148.604 				"/>
				<polygon clip-path="url(#SVGID_292_)" points="392.475,140.235 400.386,132.578 400.186,132.077 392.089,139.068 				"/>
				<polyline clip-path="url(#SVGID_292_)" points="391.654,126.435 396.559,121.314 396.34,120.822 391.585,125.254 				"/>
				<path clip-path="url(#SVGID_292_)" fill="#00592C" d="M436.7,97.9c-9.26,31.699-17.296,78.334-17.296,78.334l39.483-0.098
					C448.418,130.143,436.7,97.9,436.7,97.9"/>
				<path clip-path="url(#SVGID_292_)" d="M436.119,183.12c0.728-11.76,0.307-76.511,0.307-76.511l0.854-0.542
					c1.56,12.981,3.503,76.951,3.503,76.951L436.119,183.12z"/>
				<polyline clip-path="url(#SVGID_292_)" points="437.623,172.196 423.905,168.344 423.872,167.848 437.527,170.833 				"/>
				<polygon clip-path="url(#SVGID_292_)" points="438.099,164.741 424.729,159.469 424.731,158.929 436.865,162.945 				"/>
				<polygon clip-path="url(#SVGID_292_)" points="437.927,157.196 426.554,151.588 426.591,151.048 438.43,155.86 				"/>
				<polygon clip-path="url(#SVGID_292_)" points="436.828,147.577 427.546,141.649 427.643,141.119 436.97,146.356 				"/>
				<polygon clip-path="url(#SVGID_292_)" points="437.876,138.597 429.782,131.134 429.971,130.628 438.231,137.422 				"/>
				<polyline clip-path="url(#SVGID_292_)" points="437.29,125.448 432.262,120.45 432.472,119.952 437.332,124.267 				"/>
				<polyline clip-path="url(#SVGID_292_)" points="438.628,170.814 453.871,166.51 453.892,166.015 438.692,169.446 				"/>
				<polygon clip-path="url(#SVGID_292_)" points="438.655,163.391 452.222,157.705 452.21,157.163 439.161,161.546 				"/>
				<polygon clip-path="url(#SVGID_292_)" points="437.892,154.892 450.301,148.923 450.248,148.387 437.357,153.569 				"/>
				<polygon clip-path="url(#SVGID_292_)" points="438.394,144.811 447.528,138.66 447.417,138.132 438.22,143.594 				"/>
				<polygon clip-path="url(#SVGID_292_)" points="437.826,135.225 445.738,127.568 445.537,127.067 437.44,134.058 				"/>
				<polyline clip-path="url(#SVGID_292_)" points="437.007,121.425 441.911,116.304 441.691,115.811 436.938,120.244 				"/>
				<path clip-path="url(#SVGID_292_)" fill="#00592C" d="M343.025,101.476c-8.957,31.786-16.543,78.495-16.543,78.495l39.478-0.476
					C355.05,133.603,343.025,101.476,343.025,101.476"/>
				<path clip-path="url(#SVGID_292_)" d="M343.27,185.672c0.604-10.741-0.437-75.486-0.437-75.486l0.851-0.55
					c1.681,12.964,4.116,75.371,4.116,75.371L343.27,185.672z"/>
				<polyline clip-path="url(#SVGID_292_)" points="344.66,175.759 330.906,172.037 330.865,171.541 344.548,174.396 				"/>
				<polygon clip-path="url(#SVGID_292_)" points="345.064,168.299 331.643,163.156 331.645,162.615 343.812,166.516 				"/>
				<polygon clip-path="url(#SVGID_292_)" points="344.818,160.755 333.395,155.257 333.427,154.715 345.311,159.416 				"/>
				<polygon clip-path="url(#SVGID_292_)" points="343.628,151.147 334.291,145.31 334.382,144.777 343.757,149.926 				"/>
				<polygon clip-path="url(#SVGID_292_)" points="344.592,142.158 336.423,134.774 336.607,134.266 344.934,140.979 				"/>
				<polyline clip-path="url(#SVGID_292_)" points="343.878,129.016 338.805,124.066 339.01,123.565 343.907,127.834 				"/>
				<polyline clip-path="url(#SVGID_292_)" points="345.648,174.366 360.852,169.919 360.868,169.421 345.704,173 				"/>
				<polygon clip-path="url(#SVGID_292_)" points="345.607,166.944 359.12,161.128 359.102,160.587 346.094,165.094 				"/>
				<polygon clip-path="url(#SVGID_292_)" points="344.764,158.454 357.114,152.366 357.057,151.829 344.214,157.136 				"/>
				<polygon clip-path="url(#SVGID_292_)" points="345.168,148.368 354.241,142.129 354.128,141.602 344.982,147.153 				"/>
				<polygon clip-path="url(#SVGID_292_)" points="344.507,138.788 352.348,131.055 352.141,130.556 344.109,137.625 				"/>
				<polyline clip-path="url(#SVGID_292_)" points="343.559,124.995 348.413,119.828 348.188,119.337 343.473,123.816 				"/>
				<path clip-path="url(#SVGID_292_)" fill="#56AF31" d="M411.664,96.866c-8.826,31.825-16.221,78.565-16.221,78.565l39.477-0.639
					C423.822,128.945,411.664,96.866,411.664,96.866"/>
				<path clip-path="url(#SVGID_292_)" d="M412.43,184.898c0.389-14.582-0.921-79.319-0.921-79.319l0.845-0.555
					c1.738,12.958,4.664,80.578,4.664,80.578L412.43,184.898z"/>
				<polyline clip-path="url(#SVGID_292_)" points="413.6,171.144 399.837,167.481 399.793,166.983 413.484,169.782 				"/>
				<polygon clip-path="url(#SVGID_292_)" points="413.979,163.683 400.536,158.595 400.532,158.054 412.721,161.904 				"/>
				<polygon clip-path="url(#SVGID_292_)" points="413.702,156.14 402.253,150.687 402.283,150.148 414.188,154.799 				"/>
				<polygon clip-path="url(#SVGID_292_)" points="412.471,146.537 403.109,140.738 403.199,140.205 412.596,145.314 				"/>
				<polygon clip-path="url(#SVGID_292_)" points="413.396,137.544 405.199,130.192 405.381,129.683 413.739,136.364 				"/>
				<polyline clip-path="url(#SVGID_292_)" points="412.629,124.407 407.536,119.474 407.736,118.973 412.654,123.223 				"/>
				<polyline clip-path="url(#SVGID_292_)" points="414.586,169.748 429.772,165.235 429.787,164.738 414.634,168.38 				"/>
				<polygon clip-path="url(#SVGID_292_)" points="414.516,162.326 428.004,156.453 427.98,155.913 414.996,160.475 				"/>
				<polygon clip-path="url(#SVGID_292_)" points="413.635,153.837 425.962,147.698 425.898,147.164 413.081,152.522 				"/>
				<polygon clip-path="url(#SVGID_292_)" points="413.998,143.75 423.048,137.475 422.933,136.947 413.811,142.536 				"/>
				<polygon clip-path="url(#SVGID_292_)" points="413.301,134.172 421.106,126.407 420.898,125.91 412.898,133.012 				"/>
				<polyline clip-path="url(#SVGID_292_)" points="412.293,120.385 417.128,115.197 416.898,114.707 412.205,119.204 				"/>
				<path clip-path="url(#SVGID_292_)" fill="#52AE32" d="M458.995,98.662c-9.674,31.577-18.318,78.102-18.318,78.102l39.48,0.419
					C470.289,131.054,458.995,98.662,458.995,98.662"/>
				<path clip-path="url(#SVGID_292_)" d="M457.402,186.686c0.779-14.566,1.203-79.316,1.203-79.316l0.861-0.532
					c1.39,13,2.504,80.672,2.504,80.672L457.402,186.686z"/>
				<polyline clip-path="url(#SVGID_292_)" points="458.942,172.964 445.28,168.936 445.253,168.437 458.862,171.601 				"/>
				<polygon clip-path="url(#SVGID_292_)" points="459.518,165.518 446.22,160.071 446.229,159.529 458.31,163.706 				"/>
				<polygon clip-path="url(#SVGID_292_)" points="459.446,157.969 448.146,152.212 448.192,151.673 459.967,156.642 				"/>
				<polygon clip-path="url(#SVGID_292_)" points="458.472,148.337 449.27,142.29 449.372,141.759 458.63,147.119 				"/>
				<polygon clip-path="url(#SVGID_292_)" points="459.639,139.371 451.641,131.804 451.836,131.3 460.011,138.202 				"/>
				<polyline clip-path="url(#SVGID_292_)" points="459.223,126.219 454.264,121.152 454.478,120.657 459.28,125.036 				"/>
				<polyline clip-path="url(#SVGID_292_)" points="459.966,171.596 475.268,167.492 475.296,166.995 460.051,170.23 				"/>
				<polygon clip-path="url(#SVGID_292_)" points="460.093,164.175 473.734,158.666 473.726,158.124 460.624,162.336 				"/>
				<polygon clip-path="url(#SVGID_292_)" points="459.441,155.666 471.928,149.859 471.878,149.323 458.921,154.337 				"/>
				<polygon clip-path="url(#SVGID_292_)" points="460.073,145.592 469.288,139.56 469.186,139.032 459.918,144.374 				"/>
				<polygon clip-path="url(#SVGID_292_)" points="459.632,136 467.644,128.446 467.45,127.942 459.262,134.829 				"/>
				<polyline clip-path="url(#SVGID_292_)" points="458.995,122.189 463.964,117.134 463.751,116.638 458.938,121.007 				"/>
				<path clip-path="url(#SVGID_292_)" fill="#B7CD1F" d="M326.566,98.974c-9.096,31.747-16.889,78.423-16.889,78.423l39.479-0.301
					C338.453,131.156,326.566,98.974,326.566,98.974"/>
				<path clip-path="url(#SVGID_292_)" d="M326.581,187.011c0.515-14.579-0.244-79.328-0.244-79.328l0.853-0.545
					c1.625,12.972,3.977,80.614,3.977,80.614L326.581,187.011z"/>
				<polyline clip-path="url(#SVGID_292_)" points="327.874,173.266 314.139,169.483 314.102,168.986 327.768,171.902 				"/>
				<polygon clip-path="url(#SVGID_292_)" points="328.311,165.807 314.916,160.606 314.915,160.066 327.066,164.017 				"/>
				<polygon clip-path="url(#SVGID_292_)" points="328.102,158.263 316.698,152.713 316.732,152.175 328.602,156.925 				"/>
				<polygon clip-path="url(#SVGID_292_)" points="326.951,148.649 317.641,142.77 317.734,142.239 327.087,147.428 				"/>
				<polygon clip-path="url(#SVGID_292_)" points="327.953,139.666 319.82,132.244 320.003,131.736 328.303,138.487 				"/>
				<polyline clip-path="url(#SVGID_292_)" points="327.299,126.52 322.246,121.545 322.451,121.045 327.337,125.337 				"/>
				<polyline clip-path="url(#SVGID_292_)" points="328.874,171.877 344.09,167.495 344.113,166.997 328.932,170.511 				"/>
				<polygon clip-path="url(#SVGID_292_)" points="328.861,164.453 342.4,158.696 342.381,158.155 329.357,162.607 				"/>
				<polygon clip-path="url(#SVGID_292_)" points="328.053,155.959 340.432,149.925 340.378,149.389 327.512,154.64 				"/>
				<polygon clip-path="url(#SVGID_292_)" points="328.505,145.875 337.604,139.677 337.494,139.148 328.323,144.66 				"/>
				<polygon clip-path="url(#SVGID_292_)" points="327.886,136.293 335.759,128.594 335.553,128.094 327.495,135.128 				"/>
				<polyline clip-path="url(#SVGID_292_)" points="326.999,122.497 331.874,117.351 331.648,116.858 326.918,121.317 				"/>
				<path clip-path="url(#SVGID_292_)" fill="#52AE32" d="M370.285,94.676c-9.264,31.699-17.295,78.334-17.295,78.334l39.48-0.097
					C382,126.919,370.285,94.676,370.285,94.676"/>
				<path clip-path="url(#SVGID_292_)" d="M369.729,185.24c0.59-14.575,0.281-81.858,0.281-81.858l0.852-0.539
					c1.56,12.98,3.557,83.451,3.557,83.451L369.729,185.24z"/>
				<polyline clip-path="url(#SVGID_292_)" points="371.208,168.972 357.491,165.12 357.454,164.624 371.107,167.608 				"/>
				<polygon clip-path="url(#SVGID_292_)" points="371.682,161.516 358.312,156.247 358.314,155.705 370.447,159.722 				"/>
				<polygon clip-path="url(#SVGID_292_)" points="371.51,153.971 360.135,148.362 360.174,147.824 372.012,152.637 				"/>
				<polygon clip-path="url(#SVGID_292_)" points="370.409,144.353 361.127,138.426 361.227,137.894 370.557,143.131 				"/>
				<polygon clip-path="url(#SVGID_292_)" points="371.458,135.374 363.363,127.912 363.553,127.403 371.814,134.198 				"/>
				<polyline clip-path="url(#SVGID_292_)" points="370.871,122.226 365.843,117.226 366.053,116.728 370.915,121.044 				"/>
				<polyline clip-path="url(#SVGID_292_)" points="372.21,167.589 387.453,163.288 387.477,162.79 372.277,166.225 				"/>
				<polygon clip-path="url(#SVGID_292_)" points="372.238,160.167 385.807,154.481 385.793,153.938 372.743,158.322 				"/>
				<polygon clip-path="url(#SVGID_292_)" points="371.475,151.668 383.885,145.699 383.833,145.163 370.938,150.346 				"/>
				<polygon clip-path="url(#SVGID_292_)" points="371.979,141.586 381.111,135.436 381,134.908 371.805,140.372 				"/>
				<polygon clip-path="url(#SVGID_292_)" points="371.408,132.001 379.318,124.344 379.12,123.842 371.021,130.835 				"/>
				<polyline clip-path="url(#SVGID_292_)" points="370.591,118.201 375.493,113.081 375.273,112.587 370.52,117.02 				"/>
				<path clip-path="url(#SVGID_292_)" fill="#52AE32" d="M47.987,35.696c-12.195-0.306-35.039,8.32-42.695,26.677
					c-10.336,24.773-6.013,56.756,9.814,63.079c15.828,6.326,54.555,16.552,77.206-5.186c12.856-12.339,9.028-44.52,0.717-57.977
					C86.717,52.062,72.814,36.312,47.987,35.696"/>
				<path clip-path="url(#SVGID_292_)" d="M47.444,185.365c-1.02-30.969-0.491-91.163-0.159-101.657
					c0.458-14.346,0.13-35.871,0.13-35.871l2.312,1.675c2,8.081,6.837,134.378,6.837,134.378L47.444,185.365z"/>
				<path clip-path="url(#SVGID_292_)" d="M38.906,113.827c-3.894-0.914-12.167-4.543-21.922-10.298l0.729-1.236
					c6.78,4,13.691,6.814,20.453,8.414c15.686,4.872,24.291,2.008,43.203-10.488l1.023,1.01
					c-12.588,12.118-26.509,16.617-43.469,12.607C38.917,113.833,38.909,113.83,38.906,113.827"/>
				<path clip-path="url(#SVGID_292_)" d="M23.987,117.302l0.004-0.002v0.003L23.987,117.302z M23.647,115.907
					c2.82-0.688,5.642-2.131,7.737-3.407c2.102-1.272,3.461-2.359,3.465-2.356l0.891,1.121c0.518,0.835-5.664,4.533-11.749,6.035
					L23.647,115.907z"/>
				<path clip-path="url(#SVGID_292_)" d="M18.478,85.415l0.877-1.13c6.448,5.042,17.259,8.252,23.972,9.831
					c3.577,0.846,5.975,1.234,5.982,1.241l-0.195,3.245c-0.305,1.282-2.828-0.838-6.451-1.693
					C35.865,95.295,25.284,90.716,18.478,85.415"/>
				<path clip-path="url(#SVGID_292_)" d="M49.177,100.329c0.01-0.006,5.183-1.448,11.198-4.255
					c6.026-2.802,12.846-6.986,16.075-12.228l1.219,0.751c-7.077,11.319-27.894,20.258-27.446,18.185l-0.658-1.069L49.177,100.329z"
					/>
				<path clip-path="url(#SVGID_292_)" d="M64.503,111.847l1.75-1.727c0.014,0,5.292,3.819,8.553,6.057v0.006l-0.812,1.177
					c-3.293-2.256-8.575-6.078-8.575-6.078L64.503,111.847z"/>
				<path clip-path="url(#SVGID_292_)" d="M21.926,64.918l1.039-0.988c4.383,4.618,12.258,8.794,19.009,11.759
					c6.748,2.973,7.72,3.66,7.731,3.667l0.363,1.061l-0.119,2.062C49.905,82.443,31.247,74.66,21.926,64.918"/>
				<path clip-path="url(#SVGID_292_)" d="M49.731,69.402c0.012-0.021,11.301-5.904,18.394-12.929l1.014,1.016
					c-7.343,7.254-18.494,15.171-19.006,14.405l0.261-1.217L49.731,69.402z"/>
				<path clip-path="url(#SVGID_292_)" d="M37.654,52.767v-0.002l1.22-0.751c2.371,3.837,4.736,6.634,6.502,8.473
					c1.774,1.839,2.915,2.692,2.922,2.693l-0.572,3.241C47.678,66.38,42.513,60.633,37.654,52.767"/>
				<path clip-path="url(#SVGID_292_)" fill="#C8D41F" d="M70.939,87.311c-0.706-4.273,0.45-11.481,4.359-10.558
					C79.21,77.679,70.939,87.311,70.939,87.311"/>
				<path clip-path="url(#SVGID_292_)" fill="#C8D41F" d="M70.811,105.115c-0.702-4.271,0.45-11.483,4.359-10.553
					C79.079,95.484,70.811,105.115,70.811,105.115"/>
				<path clip-path="url(#SVGID_292_)" fill="#C8D41F" d="M63.137,58.642c-0.706-4.271,0.449-11.483,4.358-10.555
					C71.404,49.012,63.137,58.642,63.137,58.642"/>
				<path clip-path="url(#SVGID_292_)" fill="#C8D41F" d="M42.09,53.142c-2.593-3.468-4.887-10.401-0.987-11.377
					C44.997,40.79,42.09,53.142,42.09,53.142"/>
				<path clip-path="url(#SVGID_292_)" fill="#C8D41F" d="M39.413,58.301c-4.28,0.659-11.477-0.577-10.509-4.475
					C29.875,49.929,39.413,58.301,39.413,58.301"/>
				<path clip-path="url(#SVGID_292_)" fill="#C8D41F" d="M37.372,51.605c-4.26-0.773-10.659-4.289-8.471-7.657
					C31.09,40.582,37.372,51.605,37.372,51.605"/>
				<path clip-path="url(#SVGID_292_)" fill="#C8D41F" d="M23.611,68.64c-3.938,1.797-11.201,2.563-11.327-1.452
					C12.159,63.174,23.611,68.64,23.611,68.64"/>
				<path clip-path="url(#SVGID_292_)" fill="#C8D41F" d="M23.506,62.649c-2.768-3.33-5.408-10.136-1.567-11.312
					C25.78,50.167,23.506,62.649,23.506,62.649"/>
				<path clip-path="url(#SVGID_292_)" fill="#C8D41F" d="M28.802,87.649c-2.764-3.332-5.408-10.137-1.567-11.312
					C31.076,75.166,28.802,87.649,28.802,87.649"/>
				<path clip-path="url(#SVGID_292_)" fill="#C8D41F" d="M27.258,105.598c-2.764-3.329-5.404-10.137-1.567-11.31
					C29.532,93.114,27.258,105.598,27.258,105.598"/>
				<path clip-path="url(#SVGID_292_)" fill="#C8D41F" d="M17.224,83.842c-4.323,0.217-11.359-1.742-9.998-5.523
					C8.586,74.542,17.224,83.842,17.224,83.842"/>
				<path clip-path="url(#SVGID_292_)" fill="#C8D41F" d="M18.546,87.52c-2.505,3.529-8.401,7.836-10.524,4.428
					C5.898,88.538,18.546,87.52,18.546,87.52"/>
				<path clip-path="url(#SVGID_292_)" fill="#C8D41F" d="M17.946,107.621c-3.865,1.949-11.093,3.005-11.375-1.005
					C6.29,102.609,17.946,107.621,17.946,107.621"/>
				<path clip-path="url(#SVGID_292_)" fill="#C8D41F" d="M23.954,110.164c-2.505,3.527-8.402,7.838-10.525,4.427
					C11.306,111.181,23.954,110.164,23.954,110.164"/>
				<path clip-path="url(#SVGID_292_)" fill="#C8D41F" d="M77.691,89.195c2.438-2.455,10.814-5.639,11.3-1.654
					C89.712,93.437,77.691,89.195,77.691,89.195"/>
				<path clip-path="url(#SVGID_292_)" fill="#C8D41F" d="M68.087,115.694c1.91,2.888,3.327,11.734-0.675,11.4
					C61.496,126.603,68.087,115.694,68.087,115.694"/>
				<path clip-path="url(#SVGID_292_)" fill="#C8D41F" d="M64.426,65.218c1.906,2.89,3.324,11.736-0.678,11.402
					C57.832,76.127,64.426,65.218,64.426,65.218"/>
				<path clip-path="url(#SVGID_292_)" fill="#C8D41F" d="M66.086,64.489c2.995-1.738,11.907-2.643,11.342,1.331
					C76.597,71.699,66.086,64.489,66.086,64.489"/>
				<path clip-path="url(#SVGID_292_)" fill="#C8D41F" d="M70.596,59.904c2.08-2.766,9.937-7.073,10.962-3.194
					C83.086,62.448,70.596,59.904,70.596,59.904"/>
				<path clip-path="url(#SVGID_292_)" fill="#C8D41F" d="M79.532,82.682c0.928-2.461,8.141-9.078,9.998-5.517
					C92.271,82.429,79.532,82.682,79.532,82.682"/>
				<path clip-path="url(#SVGID_292_)" fill="#C8D41F" d="M76.716,108.291c2.576-1.618,10.817-5.646,11.3-1.657
					C88.735,112.525,76.716,108.291,76.716,108.291"/>
				<polygon clip-path="url(#SVGID_292_)" fill="#FFFFFF" points="115.078,160.565 117.483,187.301 92.2,187.984 90.18,159.156 				
					"/>
				<polygon clip-path="url(#SVGID_292_)" fill="#C4D9F2" points="92.2,187.984 90.18,159.157 75.32,142.542 62.578,159.167 
					63.204,186.568 				"/>
				<polygon clip-path="url(#SVGID_292_)" fill="#F49800" points="118.97,163.032 107.939,147.354 74.28,141.39 60.831,159.062 
					62.588,159.801 75.728,142.749 88.538,160.383 				"/>
				<polygon clip-path="url(#SVGID_292_)" points="77.859,152.733 77.701,162.873 73.743,162.975 73.413,152.914 				"/>
				<polygon clip-path="url(#SVGID_292_)" points="100.577,165.436 101.044,174.771 97.088,174.875 96.133,165.614 				"/>
				<polygon clip-path="url(#SVGID_292_)" points="110.913,166.261 110.951,180.968 106.993,181.07 106.468,166.439 				"/>
			</g>
			<g>
				<defs>
					<polyline id="SVGID_293_" points="523.896,-26.416 -71.107,-26.416 -71.107,814.584 523.896,814.584 					"/>
				</defs>
				<clipPath id="SVGID_294_">
					<use xlink:href="#SVGID_293_"  overflow="visible"/>
				</clipPath>
				<polygon clip-path="url(#SVGID_294_)" fill="#D07500" points="404.675,175.002 71.942,175.521 71.131,173.093 404.675,173.614 
									"/>
			</g>
			<g>
				<defs>
					<polyline id="SVGID_295_" points="523.896,-26.416 -71.107,-26.416 -71.107,814.584 523.896,814.584 					"/>
				</defs>
				<clipPath id="SVGID_296_">
					<use xlink:href="#SVGID_295_"  overflow="visible"/>
				</clipPath>
				<g clip-path="url(#SVGID_296_)">
					<g>
						<defs>
							<polyline id="SVGID_297_" points="523.896,814.584 -71.107,814.584 -71.107,-26.416 523.896,-26.416 							"/>
						</defs>
						<defs>
							<polyline id="SVGID_298_" points="523.896,814.584 -71.107,814.584 -71.107,-26.416 523.896,-26.416 							"/>
						</defs>
						<defs>
							<polyline id="SVGID_299_" points="523.896,814.584 -71.107,814.584 -71.107,-26.416 523.896,-26.416 							"/>
						</defs>
						<defs>
							<polyline id="SVGID_300_" points="523.896,814.584 -71.107,814.584 -71.107,-26.416 523.896,-26.416 							"/>
						</defs>
						<defs>
							<polyline id="SVGID_301_" points="523.896,814.584 -71.107,814.584 -71.107,-26.416 523.896,-26.416 							"/>
						</defs>
						<defs>
							<polyline id="SVGID_302_" points="523.896,814.584 -71.107,814.584 -71.107,-26.416 523.896,-26.416 							"/>
						</defs>
						<clipPath id="SVGID_303_">
							<use xlink:href="#SVGID_297_"  overflow="visible"/>
						</clipPath>
						<clipPath id="SVGID_304_" clip-path="url(#SVGID_303_)">
							<use xlink:href="#SVGID_298_"  overflow="visible"/>
						</clipPath>
						<clipPath id="SVGID_305_" clip-path="url(#SVGID_304_)">
							<use xlink:href="#SVGID_299_"  overflow="visible"/>
						</clipPath>
						<clipPath id="SVGID_306_" clip-path="url(#SVGID_305_)">
							<use xlink:href="#SVGID_300_"  overflow="visible"/>
						</clipPath>
						<clipPath id="SVGID_307_" clip-path="url(#SVGID_306_)">
							<use xlink:href="#SVGID_301_"  overflow="visible"/>
						</clipPath>
						<clipPath id="SVGID_308_" clip-path="url(#SVGID_307_)">
							<use xlink:href="#SVGID_302_"  overflow="visible"/>
						</clipPath>
						<path clip-path="url(#SVGID_308_)" fill="#AFCA0B" d="M480.561,258.652H0l0.37-73.312c142.492,4.934,339.565-4.377,480.189,0
							L480.561,258.652L480.561,258.652z"/>
						<polygon clip-path="url(#SVGID_308_)" fill="#F3E2CC" points="403.6,180.539 70.867,181.059 70.35,174.627 403.895,175.147 
													"/>
						<polygon clip-path="url(#SVGID_308_)" fill="#F3E2CC" points="403.6,189.105 70.867,189.625 70.35,183.193 403.895,183.713 
													"/>
						<polygon clip-path="url(#SVGID_308_)" fill="#F3E2CC" points="403.6,197.672 70.867,198.191 70.35,191.76 403.895,192.279 
													"/>
						<polygon clip-path="url(#SVGID_308_)" fill="#F3E2CC" points="403.6,206.236 70.867,206.758 70.35,200.325 403.895,200.846 
													"/>
						<g clip-path="url(#SVGID_308_)">
							<g opacity="0.5">
								<g>
									<defs>
										<polygon id="SVGID_309_" points="0,270.514 480.561,270.514 480.561,209.586 0.371,209.586 										"/>
									</defs>
									<clipPath id="SVGID_310_">
										<use xlink:href="#SVGID_309_"  overflow="visible"/>
									</clipPath>
									<polygon clip-path="url(#SVGID_310_)" fill="#FFFFFF" points="480.561,270.514 0,270.514 0.37,209.586 480.561,209.586 
																			"/>
								</g>
							</g>
							<g>
								<defs>
									<polyline id="SVGID_311_" points="523.896,814.584 -71.107,814.584 -71.107,-26.416 523.896,-26.416 									"/>
								</defs>
								<defs>
									<polyline id="SVGID_312_" points="523.896,814.584 -71.107,814.584 -71.107,-26.416 523.896,-26.416 									"/>
								</defs>
								<defs>
									<polyline id="SVGID_313_" points="523.896,814.584 -71.107,814.584 -71.107,-26.416 523.896,-26.416 									"/>
								</defs>
								<defs>
									<polyline id="SVGID_314_" points="523.896,814.584 -71.107,814.584 -71.107,-26.416 523.896,-26.416 									"/>
								</defs>
								<defs>
									<polyline id="SVGID_315_" points="523.896,814.584 -71.107,814.584 -71.107,-26.416 523.896,-26.416 									"/>
								</defs>
								<defs>
									<polyline id="SVGID_316_" points="523.896,814.584 -71.107,814.584 -71.107,-26.416 523.896,-26.416 									"/>
								</defs>
								<defs>
									<polyline id="SVGID_317_" points="523.896,814.584 -71.107,814.584 -71.107,-26.416 523.896,-26.416 									"/>
								</defs>
								<defs>
									<polyline id="SVGID_318_" points="523.896,814.584 -71.107,814.584 -71.107,-26.416 523.896,-26.416 									"/>
								</defs>
								<clipPath id="SVGID_319_">
									<use xlink:href="#SVGID_311_"  overflow="visible"/>
								</clipPath>
								<clipPath id="SVGID_320_" clip-path="url(#SVGID_319_)">
									<use xlink:href="#SVGID_312_"  overflow="visible"/>
								</clipPath>
								<clipPath id="SVGID_321_" clip-path="url(#SVGID_320_)">
									<use xlink:href="#SVGID_313_"  overflow="visible"/>
								</clipPath>
								<clipPath id="SVGID_322_" clip-path="url(#SVGID_321_)">
									<use xlink:href="#SVGID_314_"  overflow="visible"/>
								</clipPath>
								<clipPath id="SVGID_323_" clip-path="url(#SVGID_322_)">
									<use xlink:href="#SVGID_315_"  overflow="visible"/>
								</clipPath>
								<clipPath id="SVGID_324_" clip-path="url(#SVGID_323_)">
									<use xlink:href="#SVGID_316_"  overflow="visible"/>
								</clipPath>
								<clipPath id="SVGID_325_" clip-path="url(#SVGID_324_)">
									<use xlink:href="#SVGID_317_"  overflow="visible"/>
								</clipPath>
								<clipPath id="SVGID_326_" clip-path="url(#SVGID_325_)">
									<use xlink:href="#SVGID_318_"  overflow="visible"/>
								</clipPath>
								<polygon clip-path="url(#SVGID_326_)" fill="#D07500" points="68.848,209.377 68.782,171.467 75.033,171.104 
									73.613,209.129 								"/>
								<polygon clip-path="url(#SVGID_326_)" fill="#D07500" points="141.119,171.104 139.699,209.129 134.934,209.377 
									134.868,171.466 								"/>
								<polygon clip-path="url(#SVGID_326_)" fill="#D07500" points="207.204,171.104 205.784,209.129 201.019,209.377 
									200.953,171.466 								"/>
								<polygon clip-path="url(#SVGID_326_)" fill="#D07500" points="273.289,171.104 271.869,209.129 267.104,209.377 
									267.038,171.466 								"/>
								<polygon clip-path="url(#SVGID_326_)" fill="#D07500" points="339.375,171.104 337.955,209.129 333.189,209.377 
									333.124,171.466 								"/>
								<polygon clip-path="url(#SVGID_326_)" fill="#D07500" points="399.275,209.377 399.209,171.467 405.46,171.104 
									404.04,209.129 								"/>
								<path clip-path="url(#SVGID_326_)" fill="#008D36" d="M-0.427,169.049c1.263-0.898,2.979,2.194,2.979,2.194
									s0.481-1.336,2.698-2.095c2.22-0.758,5.021,1.585,5.021,1.585s0.837-1.636,3.084-1.951c2.249-0.314,1.13,2.801,1.13,2.801
									s1.206-1.785,2.868-2.391c1.66-0.607,2.561,1.604,2.561,1.604s1.983-1.497,3.683-1.51c1.537-0.015,1.244,0.298,1.173,0.359
									c0.14-0.116,1.865-1.509,3.819-2.094c2.039-0.61,2.639,2.788,2.639,2.788s1.159-2.525,2.85-2.689
									c1.691-0.161,1.47,2.208,1.47,2.208s0.828-1.783,2.139-1.943c1.315-0.157,3.178,2.34,3.178,2.34s1.394-1.638,2.889-2.096
									c1.494-0.457,2.412,2.199,2.412,2.199s1.017-1.786,3.086-1.951c2.067-0.167,2.156,1.166,2.156,1.166
									s1.507-1.347,3.493-1.511c1.986-0.167,2.423,2.347,2.423,2.347s1.773-1.791,3.663-1.809
									c1.891-0.016,1.082,2.062,1.082,2.062s3.284-1.804,4.662-0.928c1.382,0.874-0.768,2.67-0.768,2.67s1.899,0.131,2.543,1.309
									c0.645,1.179-3.334,2.011-3.334,2.011s2.278,2.055,3.101,3.085c0.823,1.026-2.699,2.095-2.699,2.095s2.08-0.021,2.911,1.156
									c0.835,1.176-2.311,2.239-2.311,2.239s1.532,0.282,2.138,0.871c0.608,0.585-1.876,3.122-1.876,3.122
									s2.476,0.273,3.101,1.156s-3.635,2.25-3.635,2.25s2.707,0.863,2.792,2.195c0.089,1.33-3.474,1.807-3.474,1.807
									s3.261,0.711,2.961,1.896c-0.301,1.188-3.303,1.508-3.303,1.508s2.514,0.867,2.599,2.199
									c0.09,1.329-2.528,1.797-2.528,1.797s2.345,1.162,1.508,2.797c-0.84,1.635-3.004,0.322-3.004,0.322s0.294,1.627-0.988,2.229
									c-1.285,0.604-3.148-1.896-3.148-1.896s-1.416,1.493-2.739,1.504c-1.323,0.014-1.178-1.914-1.178-1.914
									s-0.919,1.637-2.988,1.803c-2.069,0.168-2.375-1.605-2.375-1.605s-0.651,1.633-1.962,1.792
									c-1.314,0.157-3.342-1.748-3.342-1.748s-0.813,1.786-2.317,1.944c-1.502,0.162-3.688-1.447-3.688-1.447
									s-0.857,1.342-2.37,1.354c-1.509,0.013-2.562-1.605-2.562-1.605s-0.649,1.635-1.594,1.643
									c-0.944,0.008-2.44-2.643-2.44-2.643s-1.366,2.23-2.871,2.393c-1.498,0.16-2.93-1.453-2.93-1.453s-0.477,1.334-2.181,1.35
									c-1.7,0.016-2.553-1.454-2.553-1.454s-0.26,1.774-1.95,1.938c-1.692,0.16-2.932-1.455-2.932-1.455s-1.026,1.637-2.547,1.502
									c-1.524-0.135-2.367-1.457-2.367-1.457s-0.895,0.746-2.407,0.76c-1.511,0.014-2.155-1.164-2.155-1.164
									s-0.651,1.633-2.718,1.799c-2.07,0.168-2.742-1.455-2.742-1.455"/>
								<path clip-path="url(#SVGID_326_)" fill="#008D36" d="M479.622,171.477c0,0,1.703-2.08,0.041-2.686
									c-1.661-0.607-2.052,2.497-2.052,2.497s-0.859-1.34-2.124-2.239c-1.265-0.898-2.979,2.194-2.979,2.194
									s-0.479-1.336-2.697-2.095c-2.221-0.758-5.021,1.585-5.021,1.585s-0.837-1.636-3.084-1.951
									c-2.249-0.314-1.13,2.801-1.13,2.801s-1.206-1.785-2.868-2.391c-1.66-0.607-2.562,1.604-2.562,1.604
									s-1.982-1.497-3.684-1.51c-1.537-0.015-1.244,0.298-1.173,0.359c-0.14-0.116-1.865-1.509-3.819-2.094
									c-2.039-0.61-2.639,2.788-2.639,2.788s-1.159-2.525-2.85-2.689c-1.691-0.161-1.472,2.208-1.472,2.208
									s-0.828-1.783-2.139-1.943c-1.315-0.157-3.178,2.34-3.178,2.34s-1.396-1.638-2.891-2.096
									c-1.493-0.457-2.411,2.199-2.411,2.199s-1.018-1.786-3.087-1.951c-2.065-0.167-2.155,1.166-2.155,1.166
									s-1.507-1.347-3.492-1.511c-1.986-0.167-2.424,2.347-2.424,2.347s-1.772-1.791-3.662-1.809
									c-1.893-0.016-1.082,2.062-1.082,2.062s-3.284-1.804-4.662-0.928c-1.383,0.874,0.768,2.67,0.768,2.67
									s-1.898,0.131-2.543,1.309c-0.645,1.179,3.334,2.011,3.334,2.011s-2.277,2.055-3.101,3.085
									c-0.823,1.026,2.698,2.095,2.698,2.095s-2.08-0.021-2.91,1.156c-0.836,1.176,2.311,2.239,2.311,2.239
									s-1.531,0.282-2.138,0.871c-0.608,0.585,1.876,3.122,1.876,3.122s-2.477,0.273-3.102,1.156s3.635,2.25,3.635,2.25
									s-2.707,0.863-2.791,2.195c-0.09,1.33,3.474,1.807,3.474,1.807s-3.261,0.711-2.961,1.896
									c0.301,1.188,3.304,1.508,3.304,1.508s-2.515,0.867-2.6,2.199c-0.09,1.329,2.527,1.797,2.527,1.797
									s-2.346,1.162-1.508,2.797c0.84,1.635,3.004,0.322,3.004,0.322s-0.293,1.627,0.987,2.229
									c1.285,0.604,3.148-1.896,3.148-1.896s1.415,1.493,2.739,1.504c1.321,0.014,1.178-1.914,1.178-1.914
									s0.919,1.637,2.988,1.803c2.067,0.168,2.375-1.605,2.375-1.605s0.649,1.633,1.962,1.792
									c1.312,0.157,3.342-1.748,3.342-1.748s0.812,1.786,2.316,1.944c1.502,0.162,3.688-1.447,3.688-1.447s0.856,1.342,2.37,1.354
									c1.509,0.013,2.562-1.605,2.562-1.605s0.649,1.635,1.596,1.643c0.942,0.008,2.438-2.643,2.438-2.643s1.366,2.23,2.871,2.393
									c1.498,0.16,2.93-1.453,2.93-1.453s0.479,1.334,2.183,1.35c1.699,0.016,2.553-1.454,2.553-1.454s0.26,1.774,1.95,1.938
									c1.69,0.16,2.932-1.455,2.932-1.455s1.026,1.637,2.547,1.502c1.524-0.135,2.367-1.457,2.367-1.457s0.896,0.746,2.407,0.76
									s2.155-1.164,2.155-1.164s0.649,1.633,2.718,1.799c2.07,0.168,2.742-1.455,2.742-1.455s1.584,1.789,3.821,2.252
									c2.239,0.463,0.903-3.074,0.903-3.074"/>
							</g>
							<g>
								<defs>
									<polyline id="SVGID_327_" points="523.896,-26.416 -71.107,-26.416 -71.107,814.584 523.896,814.584 									"/>
								</defs>
								<clipPath id="SVGID_328_">
									<use xlink:href="#SVGID_327_"  overflow="visible"/>
								</clipPath>
								<path clip-path="url(#SVGID_328_)" d="M448.647,131.67l0.005-0.001L448.647,131.67z"/>
							</g>
							<g>
								<defs>
									<polyline id="SVGID_329_" points="523.896,-26.416 -71.107,-26.416 -71.107,814.584 523.896,814.584 									"/>
								</defs>
								<clipPath id="SVGID_330_">
									<use xlink:href="#SVGID_329_"  overflow="visible"/>
								</clipPath>
								<path clip-path="url(#SVGID_330_)" d="M19.933,131.67l-0.006-0.001L19.933,131.67z"/>
							</g>
							<g>
								<defs>
									<polyline id="SVGID_331_" points="523.896,-26.416 -71.107,-26.416 -71.107,814.584 523.896,814.584 									"/>
								</defs>
								<clipPath id="SVGID_332_">
									<use xlink:href="#SVGID_331_"  overflow="visible"/>
								</clipPath>
								<rect x="0.19" y="219.096" clip-path="url(#SVGID_332_)" fill="#0072BB" width="480.37" height="140.938"/>
							</g>
							<g>
								<defs>
									<polyline id="SVGID_333_" points="523.896,-26.416 -71.107,-26.416 -71.107,814.584 523.896,814.584 									"/>
								</defs>
								<clipPath id="SVGID_334_">
									<use xlink:href="#SVGID_333_"  overflow="visible"/>
								</clipPath>
								
									<line clip-path="url(#SVGID_334_)" fill="none" stroke="#FFFFFF" stroke-width="2.835" x1="0.371" y1="219.41" x2="480.561" y2="219.41"/>
							</g>
							<g>
								<defs>
									<polyline id="SVGID_335_" points="523.896,-26.416 -71.107,-26.416 -71.107,814.584 523.896,814.584 									"/>
								</defs>
								<clipPath id="SVGID_336_">
									<use xlink:href="#SVGID_335_"  overflow="visible"/>
								</clipPath>
								<polygon clip-path="url(#SVGID_336_)" fill="#46BFDE" points="352.939,309.816 127.605,309.816 148.786,219.41 
									331.816,219.41 								"/>
							</g>
							<g>
								<defs>
									<polyline id="SVGID_337_" points="523.896,-26.416 -71.107,-26.416 -71.107,814.584 523.896,814.584 									"/>
								</defs>
								<clipPath id="SVGID_338_">
									<use xlink:href="#SVGID_337_"  overflow="visible"/>
								</clipPath>
								<g clip-path="url(#SVGID_338_)">
									<g>
										<defs>
											<polyline id="SVGID_339_" points="523.896,814.584 -71.107,814.584 -71.107,-26.416 523.896,-26.416 											"/>
										</defs>
										<defs>
											<polyline id="SVGID_340_" points="523.896,814.584 -71.107,814.584 -71.107,-26.416 523.896,-26.416 											"/>
										</defs>
										<defs>
											<polyline id="SVGID_341_" points="523.896,814.584 -71.107,814.584 -71.107,-26.416 523.896,-26.416 											"/>
										</defs>
										<defs>
											<polyline id="SVGID_342_" points="523.896,814.584 -71.107,814.584 -71.107,-26.416 523.896,-26.416 											"/>
										</defs>
										<defs>
											<polyline id="SVGID_343_" points="523.896,814.584 -71.107,814.584 -71.107,-26.416 523.896,-26.416 											"/>
										</defs>
										<defs>
											<polyline id="SVGID_344_" points="523.896,814.584 -71.107,814.584 -71.107,-26.416 523.896,-26.416 											"/>
										</defs>
										<defs>
											<polyline id="SVGID_345_" points="523.896,814.584 -71.107,814.584 -71.107,-26.416 523.896,-26.416 											"/>
										</defs>
										<defs>
											<polyline id="SVGID_346_" points="523.896,814.584 -71.107,814.584 -71.107,-26.416 523.896,-26.416 											"/>
										</defs>
										<defs>
											<polyline id="SVGID_347_" points="523.896,814.584 -71.107,814.584 -71.107,-26.416 523.896,-26.416 											"/>
										</defs>
										<defs>
											<polyline id="SVGID_348_" points="523.896,814.584 -71.107,814.584 -71.107,-26.416 523.896,-26.416 											"/>
										</defs>
										<defs>
											<polyline id="SVGID_349_" points="523.896,814.584 -71.107,814.584 -71.107,-26.416 523.896,-26.416 											"/>
										</defs>
										<defs>
											<polyline id="SVGID_350_" points="523.896,814.584 -71.107,814.584 -71.107,-26.416 523.896,-26.416 											"/>
										</defs>
										<defs>
											<polyline id="SVGID_351_" points="523.896,814.584 -71.107,814.584 -71.107,-26.416 523.896,-26.416 											"/>
										</defs>
										<defs>
											<polyline id="SVGID_352_" points="523.896,814.584 -71.107,814.584 -71.107,-26.416 523.896,-26.416 											"/>
										</defs>
										<defs>
											<polyline id="SVGID_353_" points="523.896,814.584 -71.107,814.584 -71.107,-26.416 523.896,-26.416 											"/>
										</defs>
										<defs>
											<polyline id="SVGID_354_" points="523.896,814.584 -71.107,814.584 -71.107,-26.416 523.896,-26.416 											"/>
										</defs>
										<defs>
											<polyline id="SVGID_355_" points="523.896,814.584 -71.107,814.584 -71.107,-26.416 523.896,-26.416 											"/>
										</defs>
										<defs>
											<polyline id="SVGID_356_" points="523.896,814.584 -71.107,814.584 -71.107,-26.416 523.896,-26.416 											"/>
										</defs>
										<defs>
											<polyline id="SVGID_357_" points="523.896,814.584 -71.107,814.584 -71.107,-26.416 523.896,-26.416 											"/>
										</defs>
										<defs>
											<polyline id="SVGID_358_" points="523.896,814.584 -71.107,814.584 -71.107,-26.416 523.896,-26.416 											"/>
										</defs>
										<defs>
											<polyline id="SVGID_359_" points="523.896,814.584 -71.107,814.584 -71.107,-26.416 523.896,-26.416 											"/>
										</defs>
										<defs>
											<polyline id="SVGID_360_" points="523.896,814.584 -71.107,814.584 -71.107,-26.416 523.896,-26.416 											"/>
										</defs>
										<defs>
											<polyline id="SVGID_361_" points="523.896,814.584 -71.107,814.584 -71.107,-26.416 523.896,-26.416 											"/>
										</defs>
										<defs>
											<polyline id="SVGID_362_" points="523.896,814.584 -71.107,814.584 -71.107,-26.416 523.896,-26.416 											"/>
										</defs>
										<defs>
											<polyline id="SVGID_363_" points="523.896,814.584 -71.107,814.584 -71.107,-26.416 523.896,-26.416 											"/>
										</defs>
										<defs>
											<polyline id="SVGID_364_" points="523.896,814.584 -71.107,814.584 -71.107,-26.416 523.896,-26.416 											"/>
										</defs>
										<defs>
											<polyline id="SVGID_365_" points="523.896,814.584 -71.107,814.584 -71.107,-26.416 523.896,-26.416 											"/>
										</defs>
										<defs>
											<polyline id="SVGID_366_" points="523.896,814.584 -71.107,814.584 -71.107,-26.416 523.896,-26.416 											"/>
										</defs>
										<defs>
											<polyline id="SVGID_367_" points="523.896,814.584 -71.107,814.584 -71.107,-26.416 523.896,-26.416 											"/>
										</defs>
										<defs>
											<polyline id="SVGID_368_" points="523.896,814.584 -71.107,814.584 -71.107,-26.416 523.896,-26.416 											"/>
										</defs>
										<defs>
											<polyline id="SVGID_369_" points="523.896,814.584 -71.107,814.584 -71.107,-26.416 523.896,-26.416 											"/>
										</defs>
										<defs>
											<polyline id="SVGID_370_" points="523.896,814.584 -71.107,814.584 -71.107,-26.416 523.896,-26.416 											"/>
										</defs>
										<defs>
											<polyline id="SVGID_371_" points="523.896,814.584 -71.107,814.584 -71.107,-26.416 523.896,-26.416 											"/>
										</defs>
										<defs>
											<polyline id="SVGID_372_" points="523.896,814.584 -71.107,814.584 -71.107,-26.416 523.896,-26.416 											"/>
										</defs>
										<clipPath id="SVGID_373_">
											<use xlink:href="#SVGID_339_"  overflow="visible"/>
										</clipPath>
										<clipPath id="SVGID_374_" clip-path="url(#SVGID_373_)">
											<use xlink:href="#SVGID_340_"  overflow="visible"/>
										</clipPath>
										<clipPath id="SVGID_375_" clip-path="url(#SVGID_374_)">
											<use xlink:href="#SVGID_341_"  overflow="visible"/>
										</clipPath>
										<clipPath id="SVGID_376_" clip-path="url(#SVGID_375_)">
											<use xlink:href="#SVGID_342_"  overflow="visible"/>
										</clipPath>
										<clipPath id="SVGID_377_" clip-path="url(#SVGID_376_)">
											<use xlink:href="#SVGID_343_"  overflow="visible"/>
										</clipPath>
										<clipPath id="SVGID_378_" clip-path="url(#SVGID_377_)">
											<use xlink:href="#SVGID_344_"  overflow="visible"/>
										</clipPath>
										<clipPath id="SVGID_379_" clip-path="url(#SVGID_378_)">
											<use xlink:href="#SVGID_345_"  overflow="visible"/>
										</clipPath>
										<clipPath id="SVGID_380_" clip-path="url(#SVGID_379_)">
											<use xlink:href="#SVGID_346_"  overflow="visible"/>
										</clipPath>
										<clipPath id="SVGID_381_" clip-path="url(#SVGID_380_)">
											<use xlink:href="#SVGID_347_"  overflow="visible"/>
										</clipPath>
										<clipPath id="SVGID_382_" clip-path="url(#SVGID_381_)">
											<use xlink:href="#SVGID_348_"  overflow="visible"/>
										</clipPath>
										<clipPath id="SVGID_383_" clip-path="url(#SVGID_382_)">
											<use xlink:href="#SVGID_349_"  overflow="visible"/>
										</clipPath>
										<clipPath id="SVGID_384_" clip-path="url(#SVGID_383_)">
											<use xlink:href="#SVGID_350_"  overflow="visible"/>
										</clipPath>
										<clipPath id="SVGID_385_" clip-path="url(#SVGID_384_)">
											<use xlink:href="#SVGID_351_"  overflow="visible"/>
										</clipPath>
										<clipPath id="SVGID_386_" clip-path="url(#SVGID_385_)">
											<use xlink:href="#SVGID_352_"  overflow="visible"/>
										</clipPath>
										<clipPath id="SVGID_387_" clip-path="url(#SVGID_386_)">
											<use xlink:href="#SVGID_353_"  overflow="visible"/>
										</clipPath>
										<clipPath id="SVGID_388_" clip-path="url(#SVGID_387_)">
											<use xlink:href="#SVGID_354_"  overflow="visible"/>
										</clipPath>
										<clipPath id="SVGID_389_" clip-path="url(#SVGID_388_)">
											<use xlink:href="#SVGID_355_"  overflow="visible"/>
										</clipPath>
										<clipPath id="SVGID_390_" clip-path="url(#SVGID_389_)">
											<use xlink:href="#SVGID_356_"  overflow="visible"/>
										</clipPath>
										<clipPath id="SVGID_391_" clip-path="url(#SVGID_390_)">
											<use xlink:href="#SVGID_357_"  overflow="visible"/>
										</clipPath>
										<clipPath id="SVGID_392_" clip-path="url(#SVGID_391_)">
											<use xlink:href="#SVGID_358_"  overflow="visible"/>
										</clipPath>
										<clipPath id="SVGID_393_" clip-path="url(#SVGID_392_)">
											<use xlink:href="#SVGID_359_"  overflow="visible"/>
										</clipPath>
										<clipPath id="SVGID_394_" clip-path="url(#SVGID_393_)">
											<use xlink:href="#SVGID_360_"  overflow="visible"/>
										</clipPath>
										<clipPath id="SVGID_395_" clip-path="url(#SVGID_394_)">
											<use xlink:href="#SVGID_361_"  overflow="visible"/>
										</clipPath>
										<clipPath id="SVGID_396_" clip-path="url(#SVGID_395_)">
											<use xlink:href="#SVGID_362_"  overflow="visible"/>
										</clipPath>
										<clipPath id="SVGID_397_" clip-path="url(#SVGID_396_)">
											<use xlink:href="#SVGID_363_"  overflow="visible"/>
										</clipPath>
										<clipPath id="SVGID_398_" clip-path="url(#SVGID_397_)">
											<use xlink:href="#SVGID_364_"  overflow="visible"/>
										</clipPath>
										<clipPath id="SVGID_399_" clip-path="url(#SVGID_398_)">
											<use xlink:href="#SVGID_365_"  overflow="visible"/>
										</clipPath>
										<clipPath id="SVGID_400_" clip-path="url(#SVGID_399_)">
											<use xlink:href="#SVGID_366_"  overflow="visible"/>
										</clipPath>
										<clipPath id="SVGID_401_" clip-path="url(#SVGID_400_)">
											<use xlink:href="#SVGID_367_"  overflow="visible"/>
										</clipPath>
										<clipPath id="SVGID_402_" clip-path="url(#SVGID_401_)">
											<use xlink:href="#SVGID_368_"  overflow="visible"/>
										</clipPath>
										<clipPath id="SVGID_403_" clip-path="url(#SVGID_402_)">
											<use xlink:href="#SVGID_369_"  overflow="visible"/>
										</clipPath>
										<clipPath id="SVGID_404_" clip-path="url(#SVGID_403_)">
											<use xlink:href="#SVGID_370_"  overflow="visible"/>
										</clipPath>
										<clipPath id="SVGID_405_" clip-path="url(#SVGID_404_)">
											<use xlink:href="#SVGID_371_"  overflow="visible"/>
										</clipPath>
										<clipPath id="SVGID_406_" clip-path="url(#SVGID_405_)">
											<use xlink:href="#SVGID_372_"  overflow="visible"/>
										</clipPath>
										<path clip-path="url(#SVGID_406_)" fill="#E9511D" d="M352.939,309.816c0,19.035-50.443,34.469-112.667,34.469
											c-62.225,0-112.667-15.434-112.667-34.469H352.939z"/>
										<path clip-path="url(#SVGID_406_)" fill="none" stroke="#FFFFFF" stroke-width="2.835" stroke-linejoin="round" d="
											M353.33,309.825c0,19.036-50.443,34.468-112.667,34.468c-62.225,0-112.667-15.432-112.667-34.468"/>
										<path clip-path="url(#SVGID_406_)" fill="#FCBF00" d="M127.605,309.816c0-19.037,50.443-34.469,112.667-34.469
											c62.226,0,112.667,15.433,112.667,34.469H127.605z"/>
										<path clip-path="url(#SVGID_406_)" fill="none" stroke="#FFFFFF" stroke-width="2.835" d="M127.996,309.816
											c0.504-4.238,2.989-8.214,7.175-11.849"/>
										
											<path clip-path="url(#SVGID_406_)" fill="none" stroke="#FFFFFF" stroke-width="2.835" stroke-dasharray="31.264,31.264" d="
											M163.166,284.551c19.857-5.818,46.746-9.201,77.106-9.201c38.205,0,71.966,5.816,92.339,14.713"/>
										<path clip-path="url(#SVGID_406_)" fill="none" stroke="#FFFFFF" stroke-width="2.835" d="M346.068,297.938
											c4.443,3.703,6.871,7.704,6.871,11.88"/>
										
											<polygon clip-path="url(#SVGID_406_)" fill="none" stroke="#FFFFFF" stroke-width="2.835" stroke-linejoin="round" points="
											353.33,309.816 127.996,309.816 149.119,219.41 332.148,219.41 										"/>
										
											<line clip-path="url(#SVGID_406_)" fill="none" stroke="#FFFFFF" stroke-width="2.65" stroke-linejoin="round" x1="240.645" y1="106.567" x2="240.645" y2="219.096"/>
										
											<line clip-path="url(#SVGID_406_)" fill="none" stroke="#E50040" stroke-width="2.65" stroke-linejoin="round" x1="240.645" y1="41.63" x2="240.645" y2="106.567"/>
										
											<line clip-path="url(#SVGID_406_)" fill="none" stroke="#FFFFFF" stroke-width="2.835" stroke-dasharray="28.346,28.346" x1="123.006" y1="275.35" x2="136.049" y2="275.35"/>
										
											<line clip-path="url(#SVGID_406_)" fill="none" stroke="#FFFFFF" stroke-width="2.835" stroke-dasharray="28.346,28.346" x1="127.971" y1="255.746" x2="141.014" y2="255.746"/>
										
											<line clip-path="url(#SVGID_406_)" fill="none" stroke="#FFFFFF" stroke-width="2.835" stroke-dasharray="28.346,28.346" x1="132.936" y1="236.145" x2="145.979" y2="236.145"/>
										
											<line clip-path="url(#SVGID_406_)" fill="none" stroke="#FFFFFF" stroke-width="2.835" stroke-dasharray="28.346,28.346" x1="358.318" y1="275.35" x2="345.275" y2="275.35"/>
										
											<line clip-path="url(#SVGID_406_)" fill="none" stroke="#FFFFFF" stroke-width="2.835" stroke-dasharray="28.346,28.346" x1="353.354" y1="255.746" x2="340.312" y2="255.746"/>
										
											<line clip-path="url(#SVGID_406_)" fill="none" stroke="#FFFFFF" stroke-width="2.835" stroke-dasharray="28.346,28.346" x1="348.391" y1="236.145" x2="335.348" y2="236.145"/>
										<path clip-path="url(#SVGID_406_)" fill="#FFFFFF" d="M279.627,41.944c0-8.538-15.611-23.17-38.779-23.17
											c-22.193,0-38.78,14.876-38.78,23.17c0,10.974-0.511,20.482-0.245,26.578c0.245,5.61,21.954,8.537,21.954,8.537h34.142
											c0,0,21.709-2.927,21.953-8.537C280.139,62.426,279.627,52.918,279.627,41.944"/>
										<path clip-path="url(#SVGID_406_)" fill="none" stroke="#E63312" stroke-width="2.703" stroke-linejoin="round" d="
											M279.627,41.944c0-8.538-15.611-23.17-38.779-23.17c-22.193,0-38.78,14.876-38.78,23.17
											c0,10.974-0.511,20.482-0.245,26.578c0.245,5.61,21.954,8.537,21.954,8.537h34.142c0,0,21.709-2.927,21.953-8.537
											C280.139,62.426,279.627,52.918,279.627,41.944z"/>
										<path clip-path="url(#SVGID_406_)" fill="none" stroke="#FFFFFF" stroke-width="0.935" stroke-linecap="round" d="
											M217.967,72.059c3.591,6.97,9.14,18.456,9.14,18.456l0.5-2.344"/>
										<path clip-path="url(#SVGID_406_)" fill="none" stroke="#FFFFFF" stroke-width="0.935" stroke-linecap="round" d="
											M224.469,74.327c1.667,5.764,3.139,13.844,3.139,13.844l4.027,2.162l2.71-2.282c-1.789-5.14-3.465-13.724-3.465-13.724"/>
										<path clip-path="url(#SVGID_406_)" fill="none" stroke="#FFFFFF" stroke-width="0.935" stroke-linecap="round" d="
											M234.345,88.051c1.542,1.218,3.685,2.332,3.685,2.332l3.167-2.401c0.734-3.887,0.957-13.655,0.621-13.655"/>
										<path clip-path="url(#SVGID_406_)" fill="none" stroke="#FFFFFF" stroke-width="0.935" stroke-linecap="round" d="
											M252.288,74.327c-0.601,5.267-2.679,13.455-2.679,13.455l-4.166,2.371l-4.248-2.171"/>
										<path clip-path="url(#SVGID_406_)" fill="none" stroke="#FFFFFF" stroke-width="0.935" stroke-linecap="round" d="
											M249.609,87.783c1.041,0.823,2.459,2.304,2.459,2.304c4.91-3.474,8.639-16.318,8.639-17.374"/>
										<path clip-path="url(#SVGID_406_)" fill="none" stroke="#FFFFFF" stroke-width="0.935" stroke-linecap="round" d="
											M264.016,71.841c-0.666,3.314-7.824,17.522-7.824,17.522l-4.123,0.724c0.375,0-4,3.192-4.459,3.554
											c-0.459,0.362-2.164-3.488-2.164-3.488s-3.584,3.16-3.916,3.423c-0.332,0.264-3.5-3.193-3.5-3.193
											s-2.085,2.913-2.647,2.913c-0.56,0-2.124-1.679-3.748-2.963c0,0-0.356,3.178-1.023,3.178
											c-0.665,0-3.505-2.997-3.505-2.997c1.341,2.404,2.31,3.529,3.505,7.935c0.631,2.316,0,8.887,0,10.796
											c0,1.91-0.48,4.725-0.48,4.725"/>
										<path clip-path="url(#SVGID_406_)" fill="none" stroke="#FFFFFF" stroke-width="0.935" stroke-linecap="round" d="
											M230.259,97.214c0,0,2.52,2.814,2.854,2.55c0.333-0.263,1.082-3.159,1.082-3.159s3.043,4.017,3.417,3.489
											c0.303-0.428,1.165-3.029,1.165-3.029s3.094,3.297,3.427,3.033c0.334-0.263,2.239-3.361,2.239-3.361
											s2.25,3.554,2.582,3.291c0.334-0.263,2.304-3.151,2.304-3.151s1.278,3.085,1.696,3.085c0.416,0,1.98-2.618,1.98-2.618
											s-0.898-3.373-1.314-3.373c-0.414,0-2.362,2.906-2.362,2.906s-1.388-3.236-1.722-3.236c-0.332,0-3.164,3.096-3.164,3.096
											s-2.416-3.161-2.916-3.161s-2.75,3.489-2.75,3.489s-2.749-3.769-3.394-3.769l-1.188,3.309c0,0-2.916-3.094-3.583-3.094
											l-0.353,3.423"/>
										<path clip-path="url(#SVGID_406_)" fill="none" stroke="#FFFFFF" stroke-width="0.935" stroke-linecap="round" d="
											M252.158,101.523c-0.521-0.848-0.926-1.561-1.133-1.561c-0.416,0-1.881,3.319-1.881,3.319s-1.785-3.253-2.119-3.253
											c-0.332,0-2.268,3.113-2.268,3.113s-2.055-3.043-2.556-3.043c-0.5,0-2.112,2.978-2.112,2.978s-2.104-2.983-2.75-2.983
											l-1.833,3.309c0,0-2.061-3.901-2.395-3.638l-2.228,2.964"/>
										<path clip-path="url(#SVGID_406_)" fill="none" stroke="#FFFFFF" stroke-width="0.935" stroke-linecap="round" d="
											M230.885,102.729c0,0,1.978,3.817,2.311,3.554c0.334-0.263,2.312-2.88,2.312-2.88s2.053,3.27,2.435,2.997
											c0.452-0.321,2.148-3.323,2.148-3.323s2.038,3.398,2.371,3.135c0.334-0.264,2.297-3.07,2.297-3.07
											s2.448,3.461,2.781,3.198c0.336-0.264,1.604-3.058,1.604-3.058s1.524,2.734,1.942,2.734c0.206,0,0.358-1.05,0.938-1.844"
											/>
										<path clip-path="url(#SVGID_406_)" fill="none" stroke="#FFFFFF" stroke-width="0.935" stroke-linecap="round" d="
											M252.025,107.387c-0.385-0.737-0.764-1.372-0.938-1.372c-0.418,0-1.883,3.32-1.883,3.32s-1.785-3.254-2.119-3.254
											c-0.333,0-2.267,3.113-2.267,3.113s-2.055-3.042-2.555-3.042s-2.115,2.978-2.115,2.978s-1.665-2.753-2.312-2.753
											l-2.579,2.929c0,0-2.062-3.023-2.302-3.023l-2.336,2.499"/>
										<path clip-path="url(#SVGID_406_)" fill="none" stroke="#FFFFFF" stroke-width="0.935" stroke-linecap="round" d="
											M230.621,108.782c0,0,1.584,3.74,1.917,3.477c0.334-0.263,2.721-2.953,2.721-2.953s2.052,3.167,2.327,2.951
											c0.542-0.427,2.564-3.127,2.564-3.127s1.901,3.135,2.374,3.135c0.187,0,2.295-3.071,2.295-3.071s1.877,3.183,2.211,2.92
											c0.334-0.264,2.176-2.779,2.176-2.779s1.578,2.649,1.993,2.649c0.268,0,0.256-1.434,0.829-2.303"/>
										<path clip-path="url(#SVGID_406_)" fill="none" stroke="#FFFFFF" stroke-width="0.935" stroke-linecap="round" d="
											M230.1,113.91c0,0,1.34,3.473,1.773,3.328c0.784-0.264,3.113-2.2,3.113-2.2s2.39,2.98,2.932,2.552
											c0.541-0.428,2.083-2.484,2.083-2.484s1.901,2.546,2.373,2.546c1.235,0,2.296-2.482,2.296-2.482s2.74,2.745,3.075,2.482
											c0.334-0.263,1.312-2.342,1.312-2.342s2.239,2.213,2.657,2.213c0.414,0,1.517-2.141,1.517-2.141s-1.877-3.39-2.293-3.39
											s-1.881,3.318-1.881,3.318s-1.752-3.151-2.086-3.151s-2.301,3.011-2.301,3.011s-1.648-2.905-2.148-2.905
											s-2.521,2.841-2.521,2.841s-2.273-2.802-2.444-2.853l-2.571,2.785l-2.531-2.779L230.1,113.91"/>
										<path clip-path="url(#SVGID_406_)" fill="none" stroke="#FFFFFF" stroke-width="0.935" stroke-linecap="round" d="
											M252.066,90.087c0,0-0.748,4.181-0.375,3.885c0.375-0.297,2.875-1.976,2.875-1.976"/>
										<path clip-path="url(#SVGID_406_)" fill="none" stroke="#FFFFFF" stroke-width="0.935" stroke-linecap="round" d="
											M252.076,111.186c0.308,2.3,1.152,4.196,1.152,4.196"/>
										<path clip-path="url(#SVGID_406_)" fill="none" stroke="#FFFFFF" stroke-width="0.935" stroke-linecap="round" d="
											M256.191,89.363c-1.125,0.889-1.584,2.37-2.416,5.069c-0.59,1.908-1.75,6.872-1.75,8.427v7.637
											c0,0.214,0.019,0.447,0.051,0.69"/>
										
											<ellipse clip-path="url(#SVGID_406_)" fill="none" stroke="#A00F0F" stroke-width="2.703" cx="241.075" cy="71.472" rx="23.038" ry="2.313"/>
										
											<rect x="223.577" y="39.971" clip-path="url(#SVGID_406_)" fill="none" stroke="#E63312" stroke-width="2.703" stroke-linejoin="round" width="33.498" height="26.055"/>
									</g>
								</g>
							</g>
						</g>
					</g>
				</g>
			</g>
		</g>
	</g>
</g>
</svg>
