<svg version="1.1" width="482" height="362" viewBox="-1 -1 482 362" xmlns="http://www.w3.org/2000/svg" xmlns:xlink="http://www.w3.org/1999/xlink">
  <defs>
    <linearGradient id="grad_1" x1="240.0005" y1="355.5566" x2="240.0005" y2="4.0258" gradientUnits="userSpaceOnUse">
      <stop offset="0.2272" stop-color="#303A8E"/>
      <stop offset="0.4133" stop-color="#1C55A3"/>
      <stop offset="0.6451" stop-color="#0870B9"/>
      <stop offset="0.7808" stop-color="#007AC1"/>
      <stop offset="0.8306" stop-color="#0277BE"/>
      <stop offset="0.8736" stop-color="#066CB3"/>
      <stop offset="0.9141" stop-color="#0E5BA1"/>
      <stop offset="0.9531" stop-color="#1A4288"/>
      <stop offset="0.9907" stop-color="#282268"/>
      <stop offset="1" stop-color="#2C195F"/>
    </linearGradient>
  </defs>
  <!-- Exported by Scratch - http://scratch.mit.edu/ -->
  <g id="ID0.4871518719010055">
    <path id="ID0.15395322907716036" fill="url(#grad_1)" d="M 0 0 L 480 0 L 480 360 L 0 360 L 0 0 Z "/>
    <g id="étoiles_haut">
      <path id="ID0.6754823657684028" fill="#56C3F1" d="M 126.802 80.468 L 124.528 80.719 L 123.445 82.734 L 122.505 80.648 L 120.254 80.242 L 121.945 78.703 L 121.638 76.436 L 123.624 77.570 L 125.685 76.576 L 125.220 78.816 L 126.802 80.468 "/>
      <path id="ID0.19042860344052315" fill="#56C3F1" d="M 145.683 95.059 L 148.737 96.540 L 151.689 94.862 L 151.226 98.225 L 153.732 100.514 L 150.391 101.112 L 148.988 104.204 L 147.387 101.210 L 144.014 100.832 L 146.365 98.384 L 145.683 95.059 "/>
      <path id="ID0.7873385492712259" fill="#56C3F1" d="M 357.322 60.981 L 353.460 61.227 L 351.473 64.549 L 350.045 60.951 L 346.271 60.088 L 349.252 57.618 L 348.906 53.763 L 352.177 55.834 L 355.737 54.314 L 354.777 58.064 L 357.322 60.981 "/>
      <path id="ID0.2734182798303664" fill="#56C3F1" d="M 322.797 99.991 L 324.798 99.335 L 325.392 97.315 L 326.634 99.016 L 328.738 98.957 L 327.505 100.664 L 328.211 102.647 L 326.207 102.001 L 324.539 103.286 L 324.534 101.180 L 322.797 99.991 "/>
      <path id="ID0.6160846929997206" fill="#56C3F1" d="M 301.723 46.184 L 296.538 44.426 L 292.150 47.700 L 292.221 42.226 L 287.751 39.065 L 292.979 37.440 L 294.604 32.213 L 297.765 36.683 L 303.238 36.613 L 299.965 41 L 301.723 46.184 "/>
      <path id="ID0.40723281586542726" fill="#56C3F1" d="M 434.895 48.875 L 436.510 45.420 L 434.581 42.131 L 438.365 42.601 L 440.897 39.750 L 441.620 43.494 L 445.114 45.021 L 441.776 46.865 L 441.404 50.660 L 438.619 48.056 L 434.895 48.875 "/>
      <path id="ID0.6687561343424022" fill="#56C3F1" d="M 231.325 114.339 L 230.132 113.268 L 228.573 113.643 L 229.224 112.178 L 228.385 110.811 L 229.979 110.977 L 231.021 109.756 L 231.355 111.325 L 232.838 111.938 L 231.450 112.741 L 231.325 114.339 "/>
      <path id="ID0.7736616139300168" fill="#56C3F1" d="M 216.080 43.045 L 212.886 42.629 L 210.732 45.024 L 210.142 41.858 L 207.198 40.550 L 210.026 39.010 L 210.360 35.807 L 212.700 38.021 L 215.850 37.348 L 214.467 40.257 L 216.080 43.045 "/>
      <path id="ID0.7124540014192462" fill="#56C3F1" d="M 57.232 51.594 L 58.742 49.985 L 58.272 47.829 L 60.270 48.768 L 62.175 47.655 L 61.899 49.844 L 63.546 51.312 L 61.379 51.727 L 60.492 53.747 L 59.428 51.813 L 57.232 51.594 "/>
      <path id="ID0.4340125457383692" fill="#56C3F1" d="M 57.350 99.542 L 56.424 98.339 L 54.908 98.420 L 55.766 97.167 L 55.221 95.750 L 56.677 96.180 L 57.856 95.223 L 57.898 96.741 L 59.172 97.567 L 57.741 98.076 L 57.350 99.542 "/>
      <path id="ID0.18666767561808228" fill="#56C3F1" d="M 107.121 43.942 L 109.402 40.492 L 107.854 36.656 L 111.840 37.760 L 115.010 35.102 L 115.192 39.234 L 118.699 41.427 L 114.825 42.877 L 113.824 46.891 L 111.247 43.654 L 107.121 43.942 "/>
      <path id="ID0.7693627811968327" fill="#56C3F1" d="M 254.620 70.100 L 255.462 80.042 L 265.404 80.884 L 255.462 81.726 L 254.620 91.668 L 253.778 81.726 L 243.836 80.884 L 253.778 80.042 L 254.620 70.100 "/>
      <path id="ID0.7866708780638874" fill="#56C3F1" d="M 279.102 71.164 L 279.390 74.576 L 282.802 74.864 L 279.390 75.153 L 279.102 78.564 L 278.812 75.153 L 275.401 74.864 L 278.812 74.576 L 279.102 71.164 "/>
      <path id="ID0.619927269872278" fill="#56C3F1" d="M 381.040 61.781 L 381.936 72.363 L 392.519 73.259 L 381.936 74.155 L 381.040 84.737 L 380.144 74.155 L 369.562 73.259 L 380.144 72.363 L 381.040 61.781 "/>
      <path id="ID0.359736914280802" fill="#56C3F1" d="M 385.454 95.621 L 385.683 98.315 L 388.376 98.543 L 385.683 98.771 L 385.454 101.464 L 385.227 98.771 L 382.533 98.543 L 385.227 98.315 L 385.454 95.621 "/>
      <path id="ID0.06753358244895935" fill="#56C3F1" d="M 367.796 105.683 L 368.397 112.791 L 375.505 113.392 L 368.397 113.994 L 367.796 121.102 L 367.194 113.994 L 360.086 113.392 L 367.194 112.791 L 367.796 105.683 "/>
      <path id="ID0.7041235975921154" fill="#56C3F1" d="M 252.212 137.147 L 252.457 140.037 L 255.347 140.281 L 252.457 140.526 L 252.212 143.416 L 251.968 140.526 L 249.078 140.281 L 251.968 140.037 L 252.212 137.147 "/>
      <path id="ID0.6219548573717475" fill="#56C3F1" d="M 110.542 136.346 L 110.942 141.084 L 115.682 141.485 L 110.942 141.886 L 110.542 146.625 L 110.141 141.886 L 105.402 141.485 L 110.141 141.084 L 110.542 136.346 "/>
      <path id="ID0.388033636379987" fill="#56C3F1" d="M 86.863 96.597 L 87.484 103.941 L 94.829 104.563 L 87.484 105.185 L 86.863 112.529 L 86.241 105.185 L 78.896 104.563 L 86.241 103.941 L 86.863 96.597 "/>
      <path id="ID0.8476195172406733" fill="#56C3F1" d="M 35.092 76.871 L 35.248 78.721 L 37.098 78.877 L 35.248 79.034 L 35.092 80.884 L 34.935 79.034 L 33.085 78.877 L 34.935 78.721 L 35.092 76.871 "/>
      <path id="ID0.047604378778487444" fill="#56C3F1" d="M 25.459 102.643 L 26.329 112.923 L 36.610 113.793 L 26.329 114.664 L 25.459 124.944 L 24.589 114.664 L 14.309 113.793 L 24.589 112.923 L 25.459 102.643 "/>
      <path id="ID0.35105683328583837" fill="#56C3F1" d="M 87.666 47.018 L 87.834 49.010 L 89.827 49.179 L 87.834 49.348 L 87.666 51.340 L 87.497 49.348 L 85.505 49.179 L 87.497 49.010 L 87.666 47.018 "/>
      <path id="ID0.17065199464559555" fill="#56C3F1" d="M 176.762 28.197 L 176.989 30.891 L 179.684 31.119 L 176.989 31.347 L 176.762 34.041 L 176.533 31.347 L 173.840 31.119 L 176.533 30.891 L 176.762 28.197 "/>
      <path id="ID0.6989989471621811" fill="#56C3F1" d="M 26.262 34.872 L 26.658 39.552 L 31.338 39.948 L 26.658 40.344 L 26.262 45.025 L 25.865 40.344 L 21.186 39.948 L 25.865 39.552 L 26.262 34.872 "/>
      <path id="ID0.11147374892607331" fill="#0098D6" d="M 204.257 123.467 L 200.452 127.448 L 204.071 131.600 L 199.108 129.212 L 196.279 133.937 L 197.017 128.479 L 191.648 127.248 L 197.067 126.263 L 196.579 120.777 L 199.190 125.625 L 204.257 123.467 "/>
      <path id="ID0.7133064516820014" fill="#0098D6" d="M 306.668 98.958 L 308.262 103.253 L 312.684 102.057 L 309.092 104.900 L 311.596 108.736 L 307.782 106.198 L 304.907 109.765 L 306.143 105.354 L 301.861 103.722 L 306.439 103.533 L 306.668 98.958 "/>
      <path id="ID0.20637097023427486" fill="#0098D6" d="M 419.146 91.080 L 417.500 89.996 L 416.271 91.535 L 416.794 89.636 L 414.949 88.942 L 416.918 88.853 L 417.008 86.884 L 417.701 88.729 L 419.601 88.206 L 418.062 89.435 L 419.146 91.080 "/>
      <path id="ID0.6892328718677163" fill="#0098D6" d="M 415.207 103.772 L 419.291 101.155 L 417.057 96.849 L 420.809 99.925 L 424.213 96.469 L 422.447 100.988 L 426.785 103.158 L 421.942 102.874 L 421.219 107.671 L 419.992 102.978 L 415.207 103.772 "/>
      <path id="ID0.15590391028672457" fill="#0098D6" d="M 413.894 45.564 L 411.295 45.031 L 410.528 47.570 L 410.232 44.934 L 407.580 44.989 L 409.995 43.893 L 409.123 41.388 L 410.912 43.346 L 413.025 41.743 L 411.716 44.050 L 413.894 45.564 "/>
      <path id="ID0.6826101741753519" fill="#0098D6" d="M 374.942 151.039 L 374.050 150.156 L 373.089 150.964 L 373.653 149.842 L 372.587 149.178 L 373.828 149.368 L 374.131 148.149 L 374.334 149.389 L 375.586 149.299 L 374.471 149.875 L 374.942 151.039 "/>
      <path id="ID0.17633563606068492" fill="#0098D6" d="M 196.816 98.520 L 193.335 98.880 L 193.376 102.380 L 191.958 99.180 L 188.642 100.301 L 191.247 97.963 L 189.156 95.156 L 192.185 96.912 L 194.209 94.055 L 193.475 97.478 L 196.816 98.520 "/>
      <path id="ID0.045251940842717886" fill="#0098D6" d="M 137.732 138.785 L 137.252 138.172 L 136.598 138.596 L 137.031 137.949 L 136.427 137.458 L 137.176 137.671 L 137.456 136.944 L 137.485 137.722 L 138.263 137.764 L 137.532 138.032 L 137.732 138.785 "/>
      <path id="ID0.12848340813070536" fill="#0098D6" d="M 77.336 140.098 L 77.047 136.957 L 73.893 136.959 L 76.790 135.713 L 75.812 132.715 L 77.894 135.085 L 80.443 133.229 L 78.832 135.940 L 81.385 137.792 L 78.309 137.097 L 77.336 140.098 "/>
      <path id="ID0.5605027633719146" fill="#0098D6" d="M 154.363 43.813 L 154.425 42.378 L 153.001 42.188 L 154.385 41.802 L 154.127 40.389 L 154.921 41.585 L 156.185 40.904 L 155.292 42.029 L 156.331 43.020 L 154.985 42.519 L 154.363 43.813 "/>
      <path id="ID0.9254218759015203" fill="#0098D6" d="M 20.725 89.008 L 21.851 82.376 L 15.350 80.651 L 22.005 79.673 L 21.637 72.957 L 24.623 78.984 L 30.897 76.558 L 26.088 81.261 L 30.334 86.479 L 24.375 83.358 L 20.725 89.008 "/>
      <path id="ID0.9673654115758836" fill="#0098D6" d="M 467.726 78.388 L 465.520 74.575 L 461.521 76.424 L 464.466 73.147 L 461.472 69.917 L 465.498 71.705 L 467.646 67.858 L 467.188 72.240 L 471.511 73.094 L 467.202 74.014 L 467.726 78.388 "/>
      <path id="ID0.5953435003757477" fill="#0098D6" d="M 372.316 32.434 L 368.694 32.112 L 368.044 35.689 L 367.230 32.145 L 363.627 32.631 L 366.747 30.763 L 365.171 27.486 L 367.912 29.876 L 370.541 27.365 L 369.115 30.709 L 372.316 32.434 "/>
      <path id="ID0.12553204502910376" fill="#0098D6" d="M 271.218 46.001 L 273.055 44.558 L 271.783 42.597 L 273.725 43.897 L 275.196 42.083 L 274.560 44.331 L 276.740 45.170 L 274.405 45.258 L 274.281 47.592 L 273.476 45.398 L 271.218 46.001 "/>
      <path id="ID0.7822699663229287" fill="#0098D6" d="M 213.010 63.070 L 216.510 66.262 L 220.008 63.067 L 218.054 67.382 L 222.173 69.721 L 217.465 69.196 L 216.514 73.837 L 215.558 69.197 L 210.851 69.727 L 214.968 67.384 L 213.010 63.070 "/>
      <path id="ID0.03624965809285641" fill="#0098D6" d="M 162.680 57.818 L 159.739 57.355 L 159.012 60.241 L 158.543 57.302 L 155.574 57.501 L 158.224 56.147 L 157.117 53.385 L 159.224 55.487 L 161.509 53.581 L 160.160 56.234 L 162.680 57.818 "/>
      <g id="étoiles_bas">
        <path id="ID0.8195334784686565" fill="#56C3F1" d="M 332.196 225.346 L 334.058 225.141 L 334.944 223.491 L 335.714 225.198 L 337.557 225.531 L 336.172 226.791 L 336.424 228.647 L 334.798 227.719 L 333.111 228.533 L 333.491 226.699 L 332.196 225.346 "/>
        <path id="ID0.28754241531714797" fill="#56C3F1" d="M 316.739 213.401 L 314.238 212.188 L 311.821 213.562 L 312.201 210.809 L 310.148 208.935 L 312.885 208.446 L 314.033 205.915 L 315.344 208.365 L 318.105 208.675 L 316.180 210.679 L 316.739 213.401 "/>
        <path id="ID0.3043062682263553" fill="#56C3F1" d="M 143.476 241.300 L 146.638 241.099 L 148.265 238.378 L 149.434 241.323 L 152.523 242.030 L 150.083 244.053 L 150.366 247.210 L 147.688 245.513 L 144.773 246.757 L 145.559 243.687 L 143.476 241.300 "/>
        <path id="ID0.8299792222678661" fill="#56C3F1" d="M 171.741 209.363 L 170.103 209.900 L 169.617 211.554 L 168.600 210.161 L 166.877 210.209 L 167.887 208.812 L 167.309 207.188 L 168.949 207.718 L 170.314 206.666 L 170.318 208.390 L 171.741 209.363 "/>
        <path id="ID0.6650694329291582" fill="#56C3F1" d="M 79.970 251.211 L 78.647 254.039 L 80.227 256.731 L 77.128 256.348 L 75.055 258.682 L 74.464 255.616 L 71.603 254.365 L 74.336 252.855 L 74.640 249.749 L 76.920 251.881 L 79.970 251.211 "/>
        <path id="ID0.7974075111560524" fill="#56C3F1" d="M 28.035 178.569 L 26.713 181.397 L 28.292 184.090 L 25.194 183.706 L 23.121 186.040 L 22.529 182.975 L 19.668 181.724 L 22.401 180.214 L 22.706 177.107 L 24.986 179.239 L 28.035 178.569 "/>
        <path id="ID0.44534426275640726" fill="#56C3F1" d="M 246.626 197.616 L 247.603 198.493 L 248.879 198.187 L 248.347 199.386 L 249.033 200.505 L 247.728 200.369 L 246.875 201.368 L 246.602 200.085 L 245.388 199.583 L 246.523 198.925 L 246.626 197.616 "/>
        <path id="ID0.7022626576945186" fill="#56C3F1" d="M 389.150 248.984 L 387.915 250.302 L 388.299 252.067 L 386.664 251.298 L 385.104 252.209 L 385.330 250.417 L 383.982 249.216 L 385.756 248.876 L 386.482 247.223 L 387.354 248.806 L 389.150 248.984 "/>
        <path id="ID0.9623063579201698" fill="#56C3F1" d="M 389.055 209.731 L 389.812 210.716 L 391.054 210.649 L 390.352 211.676 L 390.798 212.835 L 389.605 212.483 L 388.640 213.267 L 388.605 212.024 L 387.562 211.348 L 388.734 210.933 L 389.055 209.731 "/>
        <path id="ID0.3249851521104574" fill="#56C3F1" d="M 348.309 255.249 L 346.440 258.074 L 347.709 261.213 L 344.445 260.310 L 341.850 262.486 L 341.700 259.104 L 338.829 257.309 L 342.001 256.120 L 342.820 252.835 L 344.931 255.484 L 348.309 255.249 "/>
        <path id="ID0.3081916281953454" fill="#56C3F1" d="M 227.555 233.834 L 226.866 225.694 L 218.727 225.006 L 226.866 224.317 L 227.555 216.177 L 228.244 224.317 L 236.384 225.006 L 228.244 225.694 L 227.555 233.834 "/>
        <path id="ID0.9290523328818381" fill="#56C3F1" d="M 207.513 232.963 L 207.277 230.170 L 204.483 229.935 L 207.277 229.697 L 207.513 226.904 L 207.750 229.697 L 210.542 229.935 L 207.750 230.170 L 207.513 232.963 "/>
        <path id="ID0.025139572098851204" fill="#56C3F1" d="M 124.059 240.645 L 123.326 231.980 L 114.662 231.249 L 123.326 230.515 L 124.059 221.852 L 124.793 230.515 L 133.456 231.249 L 124.793 231.980 L 124.059 240.645 "/>
        <path id="ID0.5037183142267168" fill="#56C3F1" d="M 120.445 212.940 L 120.258 210.735 L 118.053 210.549 L 120.258 210.362 L 120.445 208.157 L 120.631 210.362 L 122.836 210.549 L 120.631 210.735 L 120.445 212.940 "/>
        <path id="ID0.37541558500379324" fill="#56C3F1" d="M 134.901 204.704 L 134.409 198.885 L 128.590 198.392 L 134.409 197.899 L 134.901 192.080 L 135.394 197.899 L 141.213 198.392 L 135.394 198.885 L 134.901 204.704 "/>
        <path id="ID0.9696071436628699" fill="#56C3F1" d="M 229.526 178.945 L 229.326 176.579 L 226.960 176.378 L 229.326 176.179 L 229.526 173.812 L 229.727 176.179 L 232.093 176.378 L 229.727 176.579 L 229.526 178.945 "/>
        <path id="ID0.12846004636958241" fill="#56C3F1" d="M 345.508 179.601 L 345.180 175.721 L 341.300 175.394 L 345.180 175.066 L 345.508 171.185 L 345.836 175.066 L 349.715 175.394 L 345.836 175.721 L 345.508 179.601 "/>
        <path id="ID0.3538972092792392" fill="#56C3F1" d="M 364.893 212.143 L 364.384 206.129 L 358.371 205.620 L 364.384 205.112 L 364.893 199.100 L 365.402 205.112 L 371.415 205.620 L 365.402 206.129 L 364.893 212.143 "/>
        <path id="ID0.384683592710644" fill="#56C3F1" d="M 297.018 159.080 L 296.509 153.066 L 290.496 152.557 L 296.509 152.049 L 297.018 146.037 L 297.527 152.049 L 303.540 152.557 L 297.527 153.066 L 297.018 159.080 "/>
        <path id="ID0.801807985175401" fill="#56C3F1" d="M 206.962 318.551 L 206.453 312.537 L 200.440 312.028 L 206.453 311.521 L 206.962 305.508 L 207.472 311.521 L 213.484 312.028 L 207.472 312.537 L 206.962 318.551 "/>
        <path id="ID0.24185784719884396" fill="#56C3F1" d="M 407.276 228.292 L 407.148 226.776 L 405.635 226.648 L 407.148 226.521 L 407.276 225.006 L 407.405 226.521 L 408.920 226.648 L 407.405 226.776 L 407.276 228.292 "/>
        <path id="ID0.017191658727824688" fill="#56C3F1" d="M 415.162 207.192 L 414.450 198.776 L 406.033 198.063 L 414.450 197.353 L 415.162 188.936 L 415.875 197.353 L 424.291 198.063 L 415.875 198.776 L 415.162 207.192 "/>
        <path id="ID0.13339751632884145" fill="#56C3F1" d="M 364.235 252.730 L 364.098 251.100 L 362.466 250.962 L 364.098 250.823 L 364.235 249.192 L 364.374 250.823 L 366.005 250.962 L 364.374 251.100 L 364.235 252.730 "/>
        <path id="ID0.5275567099452019" fill="#56C3F1" d="M 291.296 268.139 L 291.109 265.934 L 288.903 265.746 L 291.109 265.561 L 291.296 263.355 L 291.482 265.561 L 293.688 265.746 L 291.482 265.934 L 291.296 268.139 "/>
        <path id="ID0.7487961975857615" fill="#56C3F1" d="M 414.506 262.675 L 414.181 258.844 L 410.350 258.519 L 414.181 258.194 L 414.506 254.363 L 414.830 258.194 L 418.661 258.519 L 414.830 258.844 L 414.506 262.675 "/>
        <path id="ID0.5459614563733339" fill="#0098D6" d="M 268.786 190.145 L 271.900 186.885 L 268.938 183.486 L 273.001 185.441 L 275.317 181.574 L 274.714 186.041 L 279.108 187.049 L 274.672 187.855 L 275.071 192.346 L 272.934 188.377 L 268.786 190.145 "/>
        <path id="ID0.8048606184311211" fill="#0098D6" d="M 184.945 210.209 L 183.640 206.693 L 180.020 207.672 L 182.961 205.345 L 180.911 202.204 L 184.033 204.282 L 186.387 201.362 L 185.375 204.973 L 188.880 206.310 L 185.132 206.463 L 184.945 210.209 "/>
        <path id="ID0.508226933889091" fill="#0098D6" d="M 92.863 216.658 L 94.210 217.546 L 95.216 216.285 L 94.788 217.841 L 96.298 218.409 L 94.687 218.482 L 94.613 220.094 L 94.045 218.583 L 92.490 219.012 L 93.750 218.005 L 92.863 216.658 "/>
        <path id="ID0.732989979442209" fill="#0098D6" d="M 96.087 206.269 L 92.744 208.411 L 94.573 211.936 L 91.501 209.418 L 88.714 212.246 L 90.160 208.548 L 86.608 206.771 L 90.573 207.003 L 91.166 203.075 L 92.170 206.919 L 96.087 206.269 "/>
        <path id="ID0.41904072230681777" fill="#0098D6" d="M 97.163 253.921 L 99.290 254.356 L 99.917 252.278 L 100.160 254.437 L 102.331 254.392 L 100.354 255.289 L 101.068 257.340 L 99.604 255.736 L 97.874 257.050 L 98.945 255.161 L 97.163 253.921 "/>
        <path id="ID0.4862621040083468" fill="#0098D6" d="M 129.051 167.572 L 129.782 168.295 L 130.568 167.633 L 130.106 168.552 L 130.979 169.096 L 129.963 168.940 L 129.715 169.938 L 129.549 168.923 L 128.524 168.997 L 129.437 168.525 L 129.051 167.572 "/>
        <path id="ID0.9526684586890042" fill="#0098D6" d="M 274.877 210.567 L 277.728 210.272 L 277.694 207.407 L 278.854 210.027 L 281.569 209.109 L 279.437 211.023 L 281.148 213.321 L 278.669 211.885 L 277.012 214.223 L 277.613 211.421 L 274.877 210.567 "/>
        <path id="ID0.671720580663532" fill="#0098D6" d="M 323.248 177.605 L 323.641 178.105 L 324.177 177.758 L 323.821 178.288 L 324.316 178.690 L 323.703 178.516 L 323.474 179.111 L 323.450 178.475 L 322.813 178.439 L 323.411 178.221 L 323.248 177.605 "/>
        <path id="ID0.315641884226352" fill="#0098D6" d="M 309.633 255.354 L 309.582 256.530 L 310.748 256.685 L 309.615 257.002 L 309.826 258.157 L 309.176 257.179 L 308.142 257.737 L 308.872 256.816 L 308.021 256.004 L 309.123 256.415 L 309.633 255.354 "/>
        <path id="ID0.6986038265749812" fill="#0098D6" d="M 419.038 218.354 L 418.117 223.784 L 423.438 225.196 L 417.990 225.998 L 418.292 231.496 L 415.847 226.562 L 410.710 228.548 L 414.647 224.697 L 411.172 220.425 L 416.050 222.980 L 419.038 218.354 "/>
        <path id="ID0.9546864572912455" fill="#0098D6" d="M 53.092 227.049 L 54.898 230.171 L 58.172 228.656 L 55.761 231.340 L 58.212 233.984 L 54.916 232.520 L 53.157 235.670 L 53.532 232.082 L 49.993 231.383 L 53.521 230.630 L 53.092 227.049 "/>
        <path id="ID0.6785298092290759" fill="#0098D6" d="M 131.201 264.670 L 134.166 264.934 L 134.698 262.005 L 135.364 264.907 L 138.314 264.509 L 135.760 266.038 L 137.050 268.721 L 134.806 266.764 L 132.654 268.820 L 133.821 266.082 L 131.201 264.670 "/>
        <path id="ID0.8040841366164386" fill="#0098D6" d="M 56.832 173.069 L 59.797 173.333 L 60.330 170.404 L 60.996 173.307 L 63.946 172.908 L 61.392 174.438 L 62.682 177.120 L 60.438 175.163 L 58.286 177.220 L 59.453 174.481 L 56.832 173.069 "/>
        <path id="ID0.9776120777241886" fill="#0098D6" d="M 213.967 253.562 L 212.463 254.745 L 213.504 256.351 L 211.915 255.286 L 210.710 256.771 L 211.231 254.931 L 209.446 254.243 L 211.357 254.171 L 211.459 252.261 L 212.119 254.057 L 213.967 253.562 "/>
        <path id="ID0.33560144528746605" fill="#0098D6" d="M 261.620 239.589 L 258.755 236.977 L 255.892 239.592 L 257.491 236.060 L 254.119 234.145 L 257.973 234.574 L 258.752 230.774 L 259.534 234.573 L 263.388 234.140 L 260.018 236.059 L 261.620 239.589 "/>
        <path id="ID0.93774254899472" fill="#0098D6" d="M 430.705 152.555 L 427.840 149.943 L 424.977 152.558 L 426.576 149.026 L 423.204 147.111 L 427.058 147.541 L 427.837 143.741 L 428.619 147.540 L 432.473 147.106 L 429.103 149.025 L 430.705 152.555 "/>
        <path id="ID0.12634441815316677" fill="#0098D6" d="M 302.824 243.889 L 305.231 244.268 L 305.827 241.905 L 306.211 244.312 L 308.641 244.149 L 306.472 245.257 L 307.378 247.519 L 305.653 245.798 L 303.782 247.358 L 304.887 245.187 L 302.824 243.889 "/>
        <g id="étoiles">
          <path id="ID0.7263159858994186" fill="#56C3F1" d="M 162.673 100.067 C 162.969 100.067 163.238 100.187 163.432 100.382 C 163.627 100.576 163.747 100.845 163.747 101.141 C 163.747 101.437 163.627 101.706 163.432 101.900 C 163.238 102.095 162.969 102.215 162.673 102.215 C 162.377 102.215 162.108 102.095 161.914 101.900 C 161.719 101.706 161.599 101.437 161.599 101.141 C 161.599 100.845 161.719 100.576 161.914 100.382 C 162.108 100.187 162.377 100.067 162.673 100.067 Z "/>
          <path id="ID0.8011816097423434" fill="#56C3F1" d="M 155.149 90.826 C 155.319 90.826 155.472 90.895 155.584 91.006 C 155.695 91.118 155.764 91.271 155.764 91.441 C 155.764 91.611 155.695 91.764 155.584 91.876 C 155.472 91.987 155.319 92.056 155.149 92.056 C 154.979 92.056 154.826 91.987 154.714 91.876 C 154.603 91.764 154.534 91.611 154.534 91.441 C 154.534 91.271 154.603 91.118 154.714 91.006 C 154.826 90.895 154.979 90.826 155.149 90.826 Z "/>
          <path id="ID0.15275385417044163" fill="#56C3F1" d="M 245.807 86.524 C 246.061 86.524 246.292 86.627 246.459 86.794 C 246.626 86.961 246.729 87.192 246.729 87.446 C 246.729 87.700 246.626 87.931 246.459 88.098 C 246.292 88.265 246.061 88.368 245.807 88.368 C 245.553 88.368 245.322 88.265 245.155 88.098 C 244.988 87.931 244.885 87.700 244.885 87.446 C 244.885 87.192 244.988 86.961 245.155 86.794 C 245.322 86.627 245.553 86.524 245.807 86.524 Z "/>
          <path id="ID0.6596991224214435" fill="#56C3F1" d="M 251.646 94.515 C 251.815 94.515 251.969 94.584 252.080 94.695 C 252.191 94.806 252.260 94.960 252.260 95.129 C 252.260 95.298 252.191 95.452 252.080 95.563 C 251.969 95.674 251.815 95.743 251.646 95.743 C 251.477 95.743 251.323 95.674 251.212 95.563 C 251.101 95.452 251.032 95.298 251.032 95.129 C 251.032 94.960 251.101 94.806 251.212 94.695 C 251.323 94.584 251.477 94.515 251.646 94.515 Z "/>
          <path id="ID0.4338831794448197" fill="#56C3F1" d="M 291.904 63.168 C 292.045 63.168 292.173 63.225 292.266 63.318 C 292.359 63.411 292.416 63.539 292.416 63.680 C 292.416 63.821 292.359 63.949 292.266 64.042 C 292.173 64.135 292.045 64.192 291.904 64.192 C 291.763 64.192 291.635 64.135 291.542 64.042 C 291.449 63.949 291.392 63.821 291.392 63.680 C 291.392 63.539 291.449 63.411 291.542 63.318 C 291.635 63.225 291.763 63.168 291.904 63.168 Z "/>
          <path id="ID0.6372457155957818" fill="#56C3F1" d="M 242.631 17.685 C 242.801 17.685 242.954 17.754 243.066 17.865 C 243.177 17.977 243.246 18.130 243.246 18.300 C 243.246 18.470 243.177 18.623 243.066 18.735 C 242.954 18.846 242.801 18.915 242.631 18.915 C 242.461 18.915 242.308 18.846 242.196 18.735 C 242.085 18.623 242.016 18.470 242.016 18.300 C 242.016 18.130 242.085 17.977 242.196 17.865 C 242.308 17.754 242.461 17.685 242.631 17.685 Z "/>
          <path id="ID0.5731462324038148" fill="#56C3F1" d="M 236.690 23.832 C 236.803 23.832 236.906 23.878 236.980 23.952 C 237.054 24.026 237.100 24.129 237.100 24.242 C 237.100 24.355 237.054 24.458 236.980 24.532 C 236.906 24.606 236.803 24.652 236.690 24.652 C 236.577 24.652 236.474 24.606 236.400 24.532 C 236.326 24.458 236.280 24.355 236.280 24.242 C 236.280 24.129 236.326 24.026 236.400 23.952 C 236.474 23.878 236.577 23.832 236.690 23.832 Z "/>
          <path id="ID0.5992185524664819" fill="#56C3F1" d="M 159.452 48.416 C 159.678 48.416 159.883 48.508 160.032 48.656 C 160.180 48.805 160.272 49.010 160.272 49.236 C 160.272 49.462 160.180 49.667 160.032 49.816 C 159.883 49.964 159.678 50.056 159.452 50.056 C 159.226 50.056 159.021 49.964 158.872 49.816 C 158.724 49.667 158.632 49.462 158.632 49.236 C 158.632 49.010 158.724 48.805 158.872 48.656 C 159.021 48.508 159.226 48.416 159.452 48.416 Z "/>
          <path id="ID0.3494491712190211" fill="#56C3F1" d="M 55.169 107.831 C 55.339 107.831 55.492 107.900 55.604 108.011 C 55.715 108.123 55.784 108.276 55.784 108.446 C 55.784 108.616 55.715 108.769 55.604 108.881 C 55.492 108.992 55.339 109.061 55.169 109.061 C 54.999 109.061 54.846 108.992 54.734 108.881 C 54.623 108.769 54.554 108.616 54.554 108.446 C 54.554 108.276 54.623 108.123 54.734 108.011 C 54.846 107.900 54.999 107.831 55.169 107.831 Z "/>
          <path id="ID0.40680918702855706" fill="#56C3F1" d="M 52.301 115.002 C 52.753 115.002 53.163 115.186 53.460 115.482 C 53.756 115.779 53.940 116.189 53.940 116.641 C 53.940 117.093 53.756 117.503 53.460 117.800 C 53.163 118.096 52.753 118.280 52.301 118.280 C 51.849 118.280 51.439 118.096 51.142 117.800 C 50.846 117.503 50.662 117.093 50.662 116.641 C 50.662 116.189 50.846 115.779 51.142 115.482 C 51.439 115.186 51.849 115.002 52.301 115.002 Z "/>
          <path id="ID0.9182991380803287" fill="#56C3F1" d="M 43.184 123.197 C 43.325 123.197 43.453 123.254 43.546 123.347 C 43.639 123.440 43.696 123.568 43.696 123.709 C 43.696 123.850 43.639 123.978 43.546 124.071 C 43.453 124.164 43.325 124.221 43.184 124.221 C 43.043 124.221 42.915 124.164 42.822 124.071 C 42.729 123.978 42.672 123.850 42.672 123.709 C 42.672 123.568 42.729 123.440 42.822 123.347 C 42.915 123.254 43.043 123.197 43.184 123.197 Z "/>
          <path id="ID0.8487545638345182" fill="#56C3F1" d="M 47.282 44.730 C 47.367 44.730 47.443 44.764 47.499 44.820 C 47.555 44.876 47.589 44.952 47.589 45.037 C 47.589 45.122 47.555 45.198 47.499 45.254 C 47.443 45.310 47.367 45.344 47.282 45.344 C 47.197 45.344 47.121 45.310 47.065 45.254 C 47.009 45.198 46.975 45.122 46.975 45.037 C 46.975 44.952 47.009 44.876 47.065 44.820 C 47.121 44.764 47.197 44.730 47.282 44.730 Z "/>
          <path id="ID0.5228869235143065" fill="#56C3F1" d="M 71.457 17.071 C 71.655 17.071 71.834 17.151 71.964 17.281 C 72.094 17.411 72.174 17.590 72.174 17.788 C 72.174 17.986 72.094 18.165 71.964 18.295 C 71.834 18.425 71.655 18.505 71.457 18.505 C 71.259 18.505 71.080 18.425 70.950 18.295 C 70.820 18.165 70.740 17.986 70.740 17.788 C 70.740 17.590 70.820 17.411 70.950 17.281 C 71.080 17.151 71.259 17.071 71.457 17.071 Z "/>
          <path id="ID0.46607669442892075" fill="#56C3F1" d="M 79.140 15.636 C 79.253 15.636 79.356 15.682 79.430 15.756 C 79.504 15.830 79.550 15.933 79.550 16.046 C 79.550 16.159 79.504 16.262 79.430 16.336 C 79.356 16.410 79.253 16.456 79.140 16.456 C 79.027 16.456 78.924 16.410 78.850 16.336 C 78.776 16.262 78.730 16.159 78.730 16.046 C 78.730 15.933 78.776 15.830 78.850 15.756 C 78.924 15.682 79.027 15.636 79.140 15.636 Z "/>
          <path id="ID0.7456795978359878" fill="#56C3F1" d="M 98.398 61.734 C 98.737 61.734 99.044 61.872 99.267 62.094 C 99.489 62.317 99.627 62.624 99.627 62.963 C 99.627 63.302 99.489 63.609 99.267 63.832 C 99.044 64.054 98.737 64.192 98.398 64.192 C 98.059 64.192 97.752 64.054 97.529 63.832 C 97.307 63.609 97.169 63.302 97.169 62.963 C 97.169 62.624 97.307 62.317 97.529 62.094 C 97.752 61.872 98.059 61.734 98.398 61.734 Z "/>
          <path id="ID0.01312096556648612" fill="#56C3F1" d="M 106.491 55.997 C 106.632 55.997 106.760 56.054 106.853 56.147 C 106.946 56.240 107.003 56.368 107.003 56.509 C 107.003 56.650 106.946 56.778 106.853 56.871 C 106.760 56.964 106.632 57.021 106.491 57.021 C 106.350 57.021 106.222 56.964 106.129 56.871 C 106.036 56.778 105.979 56.650 105.979 56.509 C 105.979 56.368 106.036 56.240 106.129 56.147 C 106.222 56.054 106.350 55.997 106.491 55.997 Z "/>
          <path id="ID0.9209914891980588" fill="#56C3F1" d="M 350.191 84.475 C 350.417 84.475 350.622 84.567 350.770 84.715 C 350.918 84.863 351.010 85.068 351.010 85.294 C 351.010 85.520 350.918 85.725 350.770 85.873 C 350.622 86.021 350.417 86.113 350.191 86.113 C 349.965 86.113 349.760 86.021 349.612 85.873 C 349.464 85.725 349.372 85.520 349.372 85.294 C 349.372 85.068 349.464 84.863 349.612 84.715 C 349.760 84.567 349.965 84.475 350.191 84.475 Z "/>
          <path id="ID0.4962365748360753" fill="#56C3F1" d="M 343.225 96.153 C 343.677 96.153 344.087 96.337 344.384 96.633 C 344.680 96.930 344.864 97.340 344.864 97.792 C 344.864 98.244 344.680 98.654 344.384 98.951 C 344.087 99.247 343.677 99.431 343.225 99.431 C 342.773 99.431 342.363 99.247 342.066 98.951 C 341.770 98.654 341.586 98.244 341.586 97.792 C 341.586 97.340 341.770 96.930 342.066 96.633 C 342.363 96.337 342.773 96.153 343.225 96.153 Z "/>
          <path id="ID0.8497066670097411" fill="#56C3F1" d="M 335.952 105.577 C 336.150 105.577 336.329 105.657 336.459 105.787 C 336.589 105.917 336.669 106.096 336.669 106.294 C 336.669 106.492 336.589 106.671 336.459 106.801 C 336.329 106.931 336.150 107.011 335.952 107.011 C 335.754 107.011 335.575 106.931 335.445 106.801 C 335.315 106.671 335.235 106.492 335.235 106.294 C 335.235 106.096 335.315 105.917 335.445 105.787 C 335.575 105.657 335.754 105.577 335.952 105.577 Z "/>
          <path id="ID0.524660334456712" fill="#56C3F1" d="M 340.664 112.134 C 341.201 112.134 341.687 112.352 342.040 112.704 C 342.392 113.057 342.610 113.543 342.610 114.080 C 342.610 114.617 342.392 115.103 342.040 115.456 C 341.687 115.808 341.201 116.026 340.664 116.026 C 340.127 116.026 339.641 115.808 339.288 115.456 C 338.936 115.103 338.718 114.617 338.718 114.080 C 338.718 113.543 338.936 113.057 339.288 112.704 C 339.641 112.352 340.127 112.134 340.664 112.134 Z "/>
          <path id="ID0.3784656054340303" fill="#56C3F1" d="M 422.512 45.344 C 422.738 45.344 422.943 45.436 423.092 45.584 C 423.240 45.733 423.332 45.938 423.332 46.164 C 423.332 46.390 423.240 46.595 423.092 46.744 C 422.943 46.892 422.738 46.984 422.512 46.984 C 422.286 46.984 422.081 46.892 421.932 46.744 C 421.784 46.595 421.692 46.390 421.692 46.164 C 421.692 45.938 421.784 45.733 421.932 45.584 C 422.081 45.436 422.286 45.344 422.512 45.344 Z "/>
          <path id="ID0.3875674353912473" fill="#56C3F1" d="M 428.761 43.295 C 429.015 43.295 429.246 43.398 429.413 43.565 C 429.580 43.732 429.683 43.963 429.683 44.217 C 429.683 44.471 429.580 44.702 429.413 44.869 C 429.246 45.036 429.015 45.139 428.761 45.139 C 428.507 45.139 428.276 45.036 428.109 44.869 C 427.942 44.702 427.839 44.471 427.839 44.217 C 427.839 43.963 427.942 43.732 428.109 43.565 C 428.276 43.398 428.507 43.295 428.761 43.295 Z "/>
          <path id="ID0.27474926225841045" fill="#56C3F1" d="M 413.805 120.534 C 414.116 120.534 414.397 120.660 414.601 120.864 C 414.805 121.068 414.931 121.349 414.931 121.660 C 414.931 121.971 414.805 122.252 414.601 122.456 C 414.397 122.660 414.116 122.786 413.805 122.786 C 413.494 122.786 413.213 122.660 413.009 122.456 C 412.805 122.252 412.679 121.971 412.679 121.660 C 412.679 121.349 412.805 121.068 413.009 120.864 C 413.213 120.660 413.494 120.534 413.805 120.534 Z "/>
          <path id="ID0.5252429153770208" fill="#56C3F1" d="M 162.673 299.963 C 162.969 299.963 163.238 300.083 163.432 300.278 C 163.627 300.472 163.747 300.741 163.747 301.037 C 163.747 301.333 163.627 301.602 163.432 301.796 C 163.238 301.991 162.969 302.111 162.673 302.111 C 162.377 302.111 162.108 301.991 161.914 301.796 C 161.719 301.602 161.599 301.333 161.599 301.037 C 161.599 300.741 161.719 300.472 161.914 300.278 C 162.108 300.083 162.377 299.963 162.673 299.963 Z "/>
          <path id="ID0.26917336229234934" fill="#56C3F1" d="M 155.149 290.721 C 155.319 290.721 155.472 290.790 155.584 290.901 C 155.695 291.013 155.764 291.166 155.764 291.336 C 155.764 291.506 155.695 291.659 155.584 291.771 C 155.472 291.882 155.319 291.951 155.149 291.951 C 154.979 291.951 154.826 291.882 154.714 291.771 C 154.603 291.659 154.534 291.506 154.534 291.336 C 154.534 291.166 154.603 291.013 154.714 290.901 C 154.826 290.790 154.979 290.721 155.149 290.721 Z "/>
          <path id="ID0.5859396471641958" fill="#56C3F1" d="M 245.807 286.420 C 246.061 286.420 246.292 286.523 246.459 286.690 C 246.626 286.857 246.729 287.088 246.729 287.342 C 246.729 287.596 246.626 287.827 246.459 287.994 C 246.292 288.161 246.061 288.264 245.807 288.264 C 245.553 288.264 245.322 288.161 245.155 287.994 C 244.988 287.827 244.885 287.596 244.885 287.342 C 244.885 287.088 244.988 286.857 245.155 286.690 C 245.322 286.523 245.553 286.420 245.807 286.420 Z "/>
          <path id="ID0.3468040535226464" fill="#56C3F1" d="M 251.646 294.410 C 251.815 294.410 251.969 294.479 252.080 294.590 C 252.191 294.701 252.260 294.855 252.260 295.024 C 252.260 295.193 252.191 295.347 252.080 295.458 C 251.969 295.569 251.815 295.638 251.646 295.638 C 251.477 295.638 251.323 295.569 251.212 295.458 C 251.101 295.347 251.032 295.193 251.032 295.024 C 251.032 294.855 251.101 294.701 251.212 294.590 C 251.323 294.479 251.477 294.410 251.646 294.410 Z "/>
          <path id="ID0.2804222656413913" fill="#56C3F1" d="M 291.904 263.064 C 292.045 263.064 292.173 263.121 292.266 263.214 C 292.359 263.307 292.416 263.435 292.416 263.576 C 292.416 263.717 292.359 263.845 292.266 263.938 C 292.173 264.031 292.045 264.088 291.904 264.088 C 291.763 264.088 291.635 264.031 291.542 263.938 C 291.449 263.845 291.392 263.717 291.392 263.576 C 291.392 263.435 291.449 263.307 291.542 263.214 C 291.635 263.121 291.763 263.064 291.904 263.064 Z "/>
          <path id="ID0.2620506137609482" fill="#56C3F1" d="M 242.631 217.580 C 242.801 217.580 242.954 217.649 243.066 217.760 C 243.177 217.872 243.246 218.025 243.246 218.195 C 243.246 218.365 243.177 218.518 243.066 218.630 C 242.954 218.741 242.801 218.810 242.631 218.810 C 242.461 218.810 242.308 218.741 242.196 218.630 C 242.085 218.518 242.016 218.365 242.016 218.195 C 242.016 218.025 242.085 217.872 242.196 217.760 C 242.308 217.649 242.461 217.580 242.631 217.580 Z "/>
          <path id="ID0.6179685927927494" fill="#56C3F1" d="M 236.690 223.727 C 236.803 223.727 236.906 223.773 236.980 223.847 C 237.054 223.921 237.100 224.024 237.100 224.137 C 237.100 224.250 237.054 224.353 236.980 224.427 C 236.906 224.501 236.803 224.547 236.690 224.547 C 236.577 224.547 236.474 224.501 236.400 224.427 C 236.326 224.353 236.280 224.250 236.280 224.137 C 236.280 224.024 236.326 223.921 236.400 223.847 C 236.474 223.773 236.577 223.727 236.690 223.727 Z "/>
          <path id="ID0.40644747391343117" fill="#56C3F1" d="M 159.452 248.312 C 159.678 248.312 159.883 248.404 160.032 248.552 C 160.180 248.701 160.272 248.906 160.272 249.132 C 160.272 249.358 160.180 249.563 160.032 249.712 C 159.883 249.860 159.678 249.952 159.452 249.952 C 159.226 249.952 159.021 249.860 158.872 249.712 C 158.724 249.563 158.632 249.358 158.632 249.132 C 158.632 248.906 158.724 248.701 158.872 248.552 C 159.021 248.404 159.226 248.312 159.452 248.312 Z "/>
          <path id="ID0.7369118905626237" fill="#56C3F1" d="M 55.169 307.727 C 55.339 307.727 55.492 307.796 55.604 307.907 C 55.715 308.019 55.784 308.172 55.784 308.342 C 55.784 308.512 55.715 308.665 55.604 308.777 C 55.492 308.888 55.339 308.957 55.169 308.957 C 54.999 308.957 54.846 308.888 54.734 308.777 C 54.623 308.665 54.554 308.512 54.554 308.342 C 54.554 308.172 54.623 308.019 54.734 307.907 C 54.846 307.796 54.999 307.727 55.169 307.727 Z "/>
          <path id="ID0.14853778155520558" fill="#56C3F1" d="M 52.301 314.897 C 52.753 314.897 53.163 315.081 53.460 315.377 C 53.756 315.674 53.940 316.084 53.940 316.536 C 53.940 316.988 53.756 317.398 53.460 317.695 C 53.163 317.991 52.753 318.175 52.301 318.175 C 51.849 318.175 51.439 317.991 51.142 317.695 C 50.846 317.398 50.662 316.988 50.662 316.536 C 50.662 316.084 50.846 315.674 51.142 315.377 C 51.439 315.081 51.849 314.897 52.301 314.897 Z "/>
          <path id="ID0.12383567448705435" fill="#56C3F1" d="M 43.184 323.092 C 43.325 323.092 43.453 323.149 43.546 323.242 C 43.639 323.335 43.696 323.463 43.696 323.604 C 43.696 323.745 43.639 323.873 43.546 323.966 C 43.453 324.059 43.325 324.116 43.184 324.116 C 43.043 324.116 42.915 324.059 42.822 323.966 C 42.729 323.873 42.672 323.745 42.672 323.604 C 42.672 323.463 42.729 323.335 42.822 323.242 C 42.915 323.149 43.043 323.092 43.184 323.092 Z "/>
          <path id="ID0.4589564260095358" fill="#56C3F1" d="M 47.282 244.625 C 47.367 244.625 47.443 244.659 47.499 244.715 C 47.555 244.771 47.589 244.847 47.589 244.932 C 47.589 245.017 47.555 245.093 47.499 245.149 C 47.443 245.205 47.367 245.239 47.282 245.239 C 47.197 245.239 47.121 245.205 47.065 245.149 C 47.009 245.093 46.975 245.017 46.975 244.932 C 46.975 244.847 47.009 244.771 47.065 244.715 C 47.121 244.659 47.197 244.625 47.282 244.625 Z "/>
          <path id="ID0.9145967396907508" fill="#56C3F1" d="M 71.457 216.967 C 71.655 216.967 71.834 217.047 71.964 217.177 C 72.094 217.307 72.174 217.486 72.174 217.684 C 72.174 217.882 72.094 218.061 71.964 218.191 C 71.834 218.321 71.655 218.401 71.457 218.401 C 71.259 218.401 71.080 218.321 70.950 218.191 C 70.820 218.061 70.740 217.882 70.740 217.684 C 70.740 217.486 70.820 217.307 70.950 217.177 C 71.080 217.047 71.259 216.967 71.457 216.967 Z "/>
          <path id="ID0.7100368393585086" fill="#56C3F1" d="M 79.140 215.531 C 79.253 215.531 79.356 215.577 79.430 215.651 C 79.504 215.725 79.550 215.828 79.550 215.941 C 79.550 216.054 79.504 216.157 79.430 216.231 C 79.356 216.305 79.253 216.351 79.140 216.351 C 79.027 216.351 78.924 216.305 78.850 216.231 C 78.776 216.157 78.730 216.054 78.730 215.941 C 78.730 215.828 78.776 215.725 78.850 215.651 C 78.924 215.577 79.027 215.531 79.140 215.531 Z "/>
          <path id="ID0.47526985965669155" fill="#56C3F1" d="M 98.398 261.630 C 98.737 261.630 99.044 261.768 99.267 261.990 C 99.489 262.213 99.627 262.520 99.627 262.859 C 99.627 263.198 99.489 263.505 99.267 263.728 C 99.044 263.950 98.737 264.088 98.398 264.088 C 98.059 264.088 97.752 263.950 97.529 263.728 C 97.307 263.505 97.169 263.198 97.169 262.859 C 97.169 262.520 97.307 262.213 97.529 261.990 C 97.752 261.768 98.059 261.630 98.398 261.630 Z "/>
          <path id="ID0.045100430492311716" fill="#56C3F1" d="M 106.491 255.892 C 106.632 255.892 106.760 255.949 106.853 256.042 C 106.946 256.135 107.003 256.263 107.003 256.404 C 107.003 256.545 106.946 256.673 106.853 256.766 C 106.760 256.859 106.632 256.916 106.491 256.916 C 106.350 256.916 106.222 256.859 106.129 256.766 C 106.036 256.673 105.979 256.545 105.979 256.404 C 105.979 256.263 106.036 256.135 106.129 256.042 C 106.222 255.949 106.350 255.892 106.491 255.892 Z "/>
          <path id="ID0.21759615140035748" fill="#56C3F1" d="M 350.191 284.370 C 350.417 284.370 350.622 284.462 350.770 284.610 C 350.918 284.758 351.010 284.963 351.010 285.189 C 351.010 285.415 350.918 285.620 350.770 285.768 C 350.622 285.916 350.417 286.008 350.191 286.008 C 349.965 286.008 349.760 285.916 349.612 285.768 C 349.464 285.620 349.372 285.415 349.372 285.189 C 349.372 284.963 349.464 284.758 349.612 284.610 C 349.760 284.462 349.965 284.370 350.191 284.370 Z "/>
          <path id="ID0.9016079353168607" fill="#56C3F1" d="M 343.225 296.049 C 343.677 296.049 344.087 296.233 344.384 296.529 C 344.680 296.826 344.864 297.236 344.864 297.688 C 344.864 298.140 344.680 298.550 344.384 298.847 C 344.087 299.143 343.677 299.327 343.225 299.327 C 342.773 299.327 342.363 299.143 342.066 298.847 C 341.770 298.550 341.586 298.140 341.586 297.688 C 341.586 297.236 341.770 296.826 342.066 296.529 C 342.363 296.233 342.773 296.049 343.225 296.049 Z "/>
          <path id="ID0.5510595496743917" fill="#56C3F1" d="M 335.952 305.472 C 336.150 305.472 336.329 305.552 336.459 305.682 C 336.589 305.812 336.669 305.991 336.669 306.189 C 336.669 306.387 336.589 306.566 336.459 306.696 C 336.329 306.826 336.150 306.906 335.952 306.906 C 335.754 306.906 335.575 306.826 335.445 306.696 C 335.315 306.566 335.235 306.387 335.235 306.189 C 335.235 305.991 335.315 305.812 335.445 305.682 C 335.575 305.552 335.754 305.472 335.952 305.472 Z "/>
          <path id="ID0.8827593396417797" fill="#56C3F1" d="M 340.664 312.029 C 341.201 312.029 341.687 312.247 342.040 312.599 C 342.392 312.952 342.610 313.438 342.610 313.975 C 342.610 314.512 342.392 314.998 342.040 315.351 C 341.687 315.703 341.201 315.921 340.664 315.921 C 340.127 315.921 339.641 315.703 339.288 315.351 C 338.936 314.998 338.718 314.512 338.718 313.975 C 338.718 313.438 338.936 312.952 339.288 312.599 C 339.641 312.247 340.127 312.029 340.664 312.029 Z "/>
          <path id="ID0.23141787433996797" fill="#56C3F1" d="M 422.512 245.239 C 422.738 245.239 422.943 245.331 423.092 245.479 C 423.240 245.628 423.332 245.833 423.332 246.059 C 423.332 246.285 423.240 246.490 423.092 246.639 C 422.943 246.787 422.738 246.879 422.512 246.879 C 422.286 246.879 422.081 246.787 421.932 246.639 C 421.784 246.490 421.692 246.285 421.692 246.059 C 421.692 245.833 421.784 245.628 421.932 245.479 C 422.081 245.331 422.286 245.239 422.512 245.239 Z "/>
          <path id="ID0.8948749899864197" fill="#56C3F1" d="M 428.761 243.191 C 429.015 243.191 429.246 243.294 429.413 243.461 C 429.580 243.628 429.683 243.859 429.683 244.113 C 429.683 244.367 429.580 244.598 429.413 244.765 C 429.246 244.932 429.015 245.035 428.761 245.035 C 428.507 245.035 428.276 244.932 428.109 244.765 C 427.942 244.598 427.839 244.367 427.839 244.113 C 427.839 243.859 427.942 243.628 428.109 243.461 C 428.276 243.294 428.507 243.191 428.761 243.191 Z "/>
          <path id="ID0.5056606153957546" fill="#56C3F1" d="M 413.805 320.430 C 414.116 320.430 414.397 320.556 414.601 320.760 C 414.805 320.964 414.931 321.245 414.931 321.556 C 414.931 321.867 414.805 322.148 414.601 322.352 C 414.397 322.556 414.116 322.682 413.805 322.682 C 413.494 322.682 413.213 322.556 413.009 322.352 C 412.805 322.148 412.679 321.867 412.679 321.556 C 412.679 321.245 412.805 320.964 413.009 320.760 C 413.213 320.556 413.494 320.430 413.805 320.430 Z "/>
        </g>
      </g>
    </g>
  </g>
</svg>