<svg version="1.1" width="482" height="362" viewBox="-1 -1 482 362" xmlns="http://www.w3.org/2000/svg" xmlns:xlink="http://www.w3.org/1999/xlink">
  <!-- Exported by Scratch - http://scratch.mit.edu/ -->
  <g id="ID0.21233399771153927">
    <path id="ID0.41342358011752367" fill="#303A8F" d="M 0 0 L 480 0 L 480 360 L 0 360 L 0 0 Z "/>
    <path id="ID0.7921081949025393" fill="#242968" d="M 28.917 0 L 36.996 0 L 36.996 360 L 28.917 360 L 28.917 0 Z "/>
    <g id="ID0.6556371008045971">
      <path id="ID0.1650752779096365" fill="#CCCBCB" d="M 430 360 L 50 360 L 50 0 L 430 0 L 430 360 "/>
      <path id="ID0.07782196393236518" fill="#B8B8B8" d="M 430 360 L 50 360 L 50 324 L 430 324 L 430 360 "/>
      <path id="ID0.15703493496403098" fill="#E4DCDE" d="M 430 326 L 50 326 L 50 324 L 430 324 L 430 326 "/>
      <path id="ID0.6656571496278048" fill="#F3F3F3" d="M 430 326 L 50 326 L 50 326.500 L 430 326.500 L 430 326 "/>
      <path id="ID0.1710771075449884" fill="#7C7E7D" d="M 430 358 L 50 358 L 50 360 L 430 360 L 430 358 "/>
      <path id="ID0.8125855536200106" fill="#E4DCDE" d="M 430 358 L 50 358 L 50 357.500 L 430 357.500 L 430 358 "/>
      <path id="ID0.511544231325388" fill="#CCCBCB" d="M 430 324 L 50 324 L 50 288 L 430 288 L 430 324 "/>
      <path id="ID0.4265835997648537" fill="#EEE6E8" d="M 430 290 L 50 290 L 50 288 L 430 288 L 430 290 "/>
      <path id="ID0.8400883958674967" fill="#FEFEFE" d="M 430 290 L 50 290 L 50 290.500 L 430 290.500 L 430 290 "/>
      <path id="ID0.34874852653592825" fill="#878888" d="M 430 322 L 50 322 L 50 324 L 430 324 L 430 322 "/>
      <path id="ID0.7627615034580231" fill="#EEE6E8" d="M 430 322 L 50 322 L 50 321.500 L 430 321.500 L 430 322 "/>
      <path id="ID0.5428530089557171" fill="#B8B8B8" d="M 430 288 L 50 288 L 50 252 L 430 252 L 430 288 "/>
      <path id="ID0.07896161219105124" fill="#E4DCDE" d="M 430 254 L 50 254 L 50 252 L 430 252 L 430 254 "/>
      <path id="ID0.08584553003311157" fill="#F3F3F3" d="M 430 254 L 50 254 L 50 254.500 L 430 254.500 L 430 254 "/>
      <path id="ID0.6757525382563472" fill="#7C7E7D" d="M 430 286 L 50 286 L 50 288 L 430 288 L 430 286 "/>
      <path id="ID0.661496649030596" fill="#E4DCDE" d="M 430 286 L 50 286 L 50 285.500 L 430 285.500 L 430 286 "/>
      <path id="ID0.9052767972461879" fill="#CCCBCB" d="M 430 252 L 50 252 L 50 216 L 430 216 L 430 252 "/>
      <path id="ID0.6824913709424436" fill="#EEE6E8" d="M 430 218 L 50 218 L 50 216 L 430 216 L 430 218 "/>
      <path id="ID0.22404525708407164" fill="#FEFEFE" d="M 430 218 L 50 218 L 50 218.500 L 430 218.500 L 430 218 "/>
      <path id="ID0.5130174248479307" fill="#878888" d="M 430 250 L 50 250 L 50 252 L 430 252 L 430 250 "/>
      <path id="ID0.4729349543340504" fill="#EEE6E8" d="M 430 250 L 50 250 L 50 249.500 L 430 249.500 L 430 250 "/>
      <path id="ID0.9552828185260296" fill="#B8B8B8" d="M 430 216 L 50 216 L 50 180 L 430 180 L 430 216 "/>
      <path id="ID0.8254636861383915" fill="#E4DCDE" d="M 430 182 L 50 182 L 50 180 L 430 180 L 430 182 "/>
      <path id="ID0.19458380062133074" fill="#F3F3F3" d="M 430 182 L 50 182 L 50 182.500 L 430 182.500 L 430 182 "/>
      <path id="ID0.6341769648715854" fill="#7C7E7D" d="M 430 214 L 50 214 L 50 216 L 430 216 L 430 214 "/>
      <path id="ID0.9518474559299648" fill="#E4DCDE" d="M 430 214 L 50 214 L 50 213.500 L 430 213.500 L 430 214 "/>
      <path id="ID0.5253271381370723" fill="#CCCBCB" d="M 430 180 L 50 180 L 50 144 L 430 144 L 430 180 "/>
      <path id="ID0.8381699724122882" fill="#EEE6E8" d="M 430 146 L 50 146 L 50 144 L 430 144 L 430 146 "/>
      <path id="ID0.5649755951017141" fill="#FEFEFE" d="M 430 146 L 50 146 L 50 146.500 L 430 146.500 L 430 146 "/>
      <path id="ID0.1858014026656747" fill="#878888" d="M 430 178 L 50 178 L 50 180 L 430 180 L 430 178 "/>
      <path id="ID0.7307770354673266" fill="#EEE6E8" d="M 430 178 L 50 178 L 50 177.500 L 430 177.500 L 430 178 "/>
      <path id="ID0.6118235983885825" fill="#B8B8B8" d="M 430 144 L 50 144 L 50 108 L 430 108 L 430 144 "/>
      <path id="ID0.4787859092466533" fill="#E4DCDE" d="M 430 110 L 50 110 L 50 108 L 430 108 L 430 110 "/>
      <path id="ID0.9205091018229723" fill="#F3F3F3" d="M 430 110 L 50 110 L 50 110.500 L 430 110.500 L 430 110 "/>
      <path id="ID0.19129107287153602" fill="#7C7E7D" d="M 430 142 L 50 142 L 50 144 L 430 144 L 430 142 "/>
      <path id="ID0.2745954873971641" fill="#E4DCDE" d="M 430 142 L 50 142 L 50 141.500 L 430 141.500 L 430 142 "/>
      <path id="ID0.27977665746584535" fill="#CCCBCB" d="M 430 108 L 50 108 L 50 72 L 430 72 L 430 108 "/>
      <path id="ID0.157083451282233" fill="#EEE6E8" d="M 430 74 L 50 74 L 50 72 L 430 72 L 430 74 "/>
      <path id="ID0.860487692989409" fill="#FEFEFE" d="M 430 74 L 50 74 L 50 74.500 L 430 74.500 L 430 74 "/>
      <path id="ID0.575496525503695" fill="#878888" d="M 430 106 L 50 106 L 50 108 L 430 108 L 430 106 "/>
      <path id="ID0.7043387624435127" fill="#EEE6E8" d="M 430 106 L 50 106 L 50 105.500 L 430 105.500 L 430 106 "/>
      <path id="ID0.5582604426890612" fill="#B8B8B8" d="M 430 72 L 50 72 L 50 36 L 430 36 L 430 72 "/>
      <path id="ID0.47654535062611103" fill="#E4DCDE" d="M 430 38 L 50 38 L 50 36 L 430 36 L 430 38 "/>
      <path id="ID0.08044448588043451" fill="#F3F3F3" d="M 430 38 L 50 38 L 50 38.500 L 430 38.500 L 430 38 "/>
      <path id="ID0.6855934052728117" fill="#7C7E7D" d="M 430 70 L 50 70 L 50 72 L 430 72 L 430 70 "/>
      <path id="ID0.18548152362927794" fill="#E4DCDE" d="M 430 70 L 50 70 L 50 69.500 L 430 69.500 L 430 70 "/>
      <path id="ID0.7948818788863719" fill="#CCCBCB" d="M 430 36 L 50 36 L 50 0 L 430 0 L 430 36 "/>
      <path id="ID0.16748412791639566" fill="#EEE6E8" d="M 430 2 L 50 2 L 50 0 L 430 0 L 430 2 "/>
      <path id="ID0.19718084577471018" fill="#FEFEFE" d="M 430 2 L 50 2 L 50 2.500 L 430 2.500 L 430 2 "/>
      <path id="ID0.805003501009196" fill="#878888" d="M 430 34 L 50 34 L 50 36 L 430 36 L 430 34 "/>
      <path id="ID0.6875705770216882" fill="#EEE6E8" d="M 430 34 L 50 34 L 50 33.500 L 430 33.500 L 430 34 "/>
      <path id="ID0.7567621148191392" fill="#BFB8B9" d="M 58.078 0 L 50 0 L 50 2 L 58.078 2 L 58.078 0 "/>
      <path id="ID0.8646085229702294" fill="#A4A5A4" d="M 58.078 2.500 L 50 2.500 L 50 33.500 L 58.078 33.500 L 58.078 2.500 "/>
      <path id="ID0.9077789220027626" fill="#CBCBCB" d="M 58.078 2 L 50 2 L 50 2.500 L 58.078 2.500 L 58.078 2 "/>
      <path id="ID0.3355078077875078" fill="#949594" d="M 58.078 38.500 L 50 38.500 L 50 69.500 L 58.078 69.500 L 58.078 38.500 "/>
      <path id="ID0.12292583845555782" fill="#B7B1B2" d="M 58.078 36 L 50 36 L 50 38 L 58.078 38 L 58.078 36 "/>
      <path id="ID0.6548734055832028" fill="#C2C2C3" d="M 58.078 38 L 50 38 L 50 38.500 L 58.078 38.500 L 58.078 38 "/>
      <path id="ID0.18696927186101675" fill="#949594" d="M 58.078 326.500 L 50 326.500 L 50 357.500 L 58.078 357.500 L 58.078 326.500 "/>
      <path id="ID0.3438983843661845" fill="#B7B1B2" d="M 58.078 324 L 50 324 L 50 326 L 58.078 326 L 58.078 324 "/>
      <path id="ID0.46223929012194276" fill="#C2C2C3" d="M 58.078 326 L 50 326 L 50 326.500 L 58.078 326.500 L 58.078 326 "/>
      <path id="ID0.7621581153944135" fill="#656766" d="M 58.078 358 L 50 358 L 50 360 L 58.078 360 L 58.078 358 "/>
      <path id="ID0.20982739003375173" fill="#B7B1B2" d="M 58.078 357.500 L 50 357.500 L 50 358 L 58.078 358 L 58.078 357.500 "/>
      <path id="ID0.84170739678666" fill="#A4A5A4" d="M 58.078 290.500 L 50 290.500 L 50 321.500 L 58.078 321.500 L 58.078 290.500 "/>
      <path id="ID0.620683609507978" fill="#BFB8B9" d="M 58.078 288 L 50 288 L 50 290 L 58.078 290 L 58.078 288 "/>
      <path id="ID0.2533004116266966" fill="#CBCBCB" d="M 58.078 290 L 50 290 L 50 290.500 L 58.078 290.500 L 58.078 290 "/>
      <path id="ID0.4993064873851836" fill="#6D6F6E" d="M 58.078 322 L 50 322 L 50 324 L 58.078 324 L 58.078 322 "/>
      <path id="ID0.29614679887890816" fill="#BFB8B9" d="M 58.078 321.500 L 50 321.500 L 50 322 L 58.078 322 L 58.078 321.500 "/>
      <path id="ID0.24022727087140083" fill="#949594" d="M 58.078 254.500 L 50 254.500 L 50 285.500 L 58.078 285.500 L 58.078 254.500 "/>
      <path id="ID0.7186207179911435" fill="#B7B1B2" d="M 58.078 252 L 50 252 L 50 254 L 58.078 254 L 58.078 252 "/>
      <path id="ID0.762579033151269" fill="#C2C2C3" d="M 58.078 254 L 50 254 L 50 254.500 L 58.078 254.500 L 58.078 254 "/>
      <path id="ID0.9304922549054027" fill="#656766" d="M 58.078 286 L 50 286 L 50 288 L 58.078 288 L 58.078 286 "/>
      <path id="ID0.08616575272753835" fill="#B7B1B2" d="M 58.078 285.500 L 50 285.500 L 50 286 L 58.078 286 L 58.078 285.500 "/>
      <path id="ID0.6704178666695952" fill="#A4A5A4" d="M 58.078 218.500 L 50 218.500 L 50 249.500 L 58.078 249.500 L 58.078 218.500 "/>
      <path id="ID0.3133387151174247" fill="#BFB8B9" d="M 58.078 216 L 50 216 L 50 218 L 58.078 218 L 58.078 216 "/>
      <path id="ID0.3938216036185622" fill="#CBCBCB" d="M 58.078 218 L 50 218 L 50 218.500 L 58.078 218.500 L 58.078 218 "/>
      <path id="ID0.08842771407216787" fill="#6D6F6E" d="M 58.078 250 L 50 250 L 50 252 L 58.078 252 L 58.078 250 "/>
      <path id="ID0.4988806708715856" fill="#BFB8B9" d="M 58.078 249.500 L 50 249.500 L 50 250 L 58.078 250 L 58.078 249.500 "/>
      <path id="ID0.0794479250907898" fill="#949594" d="M 58.078 182.500 L 50 182.500 L 50 213.500 L 58.078 213.500 L 58.078 182.500 "/>
      <path id="ID0.8346154480241239" fill="#B7B1B2" d="M 58.078 180 L 50 180 L 50 182 L 58.078 182 L 58.078 180 "/>
      <path id="ID0.5559623683802783" fill="#C2C2C3" d="M 58.078 182 L 50 182 L 50 182.500 L 58.078 182.500 L 58.078 182 "/>
      <path id="ID0.21688118064776063" fill="#656766" d="M 58.078 214 L 50 214 L 50 216 L 58.078 216 L 58.078 214 "/>
      <path id="ID0.6818758621811867" fill="#B7B1B2" d="M 58.078 213.500 L 50 213.500 L 50 214 L 58.078 214 L 58.078 213.500 "/>
      <path id="ID0.013563205022364855" fill="#A4A5A4" d="M 58.078 146.500 L 50 146.500 L 50 177.500 L 58.078 177.500 L 58.078 146.500 "/>
      <path id="ID0.3884590077213943" fill="#BFB8B9" d="M 58.078 144 L 50 144 L 50 146 L 58.078 146 L 58.078 144 "/>
      <path id="ID0.23858384415507317" fill="#CBCBCB" d="M 58.078 146 L 50 146 L 50 146.500 L 58.078 146.500 L 58.078 146 "/>
      <path id="ID0.14474149467423558" fill="#6D6F6E" d="M 58.078 178 L 50 178 L 50 180 L 58.078 180 L 58.078 178 "/>
      <path id="ID0.2804272058419883" fill="#BFB8B9" d="M 58.078 177.500 L 50 177.500 L 50 178 L 58.078 178 L 58.078 177.500 "/>
      <path id="ID0.7786865928210318" fill="#949594" d="M 58.078 110.500 L 50 110.500 L 50 141.500 L 58.078 141.500 L 58.078 110.500 "/>
      <path id="ID0.3132918765768409" fill="#B7B1B2" d="M 58.078 108 L 50 108 L 50 110 L 58.078 110 L 58.078 108 "/>
      <path id="ID0.678545247297734" fill="#C2C2C3" d="M 58.078 110 L 50 110 L 50 110.500 L 58.078 110.500 L 58.078 110 "/>
      <path id="ID0.9953466486185789" fill="#656766" d="M 58.078 142 L 50 142 L 50 144 L 58.078 144 L 58.078 142 "/>
      <path id="ID0.15926431445404887" fill="#B7B1B2" d="M 58.078 141.500 L 50 141.500 L 50 142 L 58.078 142 L 58.078 141.500 "/>
      <path id="ID0.03539312910288572" fill="#A4A5A4" d="M 58.078 74.500 L 50 74.500 L 50 105.500 L 58.078 105.500 L 58.078 74.500 "/>
      <path id="ID0.4757242975756526" fill="#BFB8B9" d="M 58.078 72 L 50 72 L 50 74 L 58.078 74 L 58.078 72 "/>
      <path id="ID0.1405734778381884" fill="#CBCBCB" d="M 58.078 74 L 50 74 L 50 74.500 L 58.078 74.500 L 58.078 74 "/>
      <path id="ID0.8684201152063906" fill="#6D6F6E" d="M 58.078 106 L 50 106 L 50 108 L 58.078 108 L 58.078 106 "/>
      <path id="ID0.2999339993111789" fill="#BFB8B9" d="M 58.078 105.500 L 50 105.500 L 50 106 L 58.078 106 L 58.078 105.500 "/>
      <path id="ID0.2038925103843212" fill="#656766" d="M 58.078 70 L 50 70 L 50 72 L 58.078 72 L 58.078 70 "/>
      <path id="ID0.42525178007781506" fill="#B7B1B2" d="M 58.078 69.500 L 50 69.500 L 50 70 L 58.078 70 L 58.078 69.500 "/>
      <path id="ID0.8641761541366577" fill="#6D6F6E" d="M 58.078 34 L 50 34 L 50 36 L 58.078 36 L 58.078 34 "/>
      <path id="ID0.04033279186114669" fill="#BFB8B9" d="M 58.078 33.500 L 50 33.500 L 50 34 L 58.078 34 L 58.078 33.500 "/>
      <path id="ID0.8520956914871931" fill="#949594" d="M 430 326.500 L 425.380 326.500 L 425.380 357.500 L 430 357.500 L 430 326.500 "/>
      <path id="ID0.5096220369450748" fill="#B7B1B2" d="M 430 324 L 425.380 324 L 425.380 326 L 430 326 L 430 324 "/>
      <path id="ID0.3006011303514242" fill="#C2C2C3" d="M 430 326 L 430 326 L 425.380 326 L 425.380 326.500 L 430 326.500 L 430 326 "/>
      <path id="ID0.08775667520239949" fill="#656766" d="M 430 358 L 425.380 358 L 425.380 360 L 430 360 L 430 358 "/>
      <path id="ID0.9059771602042019" fill="#B7B1B2" d="M 430 357.500 L 430 357.500 L 425.380 357.500 L 425.380 358 L 430 358 L 430 357.500 "/>
      <path id="ID0.15989633928984404" fill="#A4A5A4" d="M 430 290.500 L 425.380 290.500 L 425.380 321.500 L 430 321.500 L 430 290.500 "/>
      <path id="ID0.40996518451720476" fill="#BFB8B9" d="M 430 288 L 425.380 288 L 425.380 290 L 430 290 L 430 288 "/>
      <path id="ID0.9274362470023334" fill="#CBCBCB" d="M 430 290 L 430 290 L 425.380 290 L 425.380 290.500 L 430 290.500 L 430 290 "/>
      <path id="ID0.5898721795529127" fill="#6D6F6E" d="M 430 322 L 425.380 322 L 425.380 324 L 430 324 L 430 322 "/>
      <path id="ID0.8126240745186806" fill="#BFB8B9" d="M 430 321.500 L 430 321.500 L 425.380 321.500 L 425.380 322 L 430 322 L 430 321.500 "/>
      <path id="ID0.603283226955682" fill="#949594" d="M 430 254.500 L 425.380 254.500 L 425.380 285.500 L 430 285.500 L 430 254.500 "/>
      <path id="ID0.03837947314605117" fill="#B7B1B2" d="M 430 252 L 425.380 252 L 425.380 254 L 430 254 L 430 252 "/>
      <path id="ID0.026914930902421474" fill="#C2C2C3" d="M 430 254 L 430 254 L 425.380 254 L 425.380 254.500 L 430 254.500 L 430 254 "/>
      <path id="ID0.21287328330799937" fill="#656766" d="M 430 286 L 425.380 286 L 425.380 288 L 430 288 L 430 286 "/>
      <path id="ID0.25305245351046324" fill="#B7B1B2" d="M 430 285.500 L 430 285.500 L 425.380 285.500 L 425.380 286 L 430 286 L 430 285.500 "/>
      <path id="ID0.5591129795648158" fill="#A4A5A4" d="M 430 218.500 L 425.380 218.500 L 425.380 249.500 L 430 249.500 L 430 218.500 "/>
      <path id="ID0.8752454477362335" fill="#BFB8B9" d="M 430 216 L 425.380 216 L 425.380 218 L 430 218 L 430 216 "/>
      <path id="ID0.7824232522398233" fill="#CBCBCB" d="M 430 218 L 430 218 L 425.380 218 L 425.380 218.500 L 430 218.500 L 430 218 "/>
      <path id="ID0.7990327188745141" fill="#6D6F6E" d="M 430 250 L 425.380 250 L 425.380 252 L 430 252 L 430 250 "/>
      <path id="ID0.530974627006799" fill="#BFB8B9" d="M 430 249.500 L 430 249.500 L 425.380 249.500 L 425.380 250 L 430 250 L 430 249.500 "/>
      <path id="ID0.5682465992867947" fill="#949594" d="M 430 182.500 L 425.380 182.500 L 425.380 213.500 L 430 213.500 L 430 182.500 "/>
      <path id="ID0.04133463464677334" fill="#B7B1B2" d="M 430 180 L 425.380 180 L 425.380 182 L 430 182 L 430 180 "/>
      <path id="ID0.5609183222986758" fill="#C2C2C3" d="M 430 182 L 430 182 L 425.380 182 L 425.380 182.500 L 430 182.500 L 430 182 "/>
      <path id="ID0.6544271279126406" fill="#656766" d="M 430 214 L 425.380 214 L 425.380 216 L 430 216 L 430 214 "/>
      <path id="ID0.8420606306754053" fill="#B7B1B2" d="M 430 213.500 L 430 213.500 L 425.380 213.500 L 425.380 214 L 430 214 L 430 213.500 "/>
      <path id="ID0.04275494208559394" fill="#A4A5A4" d="M 430 146.500 L 425.380 146.500 L 425.380 177.500 L 430 177.500 L 430 146.500 "/>
      <path id="ID0.912059779278934" fill="#BFB8B9" d="M 430 144 L 425.380 144 L 425.380 146 L 430 146 L 430 144 "/>
      <path id="ID0.48002812545746565" fill="#CBCBCB" d="M 430 146 L 430 146 L 425.380 146 L 425.380 146.500 L 430 146.500 L 430 146 "/>
      <path id="ID0.13680555252358317" fill="#6D6F6E" d="M 430 178 L 425.380 178 L 425.380 180 L 430 180 L 430 178 "/>
      <path id="ID0.41930615762248635" fill="#BFB8B9" d="M 430 177.500 L 430 177.500 L 425.380 177.500 L 425.380 178 L 430 178 L 430 177.500 "/>
      <path id="ID0.2330257440917194" fill="#949594" d="M 430 110.500 L 425.380 110.500 L 425.380 141.500 L 430 141.500 L 430 110.500 "/>
      <path id="ID0.23218025546520948" fill="#B7B1B2" d="M 430 108 L 425.380 108 L 425.380 110 L 430 110 L 430 108 "/>
      <path id="ID0.528078312985599" fill="#C2C2C3" d="M 430 110 L 430 110 L 425.380 110 L 425.380 110.500 L 430 110.500 L 430 110 "/>
      <path id="ID0.6363177401944995" fill="#656766" d="M 430 142 L 425.380 142 L 425.380 144 L 430 144 L 430 142 "/>
      <path id="ID0.28941302513703704" fill="#B7B1B2" d="M 430 141.500 L 430 141.500 L 425.380 141.500 L 425.380 142 L 430 142 L 430 141.500 "/>
      <path id="ID0.6813482102006674" fill="#A4A5A4" d="M 430 74.500 L 425.380 74.500 L 425.380 105.500 L 430 105.500 L 430 74.500 "/>
      <path id="ID0.5570515017025173" fill="#BFB8B9" d="M 430 72 L 425.380 72 L 425.380 74 L 430 74 L 430 72 "/>
      <path id="ID0.9733233326114714" fill="#CBCBCB" d="M 430 74 L 430 74 L 425.380 74 L 425.380 74.500 L 430 74.500 L 430 74 "/>
      <path id="ID0.5478640482760966" fill="#6D6F6E" d="M 430 106 L 425.380 106 L 425.380 108 L 430 108 L 430 106 "/>
      <path id="ID0.27142451563850045" fill="#BFB8B9" d="M 430 105.500 L 430 105.500 L 425.380 105.500 L 425.380 106 L 430 106 L 430 105.500 "/>
      <path id="ID0.1846199189312756" fill="#949594" d="M 430 38.500 L 425.380 38.500 L 425.380 69.500 L 430 69.500 L 430 38.500 "/>
      <path id="ID0.1522669023834169" fill="#B7B1B2" d="M 430 36 L 425.380 36 L 425.380 38 L 430 38 L 430 36 "/>
      <path id="ID0.8246925566345453" fill="#C2C2C3" d="M 430 38 L 430 38 L 425.380 38 L 425.380 38.500 L 430 38.500 L 430 38 "/>
      <path id="ID0.46253734081983566" fill="#656766" d="M 430 70 L 425.380 70 L 425.380 72 L 430 72 L 430 70 "/>
      <path id="ID0.5787973725236952" fill="#B7B1B2" d="M 430 69.500 L 430 69.500 L 425.380 69.500 L 425.380 70 L 430 70 L 430 69.500 "/>
      <path id="ID0.7817884087562561" fill="#A4A5A4" d="M 430 2.500 L 425.380 2.500 L 425.380 33.500 L 430 33.500 L 430 2.500 "/>
      <path id="ID0.42309705214574933" fill="#BFB8B9" d="M 430 0 L 425.380 0 L 425.380 2 L 430 2 L 430 0 "/>
      <path id="ID0.5969472648575902" fill="#CBCBCB" d="M 430 2 L 430 2 L 425.380 2 L 425.380 2.500 L 430 2.500 L 430 2 "/>
      <path id="ID0.9990180018357933" fill="#6D6F6E" d="M 430 34 L 425.380 34 L 425.380 36 L 430 36 L 430 34 "/>
      <path id="ID0.8565703849308193" fill="#BFB8B9" d="M 430 33.500 L 430 33.500 L 425.380 33.500 L 425.380 34 L 430 34 L 430 33.500 "/>
    </g>
    <path id="ID0.28389169927686453" fill="#242968" d="M 443.004 0 L 457.713 0 L 457.713 360 L 443.004 360 L 443.004 0 Z "/>
    <g id="ID0.8323005153797567">
      <path id="ID0.5818623662926257" fill="#1D1D1B" d="M 36.996 0 L 50 0 L 50 360 L 36.996 360 L 36.996 0 Z "/>
      <path id="ID0.3498190972022712" fill="#7C7C7B" d="M 36.996 0 L 38.459 0 L 38.459 360 L 36.996 360 L 36.996 0 Z "/>
      <path id="ID0.3025515344925225" fill="#F1BE02" d="M 36.996 232.508 L 50 240.008 L 50 232.508 L 36.996 225.008 L 36.996 232.508 Z M 49.971 277.508 L 36.996 270.025 L 36.996 277.525 L 49.971 285.008 L 49.971 277.508 Z M 37.025 352.508 L 50 359.992 L 50 352.492 L 37.025 345.009 L 37.025 352.508 Z M 37.025 307.508 L 50 314.992 L 50 307.492 L 37.025 300.009 L 37.025 307.508 Z M 49.971 142.508 L 36.996 135.025 L 36.996 142.525 L 49.971 150.008 L 49.971 142.508 Z M 37.025 337.508 L 50 344.992 L 50 337.492 L 37.025 330.009 L 37.025 337.508 Z M 37.025 157.508 L 50 164.991 L 50 157.491 L 37.025 150.008 L 37.025 157.508 Z M 37.025 172.508 L 50 179.991 L 50 172.491 L 37.025 165.008 L 37.025 172.508 Z M 36.996 187.508 L 50 195.008 L 50 187.508 L 36.996 180.008 L 36.996 187.508 Z M 49.971 97.508 L 36.996 90.025 L 36.996 97.525 L 49.971 105.008 L 49.971 97.508 Z M 37.025 127.508 L 50 134.991 L 50 127.491 L 37.025 120.008 L 37.025 127.508 Z M 37.025 112.508 L 50 119.991 L 50 112.491 L 37.025 105.008 L 37.025 112.508 Z M 49.971 322.508 L 36.996 315.025 L 36.996 322.525 L 49.971 330.008 L 49.971 322.508 Z M 37.025 292.508 L 50 299.992 L 50 292.492 L 37.025 285.009 L 37.025 292.508 Z M 37.055 67.508 L 50 74.975 L 50 67.475 L 37.055 60.009 L 37.055 67.508 Z M 37.055 22.508 L 50 29.975 L 50 22.475 L 37.055 15.009 L 37.055 22.508 Z M 36.996 52.508 L 50 60.008 L 50 52.508 L 36.996 45.008 L 36.996 52.508 Z M 36.996 0.008 L 36.996 7.508 L 50 15.008 L 50 7.508 L 36.996 0.008 Z M 37.055 37.508 L 50 44.975 L 50 37.475 L 37.055 30.009 L 37.055 37.508 Z M 37.055 262.508 L 50 269.975 L 50 262.475 L 37.055 255.008 L 37.055 262.508 Z M 37.055 82.508 L 50 89.975 L 50 82.475 L 37.055 75.009 L 37.055 82.508 Z M 37.055 247.508 L 50 254.975 L 50 247.475 L 37.055 240.008 L 37.055 247.508 Z M 37.055 202.508 L 50 209.975 L 50 202.475 L 37.055 195.008 L 37.055 202.508 Z M 37.055 217.508 L 50 224.975 L 50 217.475 L 37.055 210.008 L 37.055 217.508 Z "/>
      <path id="ID0.9434385211206973" fill="#D88E14" d="M 48.537 299.148 L 50 299.992 L 50 292.492 L 48.537 291.648 L 48.537 299.148 Z M 48.537 314.148 L 50 314.992 L 50 307.492 L 48.537 306.648 L 48.537 314.148 Z M 48.537 254.131 L 50 254.975 L 50 247.475 L 48.537 246.631 L 48.537 254.131 Z M 48.537 224.131 L 50 224.975 L 50 217.475 L 48.537 216.631 L 48.537 224.131 Z M 48.537 239.165 L 50 240.008 L 50 232.508 L 48.537 231.664 L 48.537 239.165 Z M 48.537 344.148 L 50 344.992 L 50 337.492 L 48.537 336.648 L 48.537 344.148 Z M 48.537 269.131 L 50 269.975 L 50 262.475 L 48.537 261.631 L 48.537 269.131 Z M 49.971 142.508 L 48.537 141.681 L 48.537 149.181 L 49.971 150.008 L 49.971 142.508 Z M 49.971 97.508 L 48.537 96.681 L 48.537 104.181 L 49.971 105.008 L 49.971 97.508 Z M 48.537 359.148 L 50 359.992 L 50 352.492 L 48.537 351.648 L 48.537 359.148 Z M 49.971 277.508 L 48.537 276.681 L 48.537 284.181 L 49.971 285.008 L 49.971 277.508 Z M 49.971 322.508 L 48.537 321.681 L 48.537 329.181 L 49.971 330.008 L 49.971 322.508 Z M 48.537 89.131 L 50 89.975 L 50 82.475 L 48.537 81.632 L 48.537 89.131 Z M 48.537 44.131 L 50 44.975 L 50 37.475 L 48.537 36.632 L 48.537 44.131 Z M 48.537 59.165 L 50 60.008 L 50 52.508 L 48.537 51.664 L 48.537 59.165 Z M 48.537 74.131 L 50 74.975 L 50 67.475 L 48.537 66.632 L 48.537 74.131 Z M 48.537 6.665 L 48.537 14.165 L 50 15.008 L 50 7.508 L 48.537 6.665 Z M 48.537 29.131 L 50 29.975 L 50 22.475 L 48.537 21.632 L 48.537 29.131 Z M 48.537 179.148 L 50 179.991 L 50 172.491 L 48.537 171.648 L 48.537 179.148 Z M 48.537 194.165 L 50 195.008 L 50 187.508 L 48.537 186.664 L 48.537 194.165 Z M 48.537 209.131 L 50 209.975 L 50 202.475 L 48.537 201.631 L 48.537 209.131 Z M 48.537 134.148 L 50 134.991 L 50 127.491 L 48.537 126.648 L 48.537 134.148 Z M 48.537 119.148 L 50 119.991 L 50 112.491 L 48.537 111.648 L 48.537 119.148 Z M 48.537 164.148 L 50 164.991 L 50 157.491 L 48.537 156.648 L 48.537 164.148 Z "/>
      <path id="ID0.9201290314085782" fill="#FFF7AB" d="M 37.055 262.508 L 38.459 263.318 L 38.459 255.818 L 37.055 255.008 L 37.055 262.508 Z M 37.055 247.508 L 38.459 248.318 L 38.459 240.818 L 37.055 240.008 L 37.055 247.508 Z M 37.055 217.508 L 38.459 218.318 L 38.459 210.818 L 37.055 210.008 L 37.055 217.508 Z M 36.996 232.508 L 38.459 233.352 L 38.459 225.852 L 36.996 225.008 L 36.996 232.508 Z M 37.055 202.508 L 38.459 203.318 L 38.459 195.818 L 37.055 195.008 L 37.055 202.508 Z M 37.025 292.508 L 38.459 293.334 L 38.459 285.834 L 37.025 285.008 L 37.025 292.508 Z M 36.996 322.525 L 38.459 323.369 L 38.459 315.869 L 36.996 315.025 L 36.996 322.525 Z M 36.996 277.525 L 38.459 278.369 L 38.459 270.869 L 36.996 270.025 L 36.996 277.525 Z M 37.025 337.508 L 38.459 338.334 L 38.459 330.834 L 37.025 330.008 L 37.025 337.508 Z M 36.996 187.508 L 38.459 188.352 L 38.459 180.852 L 36.996 180.009 L 36.996 187.508 Z M 37.025 307.508 L 38.459 308.334 L 38.459 300.834 L 37.025 300.008 L 37.025 307.508 Z M 37.025 352.508 L 38.459 353.334 L 38.459 345.834 L 37.025 345.008 L 37.025 352.508 Z M 36.996 52.508 L 38.459 53.351 L 38.459 45.851 L 36.996 45.008 L 36.996 52.508 Z M 37.055 67.508 L 38.459 68.318 L 38.459 60.818 L 37.055 60.008 L 37.055 67.508 Z M 37.055 37.508 L 38.459 38.318 L 38.459 30.818 L 37.055 30.008 L 37.055 37.508 Z M 37.055 82.508 L 38.459 83.318 L 38.459 75.818 L 37.055 75.008 L 37.055 82.508 Z M 36.996 0.008 L 36.996 7.508 L 38.459 8.351 L 38.459 0.851 L 36.996 0.008 Z M 37.055 22.508 L 38.459 23.318 L 38.459 15.818 L 37.055 15.008 L 37.055 22.508 Z M 37.025 172.508 L 38.459 173.335 L 38.459 165.835 L 37.025 165.008 L 37.025 172.508 Z M 36.996 142.525 L 38.459 143.369 L 38.459 135.869 L 36.996 135.025 L 36.996 142.525 Z M 36.996 97.525 L 38.459 98.369 L 38.459 90.869 L 36.996 90.025 L 36.996 97.525 Z M 37.025 157.508 L 38.459 158.335 L 38.459 150.835 L 37.025 150.008 L 37.025 157.508 Z M 37.025 112.508 L 38.459 113.335 L 38.459 105.835 L 37.025 105.008 L 37.025 112.508 Z M 37.025 127.508 L 38.459 128.335 L 38.459 120.835 L 37.025 120.008 L 37.025 127.508 Z "/>
    </g>
    <g id="ID0.6153192701749504">
      <path id="ID0.015737656969577074" fill="#1D1D1B" d="M 430 0 L 443.004 0 L 443.004 360 L 430 360 L 430 0 Z "/>
      <path id="ID0.863346952944994" fill="#7C7C7B" d="M 430 0 L 431.463 0 L 431.463 360 L 430 360 L 430 0 Z "/>
      <path id="ID0.10556811233982444" fill="#F1BE02" d="M 430 232.508 L 443.004 240.008 L 443.004 232.508 L 430 225.008 L 430 232.508 Z M 442.975 277.508 L 430 270.025 L 430 277.525 L 442.975 285.008 L 442.975 277.508 Z M 430.029 352.508 L 443.004 359.991 L 443.004 352.491 L 430.029 345.008 L 430.029 352.508 Z M 430.029 307.508 L 443.004 314.991 L 443.004 307.491 L 430.029 300.008 L 430.029 307.508 Z M 442.975 142.508 L 430 135.025 L 430 142.525 L 442.975 150.008 L 442.975 142.508 Z M 430.029 337.508 L 443.004 344.991 L 443.004 337.491 L 430.029 330.008 L 430.029 337.508 Z M 430.029 157.508 L 443.004 164.991 L 443.004 157.491 L 430.029 150.008 L 430.029 157.508 Z M 430.029 172.508 L 443.004 179.991 L 443.004 172.491 L 430.029 165.008 L 430.029 172.508 Z M 430 187.508 L 443.004 195.008 L 443.004 187.508 L 430 180.008 L 430 187.508 Z M 442.975 97.508 L 430 90.025 L 430 97.525 L 442.975 105.008 L 442.975 97.508 Z M 430.029 127.508 L 443.004 134.991 L 443.004 127.491 L 430.029 120.008 L 430.029 127.508 Z M 430.029 112.508 L 443.004 119.991 L 443.004 112.491 L 430.029 105.008 L 430.029 112.508 Z M 442.975 322.508 L 430 315.025 L 430 322.525 L 442.975 330.008 L 442.975 322.508 Z M 430.029 292.508 L 443.004 299.991 L 443.004 292.491 L 430.029 285.008 L 430.029 292.508 Z M 430.059 67.508 L 443.004 74.974 L 443.004 67.474 L 430.059 60.008 L 430.059 67.508 Z M 430.059 22.508 L 443.004 29.974 L 443.004 22.474 L 430.059 15.008 L 430.059 22.508 Z M 430 52.508 L 443.004 60.008 L 443.004 52.508 L 430 45.008 L 430 52.508 Z M 430 0.008 L 430 7.508 L 443.004 15.008 L 443.004 7.508 L 430 0.008 Z M 430.059 37.508 L 443.004 44.974 L 443.004 37.474 L 430.059 30.008 L 430.059 37.508 Z M 430.059 262.508 L 443.004 269.975 L 443.004 262.475 L 430.059 255.008 L 430.059 262.508 Z M 430.059 82.508 L 443.004 89.974 L 443.004 82.474 L 430.059 75.008 L 430.059 82.508 Z M 430.059 247.508 L 443.004 254.975 L 443.004 247.475 L 430.059 240.008 L 430.059 247.508 Z M 430.059 202.508 L 443.004 209.975 L 443.004 202.475 L 430.059 195.008 L 430.059 202.508 Z M 430.059 217.508 L 443.004 224.975 L 443.004 217.475 L 430.059 210.008 L 430.059 217.508 Z "/>
      <path id="ID0.5851812567561865" fill="#D88E14" d="M 441.541 299.148 L 443.004 299.992 L 443.004 292.492 L 441.541 291.648 L 441.541 299.148 Z M 441.541 314.148 L 443.004 314.992 L 443.004 307.492 L 441.541 306.648 L 441.541 314.148 Z M 441.541 254.131 L 443.004 254.975 L 443.004 247.475 L 441.541 246.631 L 441.541 254.131 Z M 441.541 224.131 L 443.004 224.975 L 443.004 217.475 L 441.541 216.631 L 441.541 224.131 Z M 441.541 239.165 L 443.004 240.009 L 443.004 232.509 L 441.541 231.665 L 441.541 239.165 Z M 441.541 344.148 L 443.004 344.992 L 443.004 337.492 L 441.541 336.648 L 441.541 344.148 Z M 441.541 269.131 L 443.004 269.975 L 443.004 262.475 L 441.541 261.631 L 441.541 269.131 Z M 442.975 142.508 L 441.541 141.681 L 441.541 149.181 L 442.975 150.008 L 442.975 142.508 Z M 442.975 97.508 L 441.541 96.681 L 441.541 104.181 L 442.975 105.008 L 442.975 97.508 Z M 441.541 359.148 L 443.004 359.992 L 443.004 352.492 L 441.541 351.648 L 441.541 359.148 Z M 442.975 277.508 L 441.541 276.681 L 441.541 284.181 L 442.975 285.008 L 442.975 277.508 Z M 442.975 322.508 L 441.541 321.681 L 441.541 329.181 L 442.975 330.008 L 442.975 322.508 Z M 441.541 89.131 L 443.004 89.974 L 443.004 82.474 L 441.541 81.631 L 441.541 89.131 Z M 441.541 44.131 L 443.004 44.974 L 443.004 37.474 L 441.541 36.631 L 441.541 44.131 Z M 441.541 59.165 L 443.004 60.009 L 443.004 52.509 L 441.541 51.665 L 441.541 59.165 Z M 441.541 74.131 L 443.004 74.974 L 443.004 67.474 L 441.541 66.631 L 441.541 74.131 Z M 441.541 6.665 L 441.541 14.165 L 443.004 15.009 L 443.004 7.509 L 441.541 6.665 Z M 441.541 29.131 L 443.004 29.974 L 443.004 22.474 L 441.541 21.631 L 441.541 29.131 Z M 441.541 179.148 L 443.004 179.991 L 443.004 172.491 L 441.541 171.648 L 441.541 179.148 Z M 441.541 194.165 L 443.004 195.009 L 443.004 187.509 L 441.541 186.665 L 441.541 194.165 Z M 441.541 209.131 L 443.004 209.975 L 443.004 202.475 L 441.541 201.631 L 441.541 209.131 Z M 441.541 134.148 L 443.004 134.991 L 443.004 127.491 L 441.541 126.648 L 441.541 134.148 Z M 441.541 119.148 L 443.004 119.991 L 443.004 112.491 L 441.541 111.648 L 441.541 119.148 Z M 441.541 164.148 L 443.004 164.991 L 443.004 157.491 L 441.541 156.648 L 441.541 164.148 Z "/>
      <path id="ID0.8877825494855642" fill="#FFF7AB" d="M 430.059 262.508 L 431.463 263.318 L 431.463 255.818 L 430.059 255.008 L 430.059 262.508 Z M 430.059 247.508 L 431.463 248.318 L 431.463 240.818 L 430.059 240.008 L 430.059 247.508 Z M 430.059 217.508 L 431.463 218.318 L 431.463 210.818 L 430.059 210.008 L 430.059 217.508 Z M 430 232.508 L 431.463 233.352 L 431.463 225.852 L 430 225.008 L 430 232.508 Z M 430.059 202.508 L 431.463 203.318 L 431.463 195.818 L 430.059 195.008 L 430.059 202.508 Z M 430.029 292.508 L 431.463 293.334 L 431.463 285.834 L 430.029 285.008 L 430.029 292.508 Z M 430 322.525 L 431.463 323.369 L 431.463 315.869 L 430 315.025 L 430 322.525 Z M 430 277.525 L 431.463 278.369 L 431.463 270.869 L 430 270.025 L 430 277.525 Z M 430.029 337.508 L 431.463 338.334 L 431.463 330.834 L 430.029 330.008 L 430.029 337.508 Z M 430 187.508 L 431.463 188.352 L 431.463 180.852 L 430 180.008 L 430 187.508 Z M 430.029 307.508 L 431.463 308.334 L 431.463 300.834 L 430.029 300.008 L 430.029 307.508 Z M 430.029 352.508 L 431.463 353.334 L 431.463 345.834 L 430.029 345.008 L 430.029 352.508 Z M 430 52.508 L 431.463 53.351 L 431.463 45.851 L 430 45.008 L 430 52.508 Z M 430.059 67.508 L 431.463 68.318 L 431.463 60.818 L 430.059 60.008 L 430.059 67.508 Z M 430.059 37.508 L 431.463 38.318 L 431.463 30.818 L 430.059 30.008 L 430.059 37.508 Z M 430.059 82.508 L 431.463 83.318 L 431.463 75.818 L 430.059 75.008 L 430.059 82.508 Z M 430 0.008 L 430 7.508 L 431.463 8.351 L 431.463 0.851 L 430 0.008 Z M 430.059 22.508 L 431.463 23.318 L 431.463 15.818 L 430.059 15.008 L 430.059 22.508 Z M 430.029 172.508 L 431.463 173.335 L 431.463 165.835 L 430.029 165.008 L 430.029 172.508 Z M 430 142.525 L 431.463 143.369 L 431.463 135.869 L 430 135.025 L 430 142.525 Z M 430 97.525 L 431.463 98.369 L 431.463 90.869 L 430 90.025 L 430 97.525 Z M 430.029 157.508 L 431.463 158.335 L 431.463 150.835 L 430.029 150.008 L 430.029 157.508 Z M 430.029 112.508 L 431.463 113.335 L 431.463 105.835 L 430.029 105.008 L 430.029 112.508 Z M 430.029 127.508 L 431.463 128.335 L 431.463 120.835 L 430.029 120.008 L 430.029 127.508 Z "/>
    </g>
  </g>
</svg>