<?xml version="1.0" encoding="utf-8"?>
<!-- Generator: Adobe Illustrator 16.0.0, SVG Export Plug-In . SVG Version: 6.00 Build 0)  -->
<!DOCTYPE svg PUBLIC "-//W3C//DTD SVG 1.1//EN" "http://www.w3.org/Graphics/SVG/1.1/DTD/svg11.dtd" [
	<!ENTITY ns_flows "http://ns.adobe.com/Flows/1.0/">
	<!ENTITY ns_extend "http://ns.adobe.com/Extensibility/1.0/">
	<!ENTITY ns_ai "http://ns.adobe.com/AdobeIllustrator/10.0/">
	<!ENTITY ns_graphs "http://ns.adobe.com/Graphs/1.0/">
]>
<svg version="1.1" id="écran_1" xmlns:x="&ns_extend;" xmlns:i="&ns_ai;" xmlns:graph="&ns_graphs;"
	 xmlns="http://www.w3.org/2000/svg" xmlns:xlink="http://www.w3.org/1999/xlink" xmlns:a="http://ns.adobe.com/AdobeSVGViewerExtensions/3.0/"
	 x="0px" y="0px" width="480px" height="360px" viewBox="0 0 480 360" enable-background="new 0 0 480 360" xml:space="preserve">
<g>
	<rect fill="#303A8F" width="480" height="360"/>
	<rect x="28.917" fill="#242968" width="8.079" height="360"/>
	<g>
		<polyline fill="#CCCBCB" points="430,360 50,360 50,0 430,0 430,360 		"/>
		<polyline fill="#B8B8B8" points="430,360 50,360 50,324 430,324 430,360 		"/>
		<polyline fill="#E4DCDE" points="430,326 50,326 50,324 430,324 430,326 		"/>
		<polyline fill="#F3F3F3" points="430,326 50,326 50,326.5 430,326.5 430,326 		"/>
		<polyline fill="#7C7E7D" points="430,358 50,358 50,360 430,360 430,358 		"/>
		<polyline fill="#E4DCDE" points="430,358 50,358 50,357.5 430,357.5 430,358 		"/>
		<polyline fill="#CCCBCB" points="430,324 50,324 50,288 430,288 430,324 		"/>
		<polyline fill="#EEE6E8" points="430,290 50,290 50,288 430,288 430,290 		"/>
		<polyline fill="#FEFEFE" points="430,290 50,290 50,290.5 430,290.5 430,290 		"/>
		<polyline fill="#878888" points="430,322 50,322 50,324 430,324 430,322 		"/>
		<polyline fill="#EEE6E8" points="430,322 50,322 50,321.5 430,321.5 430,322 		"/>
		<polyline fill="#B8B8B8" points="430,288 50,288 50,252 430,252 430,288 		"/>
		<polyline fill="#E4DCDE" points="430,254 50,254 50,252 430,252 430,254 		"/>
		<polyline fill="#F3F3F3" points="430,254 50,254 50,254.5 430,254.5 430,254 		"/>
		<polyline fill="#7C7E7D" points="430,286 50,286 50,288 430,288 430,286 		"/>
		<polyline fill="#E4DCDE" points="430,286 50,286 50,285.5 430,285.5 430,286 		"/>
		<polyline fill="#CCCBCB" points="430,252 50,252 50,216 430,216 430,252 		"/>
		<polyline fill="#EEE6E8" points="430,218 50,218 50,216 430,216 430,218 		"/>
		<polyline fill="#FEFEFE" points="430,218 50,218 50,218.5 430,218.5 430,218 		"/>
		<polyline fill="#878888" points="430,250 50,250 50,252 430,252 430,250 		"/>
		<polyline fill="#EEE6E8" points="430,250 50,250 50,249.5 430,249.5 430,250 		"/>
		<polyline fill="#B8B8B8" points="430,216 50,216 50,180 430,180 430,216 		"/>
		<polyline fill="#E4DCDE" points="430,182 50,182 50,180 430,180 430,182 		"/>
		<polyline fill="#F3F3F3" points="430,182 50,182 50,182.5 430,182.5 430,182 		"/>
		<polyline fill="#7C7E7D" points="430,214 50,214 50,216 430,216 430,214 		"/>
		<polyline fill="#E4DCDE" points="430,214 50,214 50,213.5 430,213.5 430,214 		"/>
		<polyline fill="#CCCBCB" points="430,180 50,180 50,144 430,144 430,180 		"/>
		<polyline fill="#EEE6E8" points="430,146 50,146 50,144 430,144 430,146 		"/>
		<polyline fill="#FEFEFE" points="430,146 50,146 50,146.5 430,146.5 430,146 		"/>
		<polyline fill="#878888" points="430,178 50,178 50,180 430,180 430,178 		"/>
		<polyline fill="#EEE6E8" points="430,178 50,178 50,177.5 430,177.5 430,178 		"/>
		<polyline fill="#B8B8B8" points="430,144 50,144 50,108 430,108 430,144 		"/>
		<polyline fill="#E4DCDE" points="430,110 50,110 50,108 430,108 430,110 		"/>
		<polyline fill="#F3F3F3" points="430,110 50,110 50,110.5 430,110.5 430,110 		"/>
		<polyline fill="#7C7E7D" points="430,142 50,142 50,144 430,144 430,142 		"/>
		<polyline fill="#E4DCDE" points="430,142 50,142 50,141.5 430,141.5 430,142 		"/>
		<polyline fill="#CCCBCB" points="430,108 50,108 50,72 430,72 430,108 		"/>
		<polyline fill="#EEE6E8" points="430,74 50,74 50,72 430,72 430,74 		"/>
		<polyline fill="#FEFEFE" points="430,74 50,74 50,74.5 430,74.5 430,74 		"/>
		<polyline fill="#878888" points="430,106 50,106 50,108 430,108 430,106 		"/>
		<polyline fill="#EEE6E8" points="430,106 50,106 50,105.5 430,105.5 430,106 		"/>
		<polyline fill="#B8B8B8" points="430,72 50,72 50,36 430,36 430,72 		"/>
		<polyline fill="#E4DCDE" points="430,38 50,38 50,36 430,36 430,38 		"/>
		<polyline fill="#F3F3F3" points="430,38 50,38 50,38.5 430,38.5 430,38 		"/>
		<polyline fill="#7C7E7D" points="430,70 50,70 50,72 430,72 430,70 		"/>
		<polyline fill="#E4DCDE" points="430,70 50,70 50,69.5 430,69.5 430,70 		"/>
		<polyline fill="#CCCBCB" points="430,36 50,36 50,0 430,0 430,36 		"/>
		<polyline fill="#EEE6E8" points="430,2 50,2 50,0 430,0 430,2 		"/>
		<polyline fill="#FEFEFE" points="430,2 50,2 50,2.5 430,2.5 430,2 		"/>
		<polyline fill="#878888" points="430,34 50,34 50,36 430,36 430,34 		"/>
		<polyline fill="#EEE6E8" points="430,34 50,34 50,33.5 430,33.5 430,34 		"/>
		<polyline fill="#BFB8B9" points="58.078,0 50,0 50,2 58.078,2 58.078,0 		"/>
		<polyline fill="#A4A5A4" points="58.078,2.5 50,2.5 50,33.5 58.078,33.5 58.078,2.5 		"/>
		<polyline fill="#CBCBCB" points="58.078,2 50,2 50,2.5 58.078,2.5 58.078,2 		"/>
		<polyline fill="#949594" points="58.078,38.5 50,38.5 50,69.5 58.078,69.5 58.078,38.5 		"/>
		<polyline fill="#B7B1B2" points="58.078,36 50,36 50,38 58.078,38 58.078,36 		"/>
		<polyline fill="#C2C2C3" points="58.078,38 50,38 50,38.5 58.078,38.5 58.078,38 		"/>
		<polyline fill="#949594" points="58.078,326.5 50,326.5 50,357.5 58.078,357.5 58.078,326.5 		"/>
		<polyline fill="#B7B1B2" points="58.078,324 50,324 50,326 58.078,326 58.078,324 		"/>
		<polyline fill="#C2C2C3" points="58.078,326 50,326 50,326.5 58.078,326.5 58.078,326 		"/>
		<polyline fill="#656766" points="58.078,358 50,358 50,360 58.078,360 58.078,358 		"/>
		<polyline fill="#B7B1B2" points="58.078,357.5 50,357.5 50,358 58.078,358 58.078,357.5 		"/>
		<polyline fill="#A4A5A4" points="58.078,290.5 50,290.5 50,321.5 58.078,321.5 58.078,290.5 		"/>
		<polyline fill="#BFB8B9" points="58.078,288 50,288 50,290 58.078,290 58.078,288 		"/>
		<polyline fill="#CBCBCB" points="58.078,290 50,290 50,290.5 58.078,290.5 58.078,290 		"/>
		<polyline fill="#6D6F6E" points="58.078,322 50,322 50,324 58.078,324 58.078,322 		"/>
		<polyline fill="#BFB8B9" points="58.078,321.5 50,321.5 50,322 58.078,322 58.078,321.5 		"/>
		<polyline fill="#949594" points="58.078,254.5 50,254.5 50,285.5 58.078,285.5 58.078,254.5 		"/>
		<polyline fill="#B7B1B2" points="58.078,252 50,252 50,254 58.078,254 58.078,252 		"/>
		<polyline fill="#C2C2C3" points="58.078,254 50,254 50,254.5 58.078,254.5 58.078,254 		"/>
		<polyline fill="#656766" points="58.078,286 50,286 50,288 58.078,288 58.078,286 		"/>
		<polyline fill="#B7B1B2" points="58.078,285.5 50,285.5 50,286 58.078,286 58.078,285.5 		"/>
		<polyline fill="#A4A5A4" points="58.078,218.5 50,218.5 50,249.5 58.078,249.5 58.078,218.5 		"/>
		<polyline fill="#BFB8B9" points="58.078,216 50,216 50,218 58.078,218 58.078,216 		"/>
		<polyline fill="#CBCBCB" points="58.078,218 50,218 50,218.5 58.078,218.5 58.078,218 		"/>
		<polyline fill="#6D6F6E" points="58.078,250 50,250 50,252 58.078,252 58.078,250 		"/>
		<polyline fill="#BFB8B9" points="58.078,249.5 50,249.5 50,250 58.078,250 58.078,249.5 		"/>
		<polyline fill="#949594" points="58.078,182.5 50,182.5 50,213.5 58.078,213.5 58.078,182.5 		"/>
		<polyline fill="#B7B1B2" points="58.078,180 50,180 50,182 58.078,182 58.078,180 		"/>
		<polyline fill="#C2C2C3" points="58.078,182 50,182 50,182.5 58.078,182.5 58.078,182 		"/>
		<polyline fill="#656766" points="58.078,214 50,214 50,216 58.078,216 58.078,214 		"/>
		<polyline fill="#B7B1B2" points="58.078,213.5 50,213.5 50,214 58.078,214 58.078,213.5 		"/>
		<polyline fill="#A4A5A4" points="58.078,146.5 50,146.5 50,177.5 58.078,177.5 58.078,146.5 		"/>
		<polyline fill="#BFB8B9" points="58.078,144 50,144 50,146 58.078,146 58.078,144 		"/>
		<polyline fill="#CBCBCB" points="58.078,146 50,146 50,146.5 58.078,146.5 58.078,146 		"/>
		<polyline fill="#6D6F6E" points="58.078,178 50,178 50,180 58.078,180 58.078,178 		"/>
		<polyline fill="#BFB8B9" points="58.078,177.5 50,177.5 50,178 58.078,178 58.078,177.5 		"/>
		<polyline fill="#949594" points="58.078,110.5 50,110.5 50,141.5 58.078,141.5 58.078,110.5 		"/>
		<polyline fill="#B7B1B2" points="58.078,108 50,108 50,110 58.078,110 58.078,108 		"/>
		<polyline fill="#C2C2C3" points="58.078,110 50,110 50,110.5 58.078,110.5 58.078,110 		"/>
		<polyline fill="#656766" points="58.078,142 50,142 50,144 58.078,144 58.078,142 		"/>
		<polyline fill="#B7B1B2" points="58.078,141.5 50,141.5 50,142 58.078,142 58.078,141.5 		"/>
		<polyline fill="#A4A5A4" points="58.078,74.5 50,74.5 50,105.5 58.078,105.5 58.078,74.5 		"/>
		<polyline fill="#BFB8B9" points="58.078,72 50,72 50,74 58.078,74 58.078,72 		"/>
		<polyline fill="#CBCBCB" points="58.078,74 50,74 50,74.5 58.078,74.5 58.078,74 		"/>
		<polyline fill="#6D6F6E" points="58.078,106 50,106 50,108 58.078,108 58.078,106 		"/>
		<polyline fill="#BFB8B9" points="58.078,105.5 50,105.5 50,106 58.078,106 58.078,105.5 		"/>
		<polyline fill="#656766" points="58.078,70 50,70 50,72 58.078,72 58.078,70 		"/>
		<polyline fill="#B7B1B2" points="58.078,69.5 50,69.5 50,70 58.078,70 58.078,69.5 		"/>
		<polyline fill="#6D6F6E" points="58.078,34 50,34 50,36 58.078,36 58.078,34 		"/>
		<polyline fill="#BFB8B9" points="58.078,33.5 50,33.5 50,34 58.078,34 58.078,33.5 		"/>
		<polyline fill="#949594" points="430,326.5 425.38,326.5 425.38,357.5 430,357.5 430,326.5 		"/>
		<polyline fill="#B7B1B2" points="430,324 425.38,324 425.38,326 430,326 430,324 		"/>
		<polyline fill="#C2C2C3" points="430,326 430,326 425.38,326 425.38,326.5 430,326.5 430,326 		"/>
		<polyline fill="#656766" points="430,358 425.38,358 425.38,360 430,360 430,358 		"/>
		<polyline fill="#B7B1B2" points="430,357.5 430,357.5 425.38,357.5 425.38,358 430,358 430,357.5 		"/>
		<polyline fill="#A4A5A4" points="430,290.5 425.38,290.5 425.38,321.5 430,321.5 430,290.5 		"/>
		<polyline fill="#BFB8B9" points="430,288 425.38,288 425.38,290 430,290 430,288 		"/>
		<polyline fill="#CBCBCB" points="430,290 430,290 425.38,290 425.38,290.5 430,290.5 430,290 		"/>
		<polyline fill="#6D6F6E" points="430,322 425.38,322 425.38,324 430,324 430,322 		"/>
		<polyline fill="#BFB8B9" points="430,321.5 430,321.5 425.38,321.5 425.38,322 430,322 430,321.5 		"/>
		<polyline fill="#949594" points="430,254.5 425.38,254.5 425.38,285.5 430,285.5 430,254.5 		"/>
		<polyline fill="#B7B1B2" points="430,252 425.38,252 425.38,254 430,254 430,252 		"/>
		<polyline fill="#C2C2C3" points="430,254 430,254 425.38,254 425.38,254.5 430,254.5 430,254 		"/>
		<polyline fill="#656766" points="430,286 425.38,286 425.38,288 430,288 430,286 		"/>
		<polyline fill="#B7B1B2" points="430,285.5 430,285.5 425.38,285.5 425.38,286 430,286 430,285.5 		"/>
		<polyline fill="#A4A5A4" points="430,218.5 425.38,218.5 425.38,249.5 430,249.5 430,218.5 		"/>
		<polyline fill="#BFB8B9" points="430,216 425.38,216 425.38,218 430,218 430,216 		"/>
		<polyline fill="#CBCBCB" points="430,218 430,218 425.38,218 425.38,218.5 430,218.5 430,218 		"/>
		<polyline fill="#6D6F6E" points="430,250 425.38,250 425.38,252 430,252 430,250 		"/>
		<polyline fill="#BFB8B9" points="430,249.5 430,249.5 425.38,249.5 425.38,250 430,250 430,249.5 		"/>
		<polyline fill="#949594" points="430,182.5 425.38,182.5 425.38,213.5 430,213.5 430,182.5 		"/>
		<polyline fill="#B7B1B2" points="430,180 425.38,180 425.38,182 430,182 430,180 		"/>
		<polyline fill="#C2C2C3" points="430,182 430,182 425.38,182 425.38,182.5 430,182.5 430,182 		"/>
		<polyline fill="#656766" points="430,214 425.38,214 425.38,216 430,216 430,214 		"/>
		<polyline fill="#B7B1B2" points="430,213.5 430,213.5 425.38,213.5 425.38,214 430,214 430,213.5 		"/>
		<polyline fill="#A4A5A4" points="430,146.5 425.38,146.5 425.38,177.5 430,177.5 430,146.5 		"/>
		<polyline fill="#BFB8B9" points="430,144 425.38,144 425.38,146 430,146 430,144 		"/>
		<polyline fill="#CBCBCB" points="430,146 430,146 425.38,146 425.38,146.5 430,146.5 430,146 		"/>
		<polyline fill="#6D6F6E" points="430,178 425.38,178 425.38,180 430,180 430,178 		"/>
		<polyline fill="#BFB8B9" points="430,177.5 430,177.5 425.38,177.5 425.38,178 430,178 430,177.5 		"/>
		<polyline fill="#949594" points="430,110.5 425.38,110.5 425.38,141.5 430,141.5 430,110.5 		"/>
		<polyline fill="#B7B1B2" points="430,108 425.38,108 425.38,110 430,110 430,108 		"/>
		<polyline fill="#C2C2C3" points="430,110 430,110 425.38,110 425.38,110.5 430,110.5 430,110 		"/>
		<polyline fill="#656766" points="430,142 425.38,142 425.38,144 430,144 430,142 		"/>
		<polyline fill="#B7B1B2" points="430,141.5 430,141.5 425.38,141.5 425.38,142 430,142 430,141.5 		"/>
		<polyline fill="#A4A5A4" points="430,74.5 425.38,74.5 425.38,105.5 430,105.5 430,74.5 		"/>
		<polyline fill="#BFB8B9" points="430,72 425.38,72 425.38,74 430,74 430,72 		"/>
		<polyline fill="#CBCBCB" points="430,74 430,74 425.38,74 425.38,74.5 430,74.5 430,74 		"/>
		<polyline fill="#6D6F6E" points="430,106 425.38,106 425.38,108 430,108 430,106 		"/>
		<polyline fill="#BFB8B9" points="430,105.5 430,105.5 425.38,105.5 425.38,106 430,106 430,105.5 		"/>
		<polyline fill="#949594" points="430,38.5 425.38,38.5 425.38,69.5 430,69.5 430,38.5 		"/>
		<polyline fill="#B7B1B2" points="430,36 425.38,36 425.38,38 430,38 430,36 		"/>
		<polyline fill="#C2C2C3" points="430,38 430,38 425.38,38 425.38,38.5 430,38.5 430,38 		"/>
		<polyline fill="#656766" points="430,70 425.38,70 425.38,72 430,72 430,70 		"/>
		<polyline fill="#B7B1B2" points="430,69.5 430,69.5 425.38,69.5 425.38,70 430,70 430,69.5 		"/>
		<polyline fill="#A4A5A4" points="430,2.5 425.38,2.5 425.38,33.5 430,33.5 430,2.5 		"/>
		<polyline fill="#BFB8B9" points="430,0 425.38,0 425.38,2 430,2 430,0 		"/>
		<polyline fill="#CBCBCB" points="430,2 430,2 425.38,2 425.38,2.5 430,2.5 430,2 		"/>
		<polyline fill="#6D6F6E" points="430,34 425.38,34 425.38,36 430,36 430,34 		"/>
		<polyline fill="#BFB8B9" points="430,33.5 430,33.5 425.38,33.5 425.38,34 430,34 430,33.5 		"/>
	</g>
	<rect x="443.004" fill="#242968" width="14.709" height="360"/>
	<g>
		<rect x="36.996" fill="#1D1D1B" width="13.004" height="360"/>
		<rect x="36.996" fill="#7C7C7B" width="1.463" height="360"/>
		<path fill="#F1BE02" d="M36.996,232.508l13.004,7.5v-7.5l-13.004-7.5V232.508z M49.971,277.508l-12.975-7.483v7.5l12.975,7.483
			V277.508z M37.025,352.508L50,359.992v-7.5l-12.975-7.483V352.508z M37.025,307.508L50,314.992v-7.5l-12.975-7.483V307.508z
			 M49.971,142.508l-12.975-7.483v7.5l12.975,7.483V142.508z M37.025,337.508L50,344.992v-7.5l-12.975-7.483V337.508z
			 M37.025,157.508L50,164.991v-7.5l-12.975-7.483V157.508z M37.025,172.508L50,179.991v-7.5l-12.975-7.483V172.508z
			 M36.996,187.508l13.004,7.5v-7.5l-13.004-7.5V187.508z M49.971,97.508l-12.975-7.483v7.5l12.975,7.483V97.508z M37.025,127.508
			L50,134.991v-7.5l-12.975-7.483V127.508z M37.025,112.508L50,119.991v-7.5l-12.975-7.483V112.508z M49.971,322.508l-12.975-7.483
			v7.5l12.975,7.483V322.508z M37.025,292.508L50,299.992v-7.5l-12.975-7.483V292.508z M37.055,67.508L50,74.975v-7.5l-12.945-7.466
			V67.508z M37.055,22.508L50,29.975v-7.5l-12.945-7.466V22.508z M36.996,52.508L50,60.008v-7.5l-13.004-7.5V52.508z M36.996,0.008
			v7.5L50,15.008v-7.5L36.996,0.008z M37.055,37.508L50,44.975v-7.5l-12.945-7.466V37.508z M37.055,262.508L50,269.975v-7.5
			l-12.945-7.467V262.508z M37.055,82.508L50,89.975v-7.5l-12.945-7.466V82.508z M37.055,247.508L50,254.975v-7.5l-12.945-7.467
			V247.508z M37.055,202.508L50,209.975v-7.5l-12.945-7.467V202.508z M37.055,217.508L50,224.975v-7.5l-12.945-7.467V217.508z"/>
		<path fill="#D88E14" d="M48.537,299.148L50,299.992v-7.5l-1.463-0.844V299.148z M48.537,314.148L50,314.992v-7.5l-1.463-0.844
			V314.148z M48.537,254.131L50,254.975v-7.5l-1.463-0.844V254.131z M48.537,224.131L50,224.975v-7.5l-1.463-0.844V224.131z
			 M48.537,239.165L50,240.008v-7.5l-1.463-0.844V239.165z M48.537,344.148L50,344.992v-7.5l-1.463-0.844V344.148z M48.537,269.131
			L50,269.975v-7.5l-1.463-0.844V269.131z M49.971,142.508l-1.434-0.827v7.5l1.434,0.827V142.508z M49.971,97.508l-1.434-0.827v7.5
			l1.434,0.827V97.508z M48.537,359.148L50,359.992v-7.5l-1.463-0.844V359.148z M49.971,277.508l-1.434-0.827v7.5l1.434,0.827
			V277.508z M49.971,322.508l-1.434-0.827v7.5l1.434,0.827V322.508z M48.537,89.131L50,89.975v-7.5l-1.463-0.843V89.131z
			 M48.537,44.131L50,44.975v-7.5l-1.463-0.843V44.131z M48.537,59.165L50,60.008v-7.5l-1.463-0.844V59.165z M48.537,74.131
			L50,74.975v-7.5l-1.463-0.843V74.131z M48.537,6.665v7.5L50,15.008v-7.5L48.537,6.665z M48.537,29.131L50,29.975v-7.5
			l-1.463-0.843V29.131z M48.537,179.148L50,179.991v-7.5l-1.463-0.843V179.148z M48.537,194.165L50,195.008v-7.5l-1.463-0.844
			V194.165z M48.537,209.131L50,209.975v-7.5l-1.463-0.844V209.131z M48.537,134.148L50,134.991v-7.5l-1.463-0.843V134.148z
			 M48.537,119.148L50,119.991v-7.5l-1.463-0.843V119.148z M48.537,164.148L50,164.991v-7.5l-1.463-0.843V164.148z"/>
		<path fill="#FFF7AB" d="M37.055,262.508l1.404,0.81v-7.5l-1.404-0.81V262.508z M37.055,247.508l1.404,0.81v-7.5l-1.404-0.81
			V247.508z M37.055,217.508l1.404,0.81v-7.5l-1.404-0.81V217.508z M36.996,232.508l1.463,0.844v-7.5l-1.463-0.844V232.508z
			 M37.055,202.508l1.404,0.81v-7.5l-1.404-0.81V202.508z M37.025,292.508l1.434,0.826v-7.5l-1.434-0.826V292.508z M36.996,322.525
			l1.463,0.844v-7.5l-1.463-0.844V322.525z M36.996,277.525l1.463,0.844v-7.5l-1.463-0.844V277.525z M37.025,337.508l1.434,0.826
			v-7.5l-1.434-0.826V337.508z M36.996,187.508l1.463,0.844v-7.5l-1.463-0.843V187.508z M37.025,307.508l1.434,0.826v-7.5
			l-1.434-0.826V307.508z M37.025,352.508l1.434,0.826v-7.5l-1.434-0.826V352.508z M36.996,52.508l1.463,0.843v-7.5l-1.463-0.843
			V52.508z M37.055,67.508l1.404,0.81v-7.5l-1.404-0.81V67.508z M37.055,37.508l1.404,0.81v-7.5l-1.404-0.81V37.508z M37.055,82.508
			l1.404,0.81v-7.5l-1.404-0.81V82.508z M36.996,0.008v7.5l1.463,0.843v-7.5L36.996,0.008z M37.055,22.508l1.404,0.81v-7.5
			l-1.404-0.81V22.508z M37.025,172.508l1.434,0.827v-7.5l-1.434-0.827V172.508z M36.996,142.525l1.463,0.844v-7.5l-1.463-0.844
			V142.525z M36.996,97.525l1.463,0.844v-7.5l-1.463-0.844V97.525z M37.025,157.508l1.434,0.827v-7.5l-1.434-0.827V157.508z
			 M37.025,112.508l1.434,0.827v-7.5l-1.434-0.827V112.508z M37.025,127.508l1.434,0.827v-7.5l-1.434-0.827V127.508z"/>
	</g>
	<g>
		<rect x="430" fill="#1D1D1B" width="13.004" height="360"/>
		<rect x="430" fill="#7C7C7B" width="1.463" height="360"/>
		<path fill="#F1BE02" d="M430,232.508l13.004,7.5v-7.5l-13.004-7.5V232.508z M442.975,277.508L430,270.025v7.5l12.975,7.483
			V277.508z M430.029,352.508l12.975,7.483v-7.5l-12.975-7.483V352.508z M430.029,307.508l12.975,7.483v-7.5l-12.975-7.483V307.508z
			 M442.975,142.508L430,135.025v7.5l12.975,7.483V142.508z M430.029,337.508l12.975,7.483v-7.5l-12.975-7.483V337.508z
			 M430.029,157.508l12.975,7.483v-7.5l-12.975-7.483V157.508z M430.029,172.508l12.975,7.483v-7.5l-12.975-7.483V172.508z
			 M430,187.508l13.004,7.5v-7.5l-13.004-7.5V187.508z M442.975,97.508L430,90.025v7.5l12.975,7.483V97.508z M430.029,127.508
			l12.975,7.483v-7.5l-12.975-7.483V127.508z M430.029,112.508l12.975,7.483v-7.5l-12.975-7.483V112.508z M442.975,322.508
			L430,315.025v7.5l12.975,7.483V322.508z M430.029,292.508l12.975,7.483v-7.5l-12.975-7.483V292.508z M430.059,67.508l12.945,7.466
			v-7.5l-12.945-7.466V67.508z M430.059,22.508l12.945,7.466v-7.5l-12.945-7.466V22.508z M430,52.508l13.004,7.5v-7.5L430,45.008
			V52.508z M430,0.008v7.5l13.004,7.5v-7.5L430,0.008z M430.059,37.508l12.945,7.466v-7.5l-12.945-7.466V37.508z M430.059,262.508
			l12.945,7.467v-7.5l-12.945-7.467V262.508z M430.059,82.508l12.945,7.466v-7.5l-12.945-7.466V82.508z M430.059,247.508
			l12.945,7.467v-7.5l-12.945-7.467V247.508z M430.059,202.508l12.945,7.467v-7.5l-12.945-7.467V202.508z M430.059,217.508
			l12.945,7.467v-7.5l-12.945-7.467V217.508z"/>
		<path fill="#D88E14" d="M441.541,299.148l1.463,0.844v-7.5l-1.463-0.844V299.148z M441.541,314.148l1.463,0.844v-7.5l-1.463-0.844
			V314.148z M441.541,254.131l1.463,0.844v-7.5l-1.463-0.844V254.131z M441.541,224.131l1.463,0.844v-7.5l-1.463-0.844V224.131z
			 M441.541,239.165l1.463,0.844v-7.5l-1.463-0.844V239.165z M441.541,344.148l1.463,0.844v-7.5l-1.463-0.844V344.148z
			 M441.541,269.131l1.463,0.844v-7.5l-1.463-0.844V269.131z M442.975,142.508l-1.434-0.827v7.5l1.434,0.827V142.508z
			 M442.975,97.508l-1.434-0.827v7.5l1.434,0.827V97.508z M441.541,359.148l1.463,0.844v-7.5l-1.463-0.844V359.148z
			 M442.975,277.508l-1.434-0.827v7.5l1.434,0.827V277.508z M442.975,322.508l-1.434-0.827v7.5l1.434,0.827V322.508z
			 M441.541,89.131l1.463,0.843v-7.5l-1.463-0.843V89.131z M441.541,44.131l1.463,0.843v-7.5l-1.463-0.843V44.131z M441.541,59.165
			l1.463,0.844v-7.5l-1.463-0.844V59.165z M441.541,74.131l1.463,0.843v-7.5l-1.463-0.843V74.131z M441.541,6.665v7.5l1.463,0.844
			v-7.5L441.541,6.665z M441.541,29.131l1.463,0.843v-7.5l-1.463-0.843V29.131z M441.541,179.148l1.463,0.843v-7.5l-1.463-0.843
			V179.148z M441.541,194.165l1.463,0.844v-7.5l-1.463-0.844V194.165z M441.541,209.131l1.463,0.844v-7.5l-1.463-0.844V209.131z
			 M441.541,134.148l1.463,0.843v-7.5l-1.463-0.843V134.148z M441.541,119.148l1.463,0.843v-7.5l-1.463-0.843V119.148z
			 M441.541,164.148l1.463,0.843v-7.5l-1.463-0.843V164.148z"/>
		<path fill="#FFF7AB" d="M430.059,262.508l1.404,0.81v-7.5l-1.404-0.81V262.508z M430.059,247.508l1.404,0.81v-7.5l-1.404-0.81
			V247.508z M430.059,217.508l1.404,0.81v-7.5l-1.404-0.81V217.508z M430,232.508l1.463,0.844v-7.5L430,225.008V232.508z
			 M430.059,202.508l1.404,0.81v-7.5l-1.404-0.81V202.508z M430.029,292.508l1.434,0.826v-7.5l-1.434-0.826V292.508z M430,322.525
			l1.463,0.844v-7.5L430,315.025V322.525z M430,277.525l1.463,0.844v-7.5L430,270.025V277.525z M430.029,337.508l1.434,0.826v-7.5
			l-1.434-0.826V337.508z M430,187.508l1.463,0.844v-7.5L430,180.008V187.508z M430.029,307.508l1.434,0.826v-7.5l-1.434-0.826
			V307.508z M430.029,352.508l1.434,0.826v-7.5l-1.434-0.826V352.508z M430,52.508l1.463,0.843v-7.5L430,45.008V52.508z
			 M430.059,67.508l1.404,0.81v-7.5l-1.404-0.81V67.508z M430.059,37.508l1.404,0.81v-7.5l-1.404-0.81V37.508z M430.059,82.508
			l1.404,0.81v-7.5l-1.404-0.81V82.508z M430,0.008v7.5l1.463,0.843v-7.5L430,0.008z M430.059,22.508l1.404,0.81v-7.5l-1.404-0.81
			V22.508z M430.029,172.508l1.434,0.827v-7.5l-1.434-0.827V172.508z M430,142.525l1.463,0.844v-7.5L430,135.025V142.525z
			 M430,97.525l1.463,0.844v-7.5L430,90.025V97.525z M430.029,157.508l1.434,0.827v-7.5l-1.434-0.827V157.508z M430.029,112.508
			l1.434,0.827v-7.5l-1.434-0.827V112.508z M430.029,127.508l1.434,0.827v-7.5l-1.434-0.827V127.508z"/>
	</g>
</g>
</svg>
