<?xml version="1.0" encoding="utf-8"?>
<!-- Generator: Adobe Illustrator 16.0.0, SVG Export Plug-In . SVG Version: 6.00 Build 0)  -->
<!DOCTYPE svg PUBLIC "-//W3C//DTD SVG 1.1//EN" "http://www.w3.org/Graphics/SVG/1.1/DTD/svg11.dtd" [
	<!ENTITY ns_flows "http://ns.adobe.com/Flows/1.0/">
	<!ENTITY ns_extend "http://ns.adobe.com/Extensibility/1.0/">
	<!ENTITY ns_ai "http://ns.adobe.com/AdobeIllustrator/10.0/">
	<!ENTITY ns_graphs "http://ns.adobe.com/Graphs/1.0/">
]>
<svg version="1.1" id="écran_fin" xmlns:x="&ns_extend;" xmlns:i="&ns_ai;" xmlns:graph="&ns_graphs;"
	 xmlns="http://www.w3.org/2000/svg" xmlns:xlink="http://www.w3.org/1999/xlink" xmlns:a="http://ns.adobe.com/AdobeSVGViewerExtensions/3.0/"
	 x="0px" y="0px" width="480px" height="360px" viewBox="0 0 480 360" enable-background="new 0 0 480 360" xml:space="preserve">
<g>
	<linearGradient id="SVGID_1_" gradientUnits="userSpaceOnUse" x1="240" y1="355.5562" x2="240" y2="4.0257">
		<stop  offset="0.5705" style="stop-color:#303A8F"/>
		<stop  offset="0.8066" style="stop-color:#007AC2"/>
		<stop  offset="1" style="stop-color:#2C195F"/>
		<a:midPointStop  offset="0.5705" style="stop-color:#303A8F"/>
		<a:midPointStop  offset="0.5" style="stop-color:#303A8F"/>
		<a:midPointStop  offset="0.8066" style="stop-color:#007AC2"/>
		<a:midPointStop  offset="0.5" style="stop-color:#007AC2"/>
		<a:midPointStop  offset="1" style="stop-color:#2C195F"/>
	</linearGradient>
	<rect fill="url(#SVGID_1_)" width="480" height="360"/>
	<path fill="#242968" d="M457.713,360H28.917V189.634c0-3.24,2.627-5.867,5.868-5.867h417.061c3.24,0,5.867,2.627,5.867,5.867V360z"
		/>
	<g>
		<path fill="#1D1D1B" d="M443.004,360H430V176.895c0-2.057,1.668-3.725,3.725-3.725h5.555c2.057,0,3.725,1.667,3.725,3.725V360z"/>
		<path fill="#7C7C7B" d="M430,176.895V360h1.463V173.954C430.579,174.635,430,175.692,430,176.895z"/>
		<path fill="#F1BE02" d="M430.029,330l12.975,7.483v-7.5l-12.975-7.483V330z M430.029,345l12.975,7.483v-7.5l-12.975-7.483V345z
			 M430.029,285l12.975,7.483v-7.5l-12.975-7.483V285z M430,360h13.004L430,352.5V360z M442.975,270L430,262.517v7.5l12.975,7.482
			V270z M442.975,315L430,307.517v7.5l12.975,7.482V315z M430.029,300l12.975,7.483v-7.5l-12.975-7.483V300z M430.059,255
			l12.945,7.467v-7.5l-12.945-7.467V255z M430.059,195l12.945,7.467v-7.5l-12.945-7.467V195z M431.963,173.632
			c-1.163,0.63-1.963,1.847-1.963,3.263V180l13.004,7.5V180L431.963,173.632z M430.059,210l12.945,7.467v-7.5l-12.945-7.467V210z
			 M430,225l13.004,7.5V225L430,217.5V225z M430.059,240l12.945,7.467v-7.5l-12.945-7.467V240z"/>
		<path fill="#D88E14" d="M441.513,276.657l1.462,0.843V270l-1.462-0.843V276.657z M441.513,291.623l1.462,0.844v-7.5l-1.462-0.844
			V291.623z M441.513,246.606l1.462,0.844v-7.5l-1.462-0.844V246.606z M441.513,261.606l1.462,0.844v-7.5l-1.462-0.844V261.606z
			 M441.513,336.623l1.462,0.844v-7.5l-1.462-0.844V336.623z M441.513,306.623l1.462,0.844v-7.5l-1.462-0.844V306.623z
			 M441.513,321.657l1.462,0.843V315l-1.462-0.843V321.657z M441.513,351.623l1.462,0.844v-7.5l-1.462-0.844V351.623z
			 M441.513,231.639l1.462,0.844v-7.5l-1.462-0.844V231.639z M441.513,360h1.462v-0.017l-1.462-0.844V360z M441.513,179.14v7.5
			l1.462,0.844v-7.5L441.513,179.14z M441.513,201.606l1.462,0.844v-7.5l-1.462-0.844V201.606z M441.513,216.606l1.462,0.844v-7.5
			l-1.462-0.844V216.606z"/>
		<path fill="#FFF7AB" d="M430.029,300l1.434,0.827v-7.5l-1.434-0.827V300z M430.029,285l1.434,0.827v-7.5l-1.434-0.827V285z
			 M430.059,255l1.404,0.811v-7.5l-1.404-0.811V255z M430.029,345l1.434,0.827v-7.5l-1.434-0.827V345z M430,360h1.463v-6.656
			L430,352.5V360z M430.029,330l1.434,0.827v-7.5l-1.434-0.827V330z M430.059,240l1.404,0.811v-7.5l-1.404-0.811V240z M430,270.017
			l1.463,0.843v-7.5L430,262.517V270.017z M430,225l1.463,0.844v-7.5L430,217.5V225z M430,315.017l1.463,0.843v-7.5L430,307.517
			V315.017z M430.059,195l1.404,0.811v-7.5l-1.404-0.811V195z M430,176.895V180l1.463,0.843v-6.889
			C430.579,174.635,430,175.692,430,176.895z M430.059,210l1.404,0.811v-7.5l-1.404-0.811V210z"/>
	</g>
	<g>
		<polyline fill="#B8B8B8" points="430,342.215 50,342.215 50,306.215 430,306.215 430,342.215 		"/>
		<polyline fill="#E4DCDE" points="430,308.215 50,308.215 50,306.215 430,306.215 430,308.215 		"/>
		<polyline fill="#F3F3F3" points="430,308.215 50,308.215 50,308.715 430,308.715 430,308.215 		"/>
		<polyline fill="#7C7E7D" points="430,340.215 50,340.215 50,342.215 430,342.215 430,340.215 		"/>
		<polyline fill="#E4DCDE" points="430,340.215 50,340.215 50,339.715 430,339.715 430,340.215 		"/>
		<polyline fill="#CCCBCB" points="430,306.215 50,306.215 50,270.214 430,270.214 430,306.215 		"/>
		<polyline fill="#EEE6E8" points="430,272.214 50,272.214 50,270.214 430,270.214 430,272.214 		"/>
		<polyline fill="#FEFEFE" points="430,272.214 50,272.214 50,272.714 430,272.714 430,272.214 		"/>
		<polyline fill="#878888" points="430,304.214 50,304.214 50,306.215 430,306.215 430,304.214 		"/>
		<polyline fill="#EEE6E8" points="430,304.214 50,304.214 50,303.714 430,303.714 430,304.214 		"/>
		<polyline fill="#CCCBCB" points="430,359.785 50,359.785 50,341.785 430,341.785 430,359.785 		"/>
		<polyline fill="#EEE6E8" points="430,343.785 50,343.785 50,341.785 430,341.785 430,343.785 		"/>
		<polyline fill="#FEFEFE" points="430,343.785 50,343.785 50,344.285 430,344.285 430,343.785 		"/>
		<polyline fill="#B8B8B8" points="430,270.214 50,270.214 50,234.215 430,234.215 430,270.214 		"/>
		<polyline fill="#E4DCDE" points="430,236.214 50,236.214 50,234.215 430,234.215 430,236.214 		"/>
		<polyline fill="#F3F3F3" points="430,236.214 50,236.214 50,236.714 430,236.714 430,236.214 		"/>
		<polyline fill="#7C7E7D" points="430,268.215 50,268.215 50,270.214 430,270.214 430,268.215 		"/>
		<polyline fill="#E4DCDE" points="430,268.215 50,268.215 50,267.715 430,267.715 430,268.215 		"/>
		<polyline fill="#CCCBCB" points="430,234.215 50,234.215 50,198.215 430,198.215 430,234.215 		"/>
		<polyline fill="#EEE6E8" points="430,200.215 50,200.215 50,198.215 430,198.215 430,200.215 		"/>
		<polyline fill="#FEFEFE" points="430,200.215 50,200.215 50,200.715 430,200.715 430,200.215 		"/>
		<polyline fill="#878888" points="430,232.215 50,232.215 50,234.215 430,234.215 430,232.215 		"/>
		<polyline fill="#EEE6E8" points="430,232.215 50,232.215 50,231.715 430,231.715 430,232.215 		"/>
		<polyline fill="#B8B8B8" points="430,198.215 50,198.215 50,180.215 430,180.215 430,198.215 		"/>
		<polyline fill="#ABABAB" points="430,187.319 50,187.319 50,180.215 430,180.215 430,187.319 		"/>
		<polyline fill="#919292" points="430,185.054 50,185.054 50,180.215 430,180.215 430,185.054 		"/>
		<polyline fill="#7C7E7D" points="430,183.276 50,183.276 50,180.215 430,180.215 430,183.276 		"/>
		<polyline fill="#656666" points="430,181.763 50,181.763 50,180.215 430,180.215 430,181.763 		"/>
		<polyline fill="#7C7E7D" points="430,196.214 50,196.214 50,198.215 430,198.215 430,196.214 		"/>
		<polyline fill="#E4DCDE" points="430,196.214 50,196.214 50,195.714 430,195.714 430,196.214 		"/>
		<polyline fill="#949594" points="430,308.715 425.38,308.715 425.38,339.715 430,339.715 430,308.715 		"/>
		<polyline fill="#B7B1B2" points="430,306.215 425.38,306.215 425.38,308.215 430,308.215 430,306.215 		"/>
		<polyline fill="#C2C2C3" points="430,308.215 430,308.215 425.38,308.215 425.38,308.715 430,308.715 430,308.215 		"/>
		<polyline fill="#656766" points="430,340.215 425.38,340.215 425.38,341.785 430,341.785 430,340.215 		"/>
		<polyline fill="#B7B1B2" points="430,339.715 430,339.715 425.38,339.715 425.38,340.215 430,340.215 430,339.715 		"/>
		<polyline fill="#A4A5A4" points="430,272.714 425.38,272.714 425.38,303.714 430,303.714 430,272.714 		"/>
		<polyline fill="#BFB8B9" points="430,270.214 425.38,270.214 425.38,272.214 430,272.214 430,270.214 		"/>
		<polyline fill="#CBCBCB" points="430,272.214 430,272.214 425.38,272.214 425.38,272.714 430,272.714 430,272.214 		"/>
		<polyline fill="#6D6F6E" points="430,304.214 425.38,304.214 425.38,306.215 430,306.215 430,304.214 		"/>
		<polyline fill="#BFB8B9" points="430,303.714 430,303.714 425.38,303.714 425.38,304.214 430,304.214 430,303.714 		"/>
		<polyline fill="#A4A5A4" points="430,344.285 425.38,344.285 425.38,359.785 430,359.785 430,344.285 		"/>
		<polyline fill="#BFB8B9" points="430,341.785 430,341.785 425.38,341.785 425.38,343.785 430,343.785 430,341.785 		"/>
		<polyline fill="#CBCBCB" points="430,343.785 430,343.785 425.38,343.785 425.38,344.285 430,344.285 430,343.785 		"/>
		<polyline fill="#949594" points="430,236.714 425.38,236.714 425.38,267.715 430,267.715 430,236.714 		"/>
		<polyline fill="#B7B1B2" points="430,234.215 425.38,234.215 425.38,236.214 430,236.214 430,234.215 		"/>
		<polyline fill="#C2C2C3" points="430,236.214 430,236.214 425.38,236.214 425.38,236.714 430,236.714 430,236.214 		"/>
		<polyline fill="#656766" points="430,268.215 425.38,268.215 425.38,270.214 430,270.214 430,268.215 		"/>
		<polyline fill="#B7B1B2" points="430,267.715 430,267.715 425.38,267.715 425.38,268.215 430,268.215 430,267.715 		"/>
		<polyline fill="#A4A5A4" points="430,200.715 425.38,200.715 425.38,231.715 430,231.715 430,200.715 		"/>
		<polyline fill="#BFB8B9" points="430,198.215 425.38,198.215 425.38,200.215 430,200.215 430,198.215 		"/>
		<polyline fill="#CBCBCB" points="430,200.215 430,200.215 425.38,200.215 425.38,200.715 430,200.715 430,200.215 		"/>
		<polyline fill="#6D6F6E" points="430,232.215 425.38,232.215 425.38,234.215 430,234.215 430,232.215 		"/>
		<polyline fill="#BFB8B9" points="430,231.715 430,231.715 425.38,231.715 425.38,232.215 430,232.215 430,231.715 		"/>
		<polyline fill="#949594" points="430,187.319 425.38,187.319 425.38,195.714 430,195.714 430,187.319 		"/>
		<polyline fill="#8A8B8A" points="430,185.054 425.38,185.054 425.38,187.319 430,187.319 430,185.054 		"/>
		<polyline fill="#757776" points="430,183.276 425.38,183.276 425.38,185.054 430,185.054 430,183.276 		"/>
		<polyline fill="#656766" points="430,181.763 425.38,181.763 425.38,183.276 430,183.276 430,181.763 		"/>
		<polyline fill="#525453" points="430,180.215 425.38,180.215 425.38,181.763 430,181.763 430,180.215 		"/>
		<polyline fill="#949594" points="58.078,187.319 50,187.319 50,195.714 58.078,195.714 58.078,187.319 		"/>
		<polyline fill="#8A8B8A" points="58.078,185.054 50,185.054 50,187.319 58.078,187.319 58.078,185.054 		"/>
		<polyline fill="#757776" points="58.078,183.276 50,183.276 50,185.054 58.078,185.054 58.078,183.276 		"/>
		<polyline fill="#656766" points="58.078,181.763 50,181.763 50,183.276 58.078,183.276 58.078,181.763 		"/>
		<polyline fill="#525453" points="58.078,180.215 50,180.215 50,181.763 58.078,181.763 58.078,180.215 		"/>
		<polyline fill="#949594" points="58.078,236.714 50,236.714 50,267.715 58.078,267.715 58.078,236.714 		"/>
		<polyline fill="#B7B1B2" points="58.078,234.215 50,234.215 50,236.214 58.078,236.214 58.078,234.215 		"/>
		<polyline fill="#C2C2C3" points="58.078,236.214 50,236.214 50,236.714 58.078,236.714 58.078,236.214 		"/>
		<polyline fill="#949594" points="58.078,308.715 50,308.715 50,339.715 58.078,339.715 58.078,308.715 		"/>
		<polyline fill="#B7B1B2" points="58.078,306.215 50,306.215 50,308.215 58.078,308.215 58.078,306.215 		"/>
		<polyline fill="#C2C2C3" points="58.078,308.215 50,308.215 50,308.715 58.078,308.715 58.078,308.215 		"/>
		<polyline fill="#656766" points="58.078,340.215 50,340.215 50,341.785 58.078,341.785 58.078,340.215 		"/>
		<polyline fill="#B7B1B2" points="58.078,339.715 50,339.715 50,340.215 58.078,340.215 58.078,339.715 		"/>
		<polyline fill="#A4A5A4" points="58.078,272.714 50,272.714 50,303.714 58.078,303.714 58.078,272.714 		"/>
		<polyline fill="#BFB8B9" points="58.078,270.214 50,270.214 50,272.214 58.078,272.214 58.078,270.214 		"/>
		<polyline fill="#CBCBCB" points="58.078,272.214 50,272.214 50,272.714 58.078,272.714 58.078,272.214 		"/>
		<polyline fill="#6D6F6E" points="58.078,304.214 50,304.214 50,306.215 58.078,306.215 58.078,304.214 		"/>
		<polyline fill="#BFB8B9" points="58.078,303.714 50,303.714 50,304.214 58.078,304.214 58.078,303.714 		"/>
		<polyline fill="#A4A5A4" points="58.078,344.285 50,344.285 50,359.785 58.078,359.785 58.078,344.285 		"/>
		<polyline fill="#BFB8B9" points="58.078,341.785 50,341.785 50,343.785 58.078,343.785 58.078,341.785 		"/>
		<polyline fill="#CBCBCB" points="58.078,343.785 50,343.785 50,344.285 58.078,344.285 58.078,343.785 		"/>
		<polyline fill="#656766" points="58.078,268.215 50,268.215 50,270.214 58.078,270.214 58.078,268.215 		"/>
		<polyline fill="#B7B1B2" points="58.078,267.715 50,267.715 50,268.215 58.078,268.215 58.078,267.715 		"/>
		<polyline fill="#A4A5A4" points="58.078,200.715 50,200.715 50,231.715 58.078,231.715 58.078,200.715 		"/>
		<polyline fill="#BFB8B9" points="58.078,198.215 50,198.215 50,200.215 58.078,200.215 58.078,198.215 		"/>
		<polyline fill="#CBCBCB" points="58.078,200.215 50,200.215 50,200.715 58.078,200.715 58.078,200.215 		"/>
		<polyline fill="#6D6F6E" points="58.078,232.215 50,232.215 50,234.215 58.078,234.215 58.078,232.215 		"/>
		<polyline fill="#BFB8B9" points="58.078,231.715 50,231.715 50,232.215 58.078,232.215 58.078,231.715 		"/>
		<path fill="#656766" d="M58.078,196.214H50v2.001h8.078V196.214 M430,196.214h-4.62v2.001H430V196.214"/>
		<path fill="#B7B1B2" d="M58.078,195.714H50v0.5h8.078V195.714 M430,195.714L430,195.714h-4.62v0.5H430V195.714"/>
	</g>
	<g>
		<path fill="#1D1D1B" d="M50,360H36.996V176.895c0-2.057,1.668-3.725,3.725-3.725h5.555c2.057,0,3.725,1.667,3.725,3.725V360z"/>
		<path fill="#F1BE02" d="M37.025,300L50,307.483v-7.5L37.025,292.5V300z M37.025,330L50,337.483v-7.5L37.025,322.5V330z
			 M37.025,345L50,352.483v-7.5L37.025,337.5V345z M49.971,270l-12.975-7.482v7.5l12.975,7.482V270z M36.996,360H50l-13.004-7.5V360
			z M49.971,315l-12.975-7.482v7.5l12.975,7.482V315z M37.055,240L50,247.466v-7.5L37.055,232.5V240z M37.055,210L50,217.466v-7.5
			L37.055,202.5V210z M37.055,195L50,202.466v-7.5L37.055,187.5V195z M37.025,285L50,292.483v-7.5L37.025,277.5V285z
			 M38.959,173.632c-1.163,0.63-1.963,1.847-1.963,3.263V180L50,187.5V180L38.959,173.632z M36.996,225L50,232.5V225l-13.004-7.5
			V225z M37.055,255L50,262.466v-7.5L37.055,247.5V255z"/>
		<path fill="#D88E14" d="M48.509,321.657l1.462,0.843V315l-1.462-0.843V321.657z M48.509,306.623l1.462,0.844v-7.5l-1.462-0.844
			V306.623z M48.509,276.657l1.462,0.843V270l-1.462-0.843V276.657z M48.509,291.623l1.462,0.844v-7.5l-1.462-0.844V291.623z
			 M48.509,336.623l1.462,0.844v-7.5l-1.462-0.844V336.623z M48.509,261.606l1.462,0.844v-7.5l-1.462-0.844V261.606z
			 M48.509,351.623l1.462,0.844v-7.5l-1.462-0.844V351.623z M48.509,201.606l1.462,0.844v-7.5l-1.462-0.844V201.606z M48.509,179.14
			v7.5l1.462,0.844v-7.5L48.509,179.14z M48.509,360h1.462v-0.017l-1.462-0.844V360z M48.509,216.606l1.462,0.844v-7.5l-1.462-0.844
			V216.606z M48.509,231.639l1.462,0.844v-7.5l-1.462-0.844V231.639z M48.509,246.606l1.462,0.844v-7.5l-1.462-0.844V246.606z"/>
		<path fill="#FFF7AB" d="M37.025,285l1.434,0.827v-7.5l-1.434-0.827V285z M37.055,255l1.404,0.811v-7.5l-1.404-0.811V255z
			 M37.025,330l1.434,0.827v-7.5l-1.434-0.827V330z M37.025,300l1.434,0.827v-7.5l-1.434-0.827V300z M37.025,345l1.434,0.827v-7.5
			l-1.434-0.827V345z M37.055,240l1.404,0.811v-7.5l-1.404-0.811V240z M36.996,225l1.463,0.844v-7.5l-1.463-0.844V225z
			 M36.996,315.017l1.463,0.843v-7.5l-1.463-0.843V315.017z M36.996,270.017l1.463,0.843v-7.5l-1.463-0.843V270.017z M36.996,360
			h1.463v-6.656l-1.463-0.844V360z M37.055,195l1.404,0.811v-7.5l-1.404-0.811V195z M36.996,176.895V180l1.463,0.843v-6.889
			C37.575,174.635,36.996,175.692,36.996,176.895z M37.055,210l1.404,0.811v-7.5l-1.404-0.811V210z"/>
	</g>
	<g>
		<g>
			<g>
				<g>
					<rect y="150.295" fill="#B7E2FA" width="5.995" height="6.577"/>
					<rect y="143.718" fill="#1D1D1B" width="5.995" height="6.577"/>
				</g>
				<g>
					<rect x="5.995" y="143.718" fill="#B7E2FA" width="5.995" height="6.577"/>
					<rect x="5.995" y="150.295" fill="#1D1D1B" width="5.995" height="6.577"/>
				</g>
			</g>
			<g>
				<g>
					<rect x="11.99" y="150.295" fill="#B7E2FA" width="5.995" height="6.577"/>
					<rect x="11.99" y="143.718" fill="#1D1D1B" width="5.995" height="6.577"/>
				</g>
				<g>
					<rect x="17.985" y="143.718" fill="#B7E2FA" width="5.995" height="6.577"/>
					<rect x="17.985" y="150.295" fill="#1D1D1B" width="5.995" height="6.577"/>
				</g>
			</g>
		</g>
		<g>
			<g>
				<g>
					<rect x="23.98" y="150.295" fill="#B7E2FA" width="5.995" height="6.577"/>
					<rect x="23.98" y="143.718" fill="#1D1D1B" width="5.995" height="6.577"/>
				</g>
				<g>
					<rect x="29.976" y="143.718" fill="#B7E2FA" width="5.995" height="6.577"/>
					<rect x="29.976" y="150.295" fill="#1D1D1B" width="5.995" height="6.577"/>
				</g>
			</g>
			<g>
				<g>
					<rect x="35.971" y="150.295" fill="#B7E2FA" width="5.995" height="6.577"/>
					<rect x="35.971" y="143.718" fill="#1D1D1B" width="5.995" height="6.577"/>
				</g>
				<g>
					<rect x="41.966" y="143.718" fill="#B7E2FA" width="5.995" height="6.577"/>
					<rect x="41.966" y="150.295" fill="#1D1D1B" width="5.995" height="6.577"/>
				</g>
			</g>
		</g>
		<g>
			<g>
				<g>
					<rect x="47.961" y="150.295" fill="#B7E2FA" width="5.995" height="6.577"/>
					<rect x="47.961" y="143.718" fill="#1D1D1B" width="5.995" height="6.577"/>
				</g>
				<g>
					<rect x="53.956" y="143.718" fill="#B7E2FA" width="5.995" height="6.577"/>
					<rect x="53.956" y="150.295" fill="#1D1D1B" width="5.995" height="6.577"/>
				</g>
			</g>
			<g>
				<g>
					<rect x="59.951" y="150.295" fill="#B7E2FA" width="5.995" height="6.577"/>
					<rect x="59.951" y="143.718" fill="#1D1D1B" width="5.995" height="6.577"/>
				</g>
				<g>
					<rect x="65.946" y="143.718" fill="#B7E2FA" width="5.995" height="6.577"/>
					<rect x="65.946" y="150.295" fill="#1D1D1B" width="5.995" height="6.577"/>
				</g>
			</g>
		</g>
		<g>
			<g>
				<g>
					<rect x="71.941" y="150.295" fill="#B7E2FA" width="5.995" height="6.577"/>
					<rect x="71.941" y="143.718" fill="#1D1D1B" width="5.995" height="6.577"/>
				</g>
				<g>
					<rect x="77.937" y="143.718" fill="#B7E2FA" width="5.995" height="6.577"/>
					<rect x="77.937" y="150.295" fill="#1D1D1B" width="5.995" height="6.577"/>
				</g>
			</g>
			<g>
				<g>
					<rect x="83.932" y="150.295" fill="#B7E2FA" width="5.995" height="6.577"/>
					<rect x="83.932" y="143.718" fill="#1D1D1B" width="5.995" height="6.577"/>
				</g>
				<g>
					<rect x="89.927" y="143.718" fill="#B7E2FA" width="5.995" height="6.577"/>
					<rect x="89.927" y="150.295" fill="#1D1D1B" width="5.995" height="6.577"/>
				</g>
			</g>
		</g>
		<g>
			<g>
				<g>
					<rect x="96.052" y="150.295" fill="#B7E2FA" width="5.995" height="6.577"/>
					<rect x="96.052" y="143.718" fill="#1D1D1B" width="5.995" height="6.577"/>
				</g>
				<g>
					<rect x="102.047" y="143.718" fill="#B7E2FA" width="5.995" height="6.577"/>
					<rect x="102.047" y="150.295" fill="#1D1D1B" width="5.995" height="6.577"/>
				</g>
			</g>
			<g>
				<g>
					<rect x="108.042" y="150.295" fill="#B7E2FA" width="5.995" height="6.577"/>
					<rect x="108.042" y="143.718" fill="#1D1D1B" width="5.995" height="6.577"/>
				</g>
				<g>
					<rect x="114.037" y="143.718" fill="#B7E2FA" width="5.995" height="6.577"/>
					<rect x="114.037" y="150.295" fill="#1D1D1B" width="5.995" height="6.577"/>
				</g>
			</g>
		</g>
		<g>
			<g>
				<g>
					<rect x="120.032" y="150.295" fill="#B7E2FA" width="5.995" height="6.577"/>
					<rect x="120.032" y="143.718" fill="#1D1D1B" width="5.995" height="6.577"/>
				</g>
				<g>
					<rect x="126.027" y="143.718" fill="#B7E2FA" width="5.995" height="6.577"/>
					<rect x="126.027" y="150.295" fill="#1D1D1B" width="5.995" height="6.577"/>
				</g>
			</g>
			<g>
				<g>
					<rect x="132.022" y="150.295" fill="#B7E2FA" width="5.995" height="6.577"/>
					<rect x="132.022" y="143.718" fill="#1D1D1B" width="5.995" height="6.577"/>
				</g>
				<g>
					<rect x="138.018" y="143.718" fill="#B7E2FA" width="5.995" height="6.577"/>
					<rect x="138.018" y="150.295" fill="#1D1D1B" width="5.995" height="6.577"/>
				</g>
			</g>
		</g>
		<g>
			<g>
				<g>
					<rect x="144.013" y="150.295" fill="#B7E2FA" width="5.995" height="6.577"/>
					<rect x="144.013" y="143.718" fill="#1D1D1B" width="5.995" height="6.577"/>
				</g>
				<g>
					<rect x="150.008" y="143.718" fill="#B7E2FA" width="5.995" height="6.577"/>
					<rect x="150.008" y="150.295" fill="#1D1D1B" width="5.995" height="6.577"/>
				</g>
			</g>
			<g>
				<g>
					<rect x="156.003" y="150.295" fill="#B7E2FA" width="5.995" height="6.577"/>
					<rect x="156.003" y="143.718" fill="#1D1D1B" width="5.995" height="6.577"/>
				</g>
				<g>
					<rect x="161.998" y="143.718" fill="#B7E2FA" width="5.996" height="6.577"/>
					<rect x="161.998" y="150.295" fill="#1D1D1B" width="5.996" height="6.577"/>
				</g>
			</g>
		</g>
		<g>
			<g>
				<g>
					<rect x="167.994" y="150.295" fill="#B7E2FA" width="5.994" height="6.577"/>
					<rect x="167.994" y="143.718" fill="#1D1D1B" width="5.994" height="6.577"/>
				</g>
				<g>
					<rect x="173.988" y="143.718" fill="#B7E2FA" width="5.996" height="6.577"/>
					<rect x="173.988" y="150.295" fill="#1D1D1B" width="5.996" height="6.577"/>
				</g>
			</g>
			<g>
				<g>
					<rect x="179.984" y="150.295" fill="#B7E2FA" width="5.994" height="6.577"/>
					<rect x="179.984" y="143.718" fill="#1D1D1B" width="5.994" height="6.577"/>
				</g>
				<g>
					<rect x="185.979" y="143.718" fill="#B7E2FA" width="5.996" height="6.577"/>
					<rect x="185.979" y="150.295" fill="#1D1D1B" width="5.996" height="6.577"/>
				</g>
			</g>
		</g>
		<g>
			<g>
				<g>
					<rect x="191.975" y="150.295" fill="#B7E2FA" width="5.994" height="6.577"/>
					<rect x="191.975" y="143.718" fill="#1D1D1B" width="5.994" height="6.577"/>
				</g>
				<g>
					<rect x="197.969" y="143.718" fill="#B7E2FA" width="5.996" height="6.577"/>
					<rect x="197.969" y="150.295" fill="#1D1D1B" width="5.996" height="6.577"/>
				</g>
			</g>
			<g>
				<g>
					<rect x="203.965" y="150.295" fill="#B7E2FA" width="5.995" height="6.577"/>
					<rect x="203.965" y="143.718" fill="#1D1D1B" width="5.995" height="6.577"/>
				</g>
				<g>
					<rect x="209.96" y="143.718" fill="#B7E2FA" width="5.995" height="6.577"/>
					<rect x="209.96" y="150.295" fill="#1D1D1B" width="5.995" height="6.577"/>
				</g>
			</g>
		</g>
		<g>
			<g>
				<g>
					<rect x="215.955" y="150.295" fill="#B7E2FA" width="5.995" height="6.577"/>
					<rect x="215.955" y="143.718" fill="#1D1D1B" width="5.995" height="6.577"/>
				</g>
				<g>
					<rect x="221.95" y="143.718" fill="#B7E2FA" width="5.995" height="6.577"/>
					<rect x="221.95" y="150.295" fill="#1D1D1B" width="5.995" height="6.577"/>
				</g>
			</g>
			<g>
				<g>
					<rect x="227.945" y="150.295" fill="#B7E2FA" width="5.995" height="6.577"/>
					<rect x="227.945" y="143.718" fill="#1D1D1B" width="5.995" height="6.577"/>
				</g>
				<g>
					<rect x="233.94" y="143.718" fill="#B7E2FA" width="5.995" height="6.577"/>
					<rect x="233.94" y="150.295" fill="#1D1D1B" width="5.995" height="6.577"/>
				</g>
			</g>
		</g>
		<g>
			<g>
				<g>
					<rect x="240.064" y="150.295" fill="#B7E2FA" width="5.995" height="6.577"/>
					<rect x="240.064" y="143.718" fill="#1D1D1B" width="5.995" height="6.577"/>
				</g>
				<g>
					<rect x="246.06" y="143.718" fill="#B7E2FA" width="5.995" height="6.577"/>
					<rect x="246.06" y="150.295" fill="#1D1D1B" width="5.995" height="6.577"/>
				</g>
			</g>
			<g>
				<g>
					<rect x="252.055" y="150.295" fill="#B7E2FA" width="5.995" height="6.577"/>
					<rect x="252.055" y="143.718" fill="#1D1D1B" width="5.995" height="6.577"/>
				</g>
				<g>
					<rect x="258.05" y="143.718" fill="#B7E2FA" width="5.995" height="6.577"/>
					<rect x="258.05" y="150.295" fill="#1D1D1B" width="5.995" height="6.577"/>
				</g>
			</g>
		</g>
		<g>
			<g>
				<g>
					<rect x="264.045" y="150.295" fill="#B7E2FA" width="5.996" height="6.577"/>
					<rect x="264.045" y="143.718" fill="#1D1D1B" width="5.996" height="6.577"/>
				</g>
				<g>
					<rect x="270.041" y="143.718" fill="#B7E2FA" width="5.994" height="6.577"/>
					<rect x="270.041" y="150.295" fill="#1D1D1B" width="5.994" height="6.577"/>
				</g>
			</g>
			<g>
				<g>
					<rect x="276.035" y="150.295" fill="#B7E2FA" width="5.996" height="6.577"/>
					<rect x="276.035" y="143.718" fill="#1D1D1B" width="5.996" height="6.577"/>
				</g>
				<g>
					<rect x="282.031" y="143.718" fill="#B7E2FA" width="5.995" height="6.577"/>
					<rect x="282.031" y="150.295" fill="#1D1D1B" width="5.995" height="6.577"/>
				</g>
			</g>
		</g>
		<g>
			<g>
				<g>
					<rect x="288.026" y="150.295" fill="#B7E2FA" width="5.995" height="6.577"/>
					<rect x="288.026" y="143.718" fill="#1D1D1B" width="5.995" height="6.577"/>
				</g>
				<g>
					<rect x="294.021" y="143.718" fill="#B7E2FA" width="5.994" height="6.577"/>
					<rect x="294.021" y="150.295" fill="#1D1D1B" width="5.994" height="6.577"/>
				</g>
			</g>
			<g>
				<g>
					<rect x="300.016" y="150.295" fill="#B7E2FA" width="5.996" height="6.577"/>
					<rect x="300.016" y="143.718" fill="#1D1D1B" width="5.996" height="6.577"/>
				</g>
				<g>
					<rect x="306.012" y="143.718" fill="#B7E2FA" width="5.994" height="6.577"/>
					<rect x="306.012" y="150.295" fill="#1D1D1B" width="5.994" height="6.577"/>
				</g>
			</g>
		</g>
		<g>
			<g>
				<g>
					<rect x="312.006" y="150.295" fill="#B7E2FA" width="5.996" height="6.577"/>
					<rect x="312.006" y="143.718" fill="#1D1D1B" width="5.996" height="6.577"/>
				</g>
				<g>
					<rect x="318.002" y="143.718" fill="#B7E2FA" width="5.995" height="6.577"/>
					<rect x="318.002" y="150.295" fill="#1D1D1B" width="5.995" height="6.577"/>
				</g>
			</g>
			<g>
				<g>
					<rect x="323.997" y="150.295" fill="#B7E2FA" width="5.995" height="6.577"/>
					<rect x="323.997" y="143.718" fill="#1D1D1B" width="5.995" height="6.577"/>
				</g>
				<g>
					<rect x="329.992" y="143.718" fill="#B7E2FA" width="5.995" height="6.577"/>
					<rect x="329.992" y="150.295" fill="#1D1D1B" width="5.995" height="6.577"/>
				</g>
			</g>
		</g>
		<g>
			<g>
				<g>
					<rect x="335.987" y="150.295" fill="#B7E2FA" width="5.995" height="6.577"/>
					<rect x="335.987" y="143.718" fill="#1D1D1B" width="5.995" height="6.577"/>
				</g>
				<g>
					<rect x="341.982" y="143.718" fill="#B7E2FA" width="5.995" height="6.577"/>
					<rect x="341.982" y="150.295" fill="#1D1D1B" width="5.995" height="6.577"/>
				</g>
			</g>
			<g>
				<g>
					<rect x="347.978" y="150.295" fill="#B7E2FA" width="5.995" height="6.577"/>
					<rect x="347.978" y="143.718" fill="#1D1D1B" width="5.995" height="6.577"/>
				</g>
				<g>
					<rect x="353.973" y="143.718" fill="#B7E2FA" width="5.995" height="6.577"/>
					<rect x="353.973" y="150.295" fill="#1D1D1B" width="5.995" height="6.577"/>
				</g>
			</g>
		</g>
		<g>
			<g>
				<g>
					<rect x="359.968" y="150.295" fill="#B7E2FA" width="5.995" height="6.577"/>
					<rect x="359.968" y="143.718" fill="#1D1D1B" width="5.995" height="6.577"/>
				</g>
				<g>
					<rect x="365.963" y="143.718" fill="#B7E2FA" width="5.995" height="6.577"/>
					<rect x="365.963" y="150.295" fill="#1D1D1B" width="5.995" height="6.577"/>
				</g>
			</g>
			<g>
				<g>
					<rect x="371.958" y="150.295" fill="#B7E2FA" width="5.995" height="6.577"/>
					<rect x="371.958" y="143.718" fill="#1D1D1B" width="5.995" height="6.577"/>
				</g>
				<g>
					<rect x="377.953" y="143.718" fill="#B7E2FA" width="5.995" height="6.577"/>
					<rect x="377.953" y="150.295" fill="#1D1D1B" width="5.995" height="6.577"/>
				</g>
			</g>
		</g>
		<g>
			<g>
				<g>
					<rect x="384.077" y="150.295" fill="#B7E2FA" width="5.995" height="6.577"/>
					<rect x="384.077" y="143.718" fill="#1D1D1B" width="5.995" height="6.577"/>
				</g>
				<g>
					<rect x="390.072" y="143.718" fill="#B7E2FA" width="5.996" height="6.577"/>
					<rect x="390.072" y="150.295" fill="#1D1D1B" width="5.996" height="6.577"/>
				</g>
			</g>
			<g>
				<g>
					<rect x="396.068" y="150.295" fill="#B7E2FA" width="5.995" height="6.577"/>
					<rect x="396.068" y="143.718" fill="#1D1D1B" width="5.995" height="6.577"/>
				</g>
				<g>
					<rect x="402.063" y="143.718" fill="#B7E2FA" width="5.995" height="6.577"/>
					<rect x="402.063" y="150.295" fill="#1D1D1B" width="5.995" height="6.577"/>
				</g>
			</g>
		</g>
		<g>
			<g>
				<g>
					<rect x="408.059" y="150.295" fill="#B7E2FA" width="5.995" height="6.577"/>
					<rect x="408.059" y="143.718" fill="#1D1D1B" width="5.995" height="6.577"/>
				</g>
				<g>
					<rect x="414.054" y="143.718" fill="#B7E2FA" width="5.995" height="6.577"/>
					<rect x="414.054" y="150.295" fill="#1D1D1B" width="5.995" height="6.577"/>
				</g>
			</g>
			<g>
				<g>
					<rect x="420.049" y="150.295" fill="#B7E2FA" width="5.995" height="6.577"/>
					<rect x="420.049" y="143.718" fill="#1D1D1B" width="5.995" height="6.577"/>
				</g>
				<g>
					<rect x="426.044" y="143.718" fill="#B7E2FA" width="5.995" height="6.577"/>
					<rect x="426.044" y="150.295" fill="#1D1D1B" width="5.995" height="6.577"/>
				</g>
			</g>
		</g>
		<g>
			<g>
				<g>
					<rect x="432.039" y="150.295" fill="#B7E2FA" width="5.995" height="6.577"/>
					<rect x="432.039" y="143.718" fill="#1D1D1B" width="5.995" height="6.577"/>
				</g>
				<g>
					<rect x="438.034" y="143.718" fill="#B7E2FA" width="5.995" height="6.577"/>
					<rect x="438.034" y="150.295" fill="#1D1D1B" width="5.995" height="6.577"/>
				</g>
			</g>
			<g>
				<g>
					<rect x="444.029" y="150.295" fill="#B7E2FA" width="5.995" height="6.577"/>
					<rect x="444.029" y="143.718" fill="#1D1D1B" width="5.995" height="6.577"/>
				</g>
				<g>
					<rect x="450.024" y="143.718" fill="#B7E2FA" width="5.995" height="6.577"/>
					<rect x="450.024" y="150.295" fill="#1D1D1B" width="5.995" height="6.577"/>
				</g>
			</g>
		</g>
		<g>
			<g>
				<g>
					<rect x="456.02" y="150.295" fill="#B7E2FA" width="5.995" height="6.577"/>
					<rect x="456.02" y="143.718" fill="#1D1D1B" width="5.995" height="6.577"/>
				</g>
				<g>
					<rect x="462.015" y="143.718" fill="#B7E2FA" width="5.995" height="6.577"/>
					<rect x="462.015" y="150.295" fill="#1D1D1B" width="5.995" height="6.577"/>
				</g>
			</g>
			<g>
				<g>
					<rect x="468.01" y="150.295" fill="#B7E2FA" width="5.995" height="6.577"/>
					<rect x="468.01" y="143.718" fill="#1D1D1B" width="5.995" height="6.577"/>
				</g>
				<g>
					<rect x="474.005" y="143.718" fill="#B7E2FA" width="5.995" height="6.577"/>
					<rect x="474.005" y="150.295" fill="#1D1D1B" width="5.995" height="6.577"/>
				</g>
			</g>
		</g>
	</g>
	<g>
		<polygon fill="#57C4F2" points="126.802,57.468 124.528,57.719 123.445,59.734 122.505,57.648 120.254,57.242 121.945,55.703 
			121.638,53.436 123.624,54.57 125.685,53.576 125.22,55.816 		"/>
		<polygon fill="#57C4F2" points="145.683,72.059 148.737,73.54 151.689,71.862 151.226,75.225 153.732,77.514 150.391,78.112 
			148.988,81.204 147.387,78.21 144.014,77.832 146.365,75.384 		"/>
		<polygon fill="#57C4F2" points="357.322,37.981 353.46,38.227 351.473,41.549 350.045,37.951 346.271,37.088 349.252,34.618 
			348.906,30.763 352.177,32.834 355.737,31.314 354.777,35.064 		"/>
		<polygon fill="#57C4F2" points="322.797,76.991 324.798,76.335 325.392,74.315 326.634,76.016 328.738,75.957 327.505,77.664 
			328.211,79.647 326.207,79.001 324.539,80.286 324.534,78.18 		"/>
		<polygon fill="#57C4F2" points="301.723,23.184 296.538,21.426 292.15,24.7 292.221,19.226 287.751,16.065 292.979,14.44 
			294.604,9.213 297.765,13.683 303.238,13.613 299.965,18 		"/>
		<polygon fill="#57C4F2" points="434.895,25.875 436.51,22.42 434.581,19.131 438.365,19.601 440.897,16.75 441.62,20.494 
			445.114,22.021 441.776,23.865 441.404,27.66 438.619,25.056 		"/>
		<polygon fill="#57C4F2" points="231.325,91.339 230.132,90.268 228.573,90.643 229.224,89.178 228.385,87.811 229.979,87.977 
			231.021,86.756 231.355,88.325 232.838,88.938 231.45,89.741 		"/>
		<polygon fill="#57C4F2" points="216.08,20.045 212.886,19.629 210.732,22.024 210.142,18.858 207.198,17.55 210.026,16.01 
			210.36,12.807 212.7,15.021 215.85,14.348 214.467,17.257 		"/>
		<polygon fill="#57C4F2" points="57.232,28.594 58.742,26.985 58.272,24.829 60.27,25.768 62.175,24.655 61.899,26.844 
			63.546,28.312 61.379,28.727 60.492,30.747 59.428,28.813 		"/>
		<polygon fill="#57C4F2" points="57.35,76.542 56.424,75.339 54.908,75.42 55.766,74.167 55.221,72.75 56.677,73.18 57.856,72.223 
			57.898,73.741 59.172,74.567 57.741,75.076 		"/>
		<polygon fill="#57C4F2" points="107.121,20.942 109.402,17.492 107.854,13.656 111.84,14.76 115.01,12.102 115.192,16.234 
			118.699,18.427 114.825,19.877 113.824,23.891 111.247,20.654 		"/>
		<polygon fill="#57C4F2" points="254.62,47.1 255.462,57.042 265.404,57.884 255.462,58.726 254.62,68.668 253.778,58.726 
			243.836,57.884 253.778,57.042 		"/>
		<polygon fill="#57C4F2" points="279.102,48.164 279.39,51.576 282.802,51.864 279.39,52.153 279.102,55.564 278.812,52.153 
			275.401,51.864 278.812,51.576 		"/>
		<polygon fill="#57C4F2" points="381.04,38.781 381.936,49.363 392.519,50.259 381.936,51.155 381.04,61.737 380.144,51.155 
			369.562,50.259 380.144,49.363 		"/>
		<polygon fill="#57C4F2" points="385.454,72.621 385.683,75.315 388.376,75.543 385.683,75.771 385.454,78.464 385.227,75.771 
			382.533,75.543 385.227,75.315 		"/>
		<polygon fill="#57C4F2" points="367.796,82.683 368.397,89.791 375.505,90.392 368.397,90.994 367.796,98.102 367.194,90.994 
			360.086,90.392 367.194,89.791 		"/>
		<polygon fill="#57C4F2" points="252.212,114.147 252.457,117.037 255.347,117.281 252.457,117.526 252.212,120.416 
			251.968,117.526 249.078,117.281 251.968,117.037 		"/>
		<polygon fill="#57C4F2" points="110.542,113.346 110.942,118.084 115.682,118.485 110.942,118.886 110.542,123.625 
			110.141,118.886 105.402,118.485 110.141,118.084 		"/>
		<polygon fill="#57C4F2" points="86.863,73.597 87.484,80.941 94.829,81.563 87.484,82.185 86.863,89.529 86.241,82.185 
			78.896,81.563 86.241,80.941 		"/>
		<polygon fill="#57C4F2" points="35.092,53.871 35.248,55.721 37.098,55.877 35.248,56.034 35.092,57.884 34.935,56.034 
			33.085,55.877 34.935,55.721 		"/>
		<polygon fill="#57C4F2" points="25.459,79.643 26.329,89.923 36.61,90.793 26.329,91.664 25.459,101.944 24.589,91.664 
			14.309,90.793 24.589,89.923 		"/>
		<polygon fill="#57C4F2" points="87.666,24.018 87.834,26.01 89.827,26.179 87.834,26.348 87.666,28.34 87.497,26.348 
			85.505,26.179 87.497,26.01 		"/>
		<polygon fill="#57C4F2" points="176.762,5.197 176.989,7.891 179.684,8.119 176.989,8.347 176.762,11.041 176.533,8.347 
			173.84,8.119 176.533,7.891 		"/>
		<polygon fill="#57C4F2" points="26.262,11.872 26.658,16.552 31.338,16.948 26.658,17.344 26.262,22.025 25.865,17.344 
			21.186,16.948 25.865,16.552 		"/>
		<polygon fill="#0099D7" points="204.257,100.467 200.452,104.448 204.071,108.6 199.108,106.212 196.279,110.937 197.017,105.479 
			191.648,104.248 197.067,103.263 196.579,97.777 199.19,102.625 		"/>
		<polygon fill="#0099D7" points="306.668,75.958 308.262,80.253 312.684,79.057 309.092,81.9 311.596,85.736 307.782,83.198 
			304.907,86.765 306.143,82.354 301.861,80.722 306.439,80.533 		"/>
		<polygon fill="#0099D7" points="419.146,68.08 417.5,66.996 416.271,68.535 416.794,66.636 414.949,65.942 416.918,65.853 
			417.008,63.884 417.701,65.729 419.601,65.206 418.062,66.435 		"/>
		<polygon fill="#0099D7" points="415.207,80.772 419.291,78.155 417.057,73.849 420.809,76.925 424.213,73.469 422.447,77.988 
			426.785,80.158 421.942,79.874 421.219,84.671 419.992,79.978 		"/>
		<polygon fill="#0099D7" points="413.894,22.564 411.295,22.031 410.528,24.57 410.232,21.934 407.58,21.989 409.995,20.893 
			409.123,18.388 410.912,20.346 413.025,18.743 411.716,21.05 		"/>
		<polygon fill="#0099D7" points="374.942,128.039 374.05,127.156 373.089,127.964 373.653,126.842 372.587,126.178 
			373.828,126.368 374.131,125.149 374.334,126.389 375.586,126.299 374.471,126.875 		"/>
		<polygon fill="#0099D7" points="196.816,75.52 193.335,75.88 193.376,79.38 191.958,76.18 188.642,77.301 191.247,74.963 
			189.156,72.156 192.185,73.912 194.209,71.055 193.475,74.478 		"/>
		<polygon fill="#0099D7" points="137.732,115.785 137.252,115.172 136.598,115.596 137.031,114.949 136.427,114.458 
			137.176,114.671 137.456,113.944 137.485,114.722 138.263,114.764 137.532,115.032 		"/>
		<polygon fill="#0099D7" points="77.336,117.098 77.047,113.957 73.893,113.959 76.79,112.713 75.812,109.715 77.894,112.085 
			80.443,110.229 78.832,112.94 81.385,114.792 78.309,114.097 		"/>
		<polygon fill="#0099D7" points="154.363,20.813 154.425,19.378 153.001,19.188 154.385,18.802 154.127,17.389 154.921,18.585 
			156.185,17.904 155.292,19.029 156.331,20.02 154.985,19.519 		"/>
		<polygon fill="#0099D7" points="20.725,66.008 21.851,59.376 15.35,57.651 22.005,56.673 21.637,49.957 24.623,55.984 
			30.897,53.558 26.088,58.261 30.334,63.479 24.375,60.358 		"/>
		<polygon fill="#0099D7" points="467.726,55.388 465.52,51.575 461.521,53.424 464.466,50.147 461.472,46.917 465.498,48.705 
			467.646,44.858 467.188,49.24 471.511,50.094 467.202,51.014 		"/>
		<polygon fill="#0099D7" points="372.316,9.434 368.694,9.112 368.044,12.689 367.23,9.145 363.627,9.631 366.747,7.763 
			365.171,4.486 367.912,6.876 370.541,4.365 369.115,7.709 		"/>
		<polygon fill="#0099D7" points="271.218,23.001 273.055,21.558 271.783,19.597 273.725,20.897 275.196,19.083 274.56,21.331 
			276.74,22.17 274.405,22.258 274.281,24.592 273.476,22.398 		"/>
		<polygon fill="#0099D7" points="213.01,40.07 216.51,43.262 220.008,40.067 218.054,44.382 222.173,46.721 217.465,46.196 
			216.514,50.837 215.558,46.197 210.851,46.727 214.968,44.384 		"/>
		<polygon fill="#0099D7" points="162.68,34.818 159.739,34.355 159.012,37.241 158.543,34.302 155.574,34.501 158.224,33.147 
			157.117,30.385 159.224,32.487 161.509,30.581 160.16,33.234 		"/>
	</g>
	<circle fill="#57C4F2" cx="162.673" cy="101.141" r="1.074"/>
	<circle fill="#57C4F2" cx="155.149" cy="91.441" r="0.615"/>
	<circle fill="#57C4F2" cx="245.807" cy="87.446" r="0.922"/>
	<circle fill="#57C4F2" cx="251.646" cy="95.129" r="0.614"/>
	<circle fill="#57C4F2" cx="291.904" cy="63.68" r="0.512"/>
	<circle fill="#57C4F2" cx="242.631" cy="18.3" r="0.615"/>
	<circle fill="#57C4F2" cx="236.69" cy="24.242" r="0.41"/>
	<circle fill="#57C4F2" cx="159.452" cy="49.236" r="0.82"/>
	<circle fill="#57C4F2" cx="55.169" cy="108.446" r="0.615"/>
	<circle fill="#57C4F2" cx="52.301" cy="116.641" r="1.639"/>
	<circle fill="#57C4F2" cx="43.184" cy="123.709" r="0.512"/>
	<circle fill="#57C4F2" cx="47.282" cy="45.037" r="0.307"/>
	<circle fill="#57C4F2" cx="71.457" cy="17.788" r="0.717"/>
	<circle fill="#57C4F2" cx="79.14" cy="16.046" r="0.41"/>
	<circle fill="#57C4F2" cx="98.398" cy="62.963" r="1.229"/>
	<circle fill="#57C4F2" cx="106.491" cy="56.509" r="0.512"/>
	<circle fill="#57C4F2" cx="350.191" cy="85.294" r="0.819"/>
	<circle fill="#57C4F2" cx="343.225" cy="97.792" r="1.639"/>
	<circle fill="#57C4F2" cx="335.952" cy="106.294" r="0.717"/>
	<circle fill="#57C4F2" cx="340.664" cy="114.08" r="1.946"/>
	<circle fill="#57C4F2" cx="422.512" cy="46.164" r="0.82"/>
	<circle fill="#57C4F2" cx="428.761" cy="44.217" r="0.922"/>
	<circle fill="#57C4F2" cx="413.805" cy="121.66" r="1.126"/>
</g>
</svg>
