<?xml version="1.0" encoding="utf-8"?>
<!-- Generator: Adobe Illustrator 16.0.0, SVG Export Plug-In . SVG Version: 6.00 Build 0)  -->
<!DOCTYPE svg PUBLIC "-//W3C//DTD SVG 1.1//EN" "http://www.w3.org/Graphics/SVG/1.1/DTD/svg11.dtd" [
	<!ENTITY ns_flows "http://ns.adobe.com/Flows/1.0/">
	<!ENTITY ns_extend "http://ns.adobe.com/Extensibility/1.0/">
	<!ENTITY ns_ai "http://ns.adobe.com/AdobeIllustrator/10.0/">
	<!ENTITY ns_graphs "http://ns.adobe.com/Graphs/1.0/">
]>
<svg version="1.1" id="écran_2" xmlns:x="&ns_extend;" xmlns:i="&ns_ai;" xmlns:graph="&ns_graphs;"
	 xmlns="http://www.w3.org/2000/svg" xmlns:xlink="http://www.w3.org/1999/xlink" xmlns:a="http://ns.adobe.com/AdobeSVGViewerExtensions/3.0/"
	 x="0px" y="0px" width="480px" height="360px" viewBox="0 0 480 360" enable-background="new 0 0 480 360" xml:space="preserve">
<g>
	<rect y="0" fill="#303A8F" width="480" height="360"/>
	<rect x="50" y="0" fill="#CCCBCB" width="380" height="360"/>
	<rect x="28.917" y="0" fill="#242968" width="8.079" height="360"/>
	<rect x="443.004" y="0" fill="#242968" width="14.709" height="360"/>
	<g>
		<rect x="430" y="0" fill="#1D1D1B" width="13.004" height="360"/>
		<rect x="430" y="0" fill="#7C7C7B" width="1.463" height="360"/>
		<path fill="#F1BE02" d="M442.975,270L430,262.516v7.5l12.975,7.483V270z M430.029,285l12.975,7.483v-7.5l-12.975-7.483V285z
			 M430,360h13.004L430,352.5V360z M442.975,315L430,307.516v7.5l12.975,7.483V315z M430.059,255l12.945,7.467v-7.5l-12.945-7.467
			V255z M430.029,300l12.975,7.483v-7.5l-12.975-7.483V300z M430.059,30l12.945,7.467v-7.5L430.059,22.5V30z M430.059,15
			l12.945,7.467v-7.5L430.059,7.5V15z M430,0l13.004,7.5V0H430z M430.029,330l12.975,7.483v-7.5l-12.975-7.483V330z M430,45
			l13.004,7.5V45L430,37.5V45z M430.029,345l12.975,7.483v-7.5l-12.975-7.483V345z M430.059,240l12.945,7.467v-7.5l-12.945-7.467
			V240z M430.059,210l12.945,7.467v-7.5l-12.945-7.467V210z M442.975,135L430,127.517v7.5l12.975,7.483V135z M430,225l13.004,7.5
			V225L430,217.5V225z M430.059,60l12.945,7.467v-7.5L430.059,52.5V60z M442.975,90L430,82.517v7.5l12.975,7.483V90z M430.059,75
			l12.945,7.467v-7.5L430.059,67.5V75z M430.059,195l12.945,7.467v-7.5l-12.945-7.467V195z M430,180l13.004,7.5V180L430,172.5V180z
			 M430.029,165l12.975,7.483v-7.5l-12.975-7.483V165z M430.029,150l12.975,7.483v-7.5l-12.975-7.483V150z M430.029,120
			l12.975,7.483v-7.5l-12.975-7.483V120z M430.029,105l12.975,7.483v-7.5L430.029,97.5V105z"/>
		<path fill="#D88E14" d="M441.513,276.656l1.462,0.844V270l-1.462-0.844V276.656z M441.513,261.606l1.462,0.843v-7.5l-1.462-0.843
			V261.606z M441.513,291.623l1.462,0.844v-7.5l-1.462-0.844V291.623z M441.513,216.606l1.462,0.843v-7.499l-1.462-0.844V216.606z
			 M441.513,231.639l1.462,0.844v-7.5l-1.462-0.844V231.639z M441.513,246.606l1.462,0.843v-7.5l-1.462-0.843V246.606z
			 M441.513,351.623l1.462,0.844v-7.5l-1.462-0.844V351.623z M441.513,201.606l1.462,0.844v-7.5l-1.462-0.844V201.606z M441.513,0
			v6.64l1.462,0.843V0H441.513z M441.513,321.656l1.462,0.844V315l-1.462-0.844V321.656z M441.513,306.623l1.462,0.844v-7.5
			l-1.462-0.844V306.623z M441.513,336.623l1.462,0.844v-7.5l-1.462-0.844V336.623z M441.513,66.606l1.462,0.843v-7.5l-1.462-0.843
			V66.606z M441.513,51.64l1.462,0.843v-7.5l-1.462-0.843V51.64z M441.513,81.606l1.462,0.843v-7.5l-1.462-0.843V81.606z
			 M441.513,96.656l1.462,0.843V90l-1.462-0.843V96.656z M441.513,36.606l1.462,0.843v-7.5l-1.462-0.843V36.606z M441.513,21.606
			l1.462,0.843v-7.5l-1.462-0.843V21.606z M441.513,186.639l1.462,0.844v-7.5l-1.462-0.843V186.639z M441.513,360h1.462v-0.017
			l-1.462-0.844V360z M441.513,111.623l1.462,0.844v-7.5l-1.462-0.844V111.623z M441.513,171.623l1.462,0.844v-7.5l-1.462-0.844
			V171.623z M441.513,156.623l1.462,0.844v-7.5l-1.462-0.844V156.623z M441.513,126.623l1.462,0.844v-7.5l-1.462-0.844V126.623z
			 M441.513,141.656l1.462,0.843V135l-1.462-0.843V141.656z"/>
		<path fill="#FFF7AB" d="M430.029,285l1.434,0.827v-7.5l-1.434-0.827V285z M430.029,330l1.434,0.827v-7.5l-1.434-0.827V330z
			 M430.059,255l1.404,0.811v-7.5l-1.404-0.811V255z M430,225l1.463,0.844v-7.5L430,217.5V225z M430.059,240l1.404,0.811v-7.5
			l-1.404-0.811V240z M430,90.017l1.463,0.843v-7.5L430,82.517V90.017z M430,135.017l1.463,0.843v-7.5L430,127.517V135.017z
			 M430.059,210l1.404,0.811v-7.5l-1.404-0.811V210z M430,0l1.463,0.844V0H430z M430,270.016l1.463,0.844v-7.5L430,262.516V270.016z
			 M430.029,345l1.434,0.827v-7.5l-1.434-0.827V345z M430,315.016l1.463,0.844v-7.5L430,307.516V315.016z M430.029,300l1.434,0.827
			v-7.5l-1.434-0.827V300z M430,45l1.463,0.844v-7.5L430,37.5V45z M430.059,60l1.404,0.81v-7.5l-1.404-0.81V60z M430.059,30
			l1.404,0.81v-7.5l-1.404-0.81V30z M430,360h1.463v-6.656L430,352.5V360z M430.059,75l1.404,0.81v-7.5l-1.404-0.81V75z M430.059,15
			l1.404,0.81v-7.5l-1.404-0.81V15z M430.059,195l1.404,0.811v-7.5l-1.404-0.811V195z M430,180l1.463,0.844v-7.5L430,172.5V180z
			 M430.029,165l1.434,0.827v-7.5l-1.434-0.827V165z M430.029,150l1.434,0.827v-7.5l-1.434-0.827V150z M430.029,120l1.434,0.827
			v-7.5l-1.434-0.827V120z M430.029,105l1.434,0.827v-7.5l-1.434-0.827V105z"/>
	</g>
	<g>
		<polyline fill="#B8B8B8" points="430.228,342.409 49.772,342.409 49.772,306.366 430.228,306.366 430.228,342.409 		"/>
		<polyline fill="#E4DCDE" points="430.228,308.369 49.772,308.369 49.772,306.366 430.228,306.366 430.228,308.369 		"/>
		<polyline fill="#F3F3F3" points="430.228,308.369 49.772,308.369 49.772,308.869 430.228,308.869 430.228,308.369 		"/>
		<polyline fill="#7C7E7D" points="430.228,340.406 49.772,340.406 49.772,342.409 430.228,342.409 430.228,340.406 		"/>
		<polyline fill="#E4DCDE" points="430.228,340.406 49.772,340.406 49.772,339.906 430.228,339.906 430.228,340.406 		"/>
		<polyline fill="#CCCBCB" points="430.228,306.366 49.772,306.366 49.772,270.323 430.228,270.323 430.228,306.366 		"/>
		<polyline fill="#EEE6E8" points="430.228,272.325 49.772,272.325 49.772,270.323 430.228,270.323 430.228,272.325 		"/>
		<polyline fill="#FEFEFE" points="430.228,272.325 49.772,272.325 49.772,272.826 430.228,272.826 430.228,272.325 		"/>
		<polyline fill="#878888" points="430.228,304.363 49.772,304.363 49.772,306.366 430.228,306.366 430.228,304.363 		"/>
		<polyline fill="#EEE6E8" points="430.228,304.363 49.772,304.363 49.772,303.863 430.228,303.863 430.228,304.363 		"/>
		<polyline fill="#CCCBCB" points="430.228,360 49.772,360 49.772,341.978 430.228,341.978 430.228,360 		"/>
		<polyline fill="#EEE6E8" points="430.228,343.981 49.772,343.981 49.772,341.978 430.228,341.978 430.228,343.981 		"/>
		<polyline fill="#FEFEFE" points="430.228,343.981 49.772,343.981 49.772,344.481 430.228,344.481 430.228,343.981 		"/>
		<polyline fill="#B8B8B8" points="430.228,270.323 49.772,270.323 49.772,234.28 430.228,234.28 430.228,270.323 		"/>
		<polyline fill="#E4DCDE" points="430.228,236.282 49.772,236.282 49.772,234.28 430.228,234.28 430.228,236.282 		"/>
		<polyline fill="#F3F3F3" points="430.228,236.282 49.772,236.282 49.772,236.783 430.228,236.783 430.228,236.282 		"/>
		<polyline fill="#7C7E7D" points="430.228,268.321 49.772,268.321 49.772,270.323 430.228,270.323 430.228,268.321 		"/>
		<polyline fill="#E4DCDE" points="430.228,268.321 49.772,268.321 49.772,267.82 430.228,267.82 430.228,268.321 		"/>
		<polyline fill="#CCCBCB" points="430.228,234.28 49.772,234.28 49.772,198.237 430.228,198.237 430.228,234.28 		"/>
		<polyline fill="#EEE6E8" points="430.228,200.239 49.772,200.239 49.772,198.237 430.228,198.237 430.228,200.239 		"/>
		<polyline fill="#FEFEFE" points="430.228,200.239 49.772,200.239 49.772,200.74 430.228,200.74 430.228,200.239 		"/>
		<polyline fill="#878888" points="430.228,232.278 49.772,232.278 49.772,234.28 430.228,234.28 430.228,232.278 		"/>
		<polyline fill="#EEE6E8" points="430.228,232.278 49.772,232.278 49.772,231.776 430.228,231.776 430.228,232.278 		"/>
		<polyline fill="#B8B8B8" points="430.228,198.237 49.772,198.237 49.772,162.193 430.228,162.193 430.228,198.237 		"/>
		<polyline fill="#E4DCDE" points="430.228,164.196 49.772,164.196 49.772,162.193 430.228,162.193 430.228,164.196 		"/>
		<polyline fill="#F3F3F3" points="430.228,164.196 49.772,164.196 49.772,164.697 430.228,164.697 430.228,164.196 		"/>
		<polyline fill="#7C7E7D" points="430.228,196.234 49.772,196.234 49.772,198.237 430.228,198.237 430.228,196.234 		"/>
		<polyline fill="#E4DCDE" points="430.228,196.234 49.772,196.234 49.772,195.734 430.228,195.734 430.228,196.234 		"/>
		<polyline fill="#CCCBCB" points="430.228,162.193 49.772,162.193 49.772,126.15 430.228,126.15 430.228,162.193 		"/>
		<polyline fill="#EEE6E8" points="430.228,128.153 49.772,128.153 49.772,126.15 430.228,126.15 430.228,128.153 		"/>
		<polyline fill="#FEFEFE" points="430.228,128.153 49.772,128.153 49.772,128.654 430.228,128.654 430.228,128.153 		"/>
		<polyline fill="#878888" points="430.228,160.191 49.772,160.191 49.772,162.193 430.228,162.193 430.228,160.191 		"/>
		<polyline fill="#EEE6E8" points="430.228,160.191 49.772,160.191 49.772,159.69 430.228,159.69 430.228,160.191 		"/>
		<polyline fill="#B8B8B8" points="430.228,126.15 49.772,126.15 49.772,90.107 430.228,90.107 430.228,126.15 		"/>
		<polyline fill="#E4DCDE" points="430.228,92.11 49.772,92.11 49.772,90.107 430.228,90.107 430.228,92.11 		"/>
		<polyline fill="#F3F3F3" points="430.228,92.11 49.772,92.11 49.772,92.61 430.228,92.61 430.228,92.11 		"/>
		<polyline fill="#7C7E7D" points="430.228,124.148 49.772,124.148 49.772,126.15 430.228,126.15 430.228,124.148 		"/>
		<polyline fill="#E4DCDE" points="430.228,124.148 49.772,124.148 49.772,123.647 430.228,123.647 430.228,124.148 		"/>
		<polyline fill="#CCCBCB" points="430.228,90.107 49.772,90.107 49.772,54.064 430.228,54.064 430.228,90.107 		"/>
		<polyline fill="#EEE6E8" points="430.228,56.067 49.772,56.067 49.772,54.064 430.228,54.064 430.228,56.067 		"/>
		<polyline fill="#FEFEFE" points="430.228,56.067 49.772,56.067 49.772,56.567 430.228,56.567 430.228,56.067 		"/>
		<polyline fill="#878888" points="430.228,88.105 49.772,88.105 49.772,90.107 430.228,90.107 430.228,88.105 		"/>
		<polyline fill="#EEE6E8" points="430.228,88.105 49.772,88.105 49.772,87.604 430.228,87.604 430.228,88.105 		"/>
		<polyline fill="#B8B8B8" points="430.228,54.064 49.772,54.064 49.772,18.021 430.228,18.021 430.228,54.064 		"/>
		<polyline fill="#E4DCDE" points="430.228,20.024 49.772,20.024 49.772,18.021 430.228,18.021 430.228,20.024 		"/>
		<polyline fill="#F3F3F3" points="430.228,20.024 49.772,20.024 49.772,20.524 430.228,20.524 430.228,20.024 		"/>
		<polyline fill="#7C7E7D" points="430.228,52.062 49.772,52.062 49.772,54.064 430.228,54.064 430.228,52.062 		"/>
		<polyline fill="#E4DCDE" points="430.228,52.062 49.772,52.062 49.772,51.561 430.228,51.561 430.228,52.062 		"/>
		<polyline fill="#CCCBCB" points="430.228,18.021 49.772,18.021 49.772,0 430.228,0 430.228,18.021 		"/>
		<polyline fill="#878888" points="430.228,16.019 49.772,16.019 49.772,18.021 430.228,18.021 430.228,16.019 		"/>
		<polyline fill="#EEE6E8" points="430.228,16.019 49.772,16.019 49.772,15.518 430.228,15.518 430.228,16.019 		"/>
		<polyline fill="#A4A5A4" points="58.079,0 50,0 50,15.518 58.079,15.518 58.079,0 		"/>
		<polyline fill="#949594" points="58.079,20.524 50,20.524 50,51.561 58.079,51.561 58.079,20.524 		"/>
		<polyline fill="#949594" points="58.079,92.61 50,92.61 50,123.647 58.079,123.647 58.079,92.61 		"/>
		<polyline fill="#B7B1B2" points="58.079,90.107 50,90.107 50,92.11 58.079,92.11 58.079,90.107 		"/>
		<polyline fill="#C2C2C3" points="58.079,92.11 50,92.11 50,92.61 58.079,92.61 58.079,92.11 		"/>
		<polyline fill="#949594" points="58.079,308.869 50,308.869 50,339.906 58.079,339.906 58.079,308.869 		"/>
		<polyline fill="#B7B1B2" points="58.079,306.366 50,306.366 50,308.369 58.079,308.369 58.079,306.366 		"/>
		<polyline fill="#C2C2C3" points="58.079,308.369 50,308.369 50,308.869 58.079,308.869 58.079,308.369 		"/>
		<polyline fill="#656766" points="58.079,340.406 50,340.406 50,341.978 58.079,341.978 58.079,340.406 		"/>
		<polyline fill="#B7B1B2" points="58.079,339.906 50,339.906 50,340.406 58.079,340.406 58.079,339.906 		"/>
		<polyline fill="#A4A5A4" points="58.079,272.826 50,272.826 50,303.863 58.079,303.863 58.079,272.826 		"/>
		<polyline fill="#BFB8B9" points="58.079,270.323 50,270.323 50,272.325 58.079,272.325 58.079,270.323 		"/>
		<polyline fill="#CBCBCB" points="58.079,272.325 50,272.325 50,272.826 58.079,272.826 58.079,272.325 		"/>
		<polyline fill="#6D6F6E" points="58.079,304.363 50,304.363 50,306.366 58.079,306.366 58.079,304.363 		"/>
		<polyline fill="#BFB8B9" points="58.079,303.863 50,303.863 50,304.363 58.079,304.363 58.079,303.863 		"/>
		<polyline fill="#A4A5A4" points="58.079,344.481 50,344.481 50,360 58.079,360 58.079,344.481 		"/>
		<polyline fill="#BFB8B9" points="58.079,341.978 50,341.978 50,343.981 58.079,343.981 58.079,341.978 		"/>
		<polyline fill="#CBCBCB" points="58.079,343.981 50,343.981 50,344.481 58.079,344.481 58.079,343.981 		"/>
		<polyline fill="#949594" points="58.079,236.783 50,236.783 50,267.82 58.079,267.82 58.079,236.783 		"/>
		<polyline fill="#B7B1B2" points="58.079,234.28 50,234.28 50,236.282 58.079,236.282 58.079,234.28 		"/>
		<polyline fill="#C2C2C3" points="58.079,236.282 50,236.282 50,236.783 58.079,236.783 58.079,236.282 		"/>
		<polyline fill="#656766" points="58.079,268.321 50,268.321 50,270.323 58.079,270.323 58.079,268.321 		"/>
		<polyline fill="#B7B1B2" points="58.079,267.82 50,267.82 50,268.321 58.079,268.321 58.079,267.82 		"/>
		<polyline fill="#A4A5A4" points="58.079,200.74 50,200.74 50,231.776 58.079,231.776 58.079,200.74 		"/>
		<polyline fill="#BFB8B9" points="58.079,198.237 50,198.237 50,200.239 58.079,200.239 58.079,198.237 		"/>
		<polyline fill="#CBCBCB" points="58.079,200.239 50,200.239 50,200.74 58.079,200.74 58.079,200.239 		"/>
		<polyline fill="#6D6F6E" points="58.079,232.278 50,232.278 50,234.28 58.079,234.28 58.079,232.278 		"/>
		<polyline fill="#BFB8B9" points="58.079,231.776 50,231.776 50,232.278 58.079,232.278 58.079,231.776 		"/>
		<polyline fill="#949594" points="58.079,164.697 50,164.697 50,195.734 58.079,195.734 58.079,164.697 		"/>
		<polyline fill="#B7B1B2" points="58.079,162.193 50,162.193 50,164.196 58.079,164.196 58.079,162.193 		"/>
		<polyline fill="#C2C2C3" points="58.079,164.196 50,164.196 50,164.697 58.079,164.697 58.079,164.196 		"/>
		<polyline fill="#656766" points="58.079,196.234 50,196.234 50,198.237 58.079,198.237 58.079,196.234 		"/>
		<polyline fill="#B7B1B2" points="58.079,195.734 50,195.734 50,196.234 58.079,196.234 58.079,195.734 		"/>
		<polyline fill="#A4A5A4" points="58.079,128.654 50,128.654 50,159.69 58.079,159.69 58.079,128.654 		"/>
		<polyline fill="#BFB8B9" points="58.079,126.15 50,126.15 50,128.153 58.079,128.153 58.079,126.15 		"/>
		<polyline fill="#CBCBCB" points="58.079,128.153 50,128.153 50,128.654 58.079,128.654 58.079,128.153 		"/>
		<polyline fill="#6D6F6E" points="58.079,160.191 50,160.191 50,162.193 58.079,162.193 58.079,160.191 		"/>
		<polyline fill="#BFB8B9" points="58.079,159.69 50,159.69 50,160.191 58.079,160.191 58.079,159.69 		"/>
		<polyline fill="#656766" points="58.079,124.148 50,124.148 50,126.15 58.079,126.15 58.079,124.148 		"/>
		<polyline fill="#B7B1B2" points="58.079,123.647 50,123.647 50,124.148 58.079,124.148 58.079,123.647 		"/>
		<polyline fill="#A4A5A4" points="58.079,56.567 50,56.567 50,87.604 58.079,87.604 58.079,56.567 		"/>
		<polyline fill="#BFB8B9" points="58.079,54.064 50,54.064 50,56.067 58.079,56.067 58.079,54.064 		"/>
		<polyline fill="#CBCBCB" points="58.079,56.067 50,56.067 50,56.567 58.079,56.567 58.079,56.067 		"/>
		<polyline fill="#6D6F6E" points="58.079,88.105 50,88.105 50,90.107 58.079,90.107 58.079,88.105 		"/>
		<polyline fill="#BFB8B9" points="58.079,87.604 50,87.604 50,88.105 58.079,88.105 58.079,87.604 		"/>
		<polyline fill="#B7B1B2" points="58.079,18.021 50,18.021 50,20.024 58.079,20.024 58.079,18.021 		"/>
		<polyline fill="#C2C2C3" points="58.079,20.024 50,20.024 50,20.524 58.079,20.524 58.079,20.024 		"/>
		<polyline fill="#656766" points="58.079,52.062 50,52.062 50,54.064 58.079,54.064 58.079,52.062 		"/>
		<polyline fill="#B7B1B2" points="58.079,51.561 50,51.561 50,52.062 58.079,52.062 58.079,51.561 		"/>
		<polyline fill="#6D6F6E" points="58.079,16.019 50,16.019 50,18.021 58.079,18.021 58.079,16.019 		"/>
		<polyline fill="#BFB8B9" points="58.079,15.518 50,15.518 50,16.019 58.079,16.019 58.079,15.518 		"/>
		<polyline fill="#A4A5A4" points="430,0.215 425.381,0.215 425.381,15.518 430,15.518 430,0.215 		"/>
		<polyline fill="#949594" points="430,20.524 425.381,20.524 425.381,51.561 430,51.561 430,20.524 		"/>
		<polyline fill="#949594" points="430,92.61 425.381,92.61 425.381,123.647 430,123.647 430,92.61 		"/>
		<polyline fill="#B7B1B2" points="430,90.107 425.381,90.107 425.381,92.11 430,92.11 430,90.107 		"/>
		<polyline fill="#C2C2C3" points="430,92.11 425.381,92.11 425.381,92.61 430,92.61 430,92.11 		"/>
		<polyline fill="#949594" points="430,308.869 425.381,308.869 425.381,339.906 430,339.906 430,308.869 		"/>
		<polyline fill="#B7B1B2" points="430,306.366 425.381,306.366 425.381,308.369 430,308.369 430,306.366 		"/>
		<polyline fill="#C2C2C3" points="430,308.369 425.381,308.369 425.381,308.869 430,308.869 430,308.369 		"/>
		<polyline fill="#656766" points="430,340.406 425.381,340.406 425.381,341.978 430,341.978 430,340.406 		"/>
		<polyline fill="#B7B1B2" points="430,339.906 425.381,339.906 425.381,340.406 430,340.406 430,339.906 		"/>
		<polyline fill="#A4A5A4" points="430,272.826 425.381,272.826 425.381,303.863 430,303.863 430,272.826 		"/>
		<polyline fill="#BFB8B9" points="430,270.323 425.381,270.323 425.381,272.325 430,272.325 430,270.323 		"/>
		<polyline fill="#CBCBCB" points="430,272.325 425.381,272.325 425.381,272.826 430,272.826 430,272.325 		"/>
		<polyline fill="#6D6F6E" points="430,304.363 425.381,304.363 425.381,306.366 430,306.366 430,304.363 		"/>
		<polyline fill="#BFB8B9" points="430,303.863 425.381,303.863 425.381,304.363 430,304.363 430,303.863 		"/>
		<polyline fill="#A4A5A4" points="430,344.481 425.381,344.481 425.381,359.785 430,359.785 430,344.481 		"/>
		<polyline fill="#BFB8B9" points="430,341.978 425.381,341.978 425.381,343.981 430,343.981 430,341.978 		"/>
		<polyline fill="#CBCBCB" points="430,343.981 425.381,343.981 425.381,344.481 430,344.481 430,343.981 		"/>
		<polyline fill="#949594" points="430,236.783 425.381,236.783 425.381,267.82 430,267.82 430,236.783 		"/>
		<polyline fill="#B7B1B2" points="430,234.28 425.381,234.28 425.381,236.282 430,236.282 430,234.28 		"/>
		<polyline fill="#C2C2C3" points="430,236.282 425.381,236.282 425.381,236.783 430,236.783 430,236.282 		"/>
		<polyline fill="#656766" points="430,268.321 425.381,268.321 425.381,270.323 430,270.323 430,268.321 		"/>
		<polyline fill="#B7B1B2" points="430,267.82 425.381,267.82 425.381,268.321 430,268.321 430,267.82 		"/>
		<polyline fill="#A4A5A4" points="430,200.74 425.381,200.74 425.381,231.776 430,231.776 430,200.74 		"/>
		<polyline fill="#BFB8B9" points="430,198.237 425.381,198.237 425.381,200.239 430,200.239 430,198.237 		"/>
		<polyline fill="#CBCBCB" points="430,200.239 425.381,200.239 425.381,200.74 430,200.74 430,200.239 		"/>
		<polyline fill="#6D6F6E" points="430,232.278 425.381,232.278 425.381,234.28 430,234.28 430,232.278 		"/>
		<polyline fill="#BFB8B9" points="430,231.776 425.381,231.776 425.381,232.278 430,232.278 430,231.776 		"/>
		<polyline fill="#949594" points="430,164.697 425.381,164.697 425.381,195.734 430,195.734 430,164.697 		"/>
		<polyline fill="#B7B1B2" points="430,162.193 425.381,162.193 425.381,164.196 430,164.196 430,162.193 		"/>
		<polyline fill="#C2C2C3" points="430,164.196 425.381,164.196 425.381,164.697 430,164.697 430,164.196 		"/>
		<polyline fill="#656766" points="430,196.234 425.381,196.234 425.381,198.237 430,198.237 430,196.234 		"/>
		<polyline fill="#B7B1B2" points="430,195.734 425.381,195.734 425.381,196.234 430,196.234 430,195.734 		"/>
		<polyline fill="#A4A5A4" points="430,128.654 425.381,128.654 425.381,159.69 430,159.69 430,128.654 		"/>
		<polyline fill="#BFB8B9" points="430,126.15 425.381,126.15 425.381,128.153 430,128.153 430,126.15 		"/>
		<polyline fill="#CBCBCB" points="430,128.153 425.381,128.153 425.381,128.654 430,128.654 430,128.153 		"/>
		<polyline fill="#6D6F6E" points="430,160.191 425.381,160.191 425.381,162.193 430,162.193 430,160.191 		"/>
		<polyline fill="#BFB8B9" points="430,159.69 425.381,159.69 425.381,160.191 430,160.191 430,159.69 		"/>
		<polyline fill="#656766" points="430,124.148 425.381,124.148 425.381,126.15 430,126.15 430,124.148 		"/>
		<polyline fill="#B7B1B2" points="430,123.647 425.381,123.647 425.381,124.148 430,124.148 430,123.647 		"/>
		<polyline fill="#A4A5A4" points="430,56.567 425.381,56.567 425.381,87.604 430,87.604 430,56.567 		"/>
		<polyline fill="#BFB8B9" points="430,54.064 425.381,54.064 425.381,56.067 430,56.067 430,54.064 		"/>
		<polyline fill="#CBCBCB" points="430,56.067 425.381,56.067 425.381,56.567 430,56.567 430,56.067 		"/>
		<polyline fill="#6D6F6E" points="430,88.105 425.381,88.105 425.381,90.107 430,90.107 430,88.105 		"/>
		<polyline fill="#BFB8B9" points="430,87.604 425.381,87.604 425.381,88.105 430,88.105 430,87.604 		"/>
		<polyline fill="#B7B1B2" points="430,18.021 425.381,18.021 425.381,20.024 430,20.024 430,18.021 		"/>
		<polyline fill="#C2C2C3" points="430,20.024 425.381,20.024 425.381,20.524 430,20.524 430,20.024 		"/>
		<polyline fill="#656766" points="430,52.062 425.381,52.062 425.381,54.064 430,54.064 430,52.062 		"/>
		<polyline fill="#B7B1B2" points="430,51.561 425.381,51.561 425.381,52.062 430,52.062 430,51.561 		"/>
		<polyline fill="#6D6F6E" points="430,16.019 425.381,16.019 425.381,18.021 430,18.021 430,16.019 		"/>
		<polyline fill="#BFB8B9" points="430,15.518 425.381,15.518 425.381,16.019 430,16.019 430,15.518 		"/>
	</g>
	<g>
		<rect x="36.996" y="0" fill="#1D1D1B" width="13.004" height="360"/>
		<rect x="36.996" y="0" fill="#7C7C7B" width="1.463" height="360"/>
		<path fill="#F1BE02" d="M49.971,270l-12.975-7.483v7.5l12.975,7.483V270z M37.025,285L50,292.483v-7.5L37.025,277.5V285z
			 M36.996,360H50l-13.004-7.5V360z M49.971,315l-12.975-7.483v7.5l12.975,7.483V315z M37.055,255L50,262.466v-7.5L37.055,247.5V255
			z M37.025,300L50,307.483v-7.5L37.025,292.5V300z M37.055,30L50,37.466v-7.5L37.055,22.5V30z M37.055,15L50,22.466v-7.5
			L37.055,7.5V15z M36.996,0L50,7.5V0H36.996z M37.025,330L50,337.483v-7.5L37.025,322.5V330z M36.996,45L50,52.5V45l-13.004-7.5V45
			z M37.025,345L50,352.483v-7.5L37.025,337.5V345z M37.055,240L50,247.466v-7.5L37.055,232.5V240z M37.055,210L50,217.466v-7.5
			L37.055,202.5V210z M49.971,135l-12.975-7.483v7.5l12.975,7.483V135z M36.996,225L50,232.5V225l-13.004-7.5V225z M37.055,60
			L50,67.466v-7.5L37.055,52.5V60z M49.971,90l-12.975-7.483v7.5L49.971,97.5V90z M37.055,75L50,82.466v-7.5L37.055,67.5V75z
			 M37.055,195L50,202.466v-7.5L37.055,187.5V195z M36.996,180L50,187.5V180l-13.004-7.5V180z M37.025,165L50,172.483v-7.5
			L37.025,157.5V165z M37.025,150L50,157.483v-7.5L37.025,142.5V150z M37.025,120L50,127.483v-7.5L37.025,112.5V120z M37.025,105
			L50,112.483v-7.5L37.025,97.5V105z"/>
		<path fill="#D88E14" d="M48.509,276.656l1.462,0.844V270l-1.462-0.844V276.656z M48.509,261.606l1.462,0.843v-7.5l-1.462-0.843
			V261.606z M48.509,291.623l1.462,0.844v-7.5l-1.462-0.844V291.623z M48.509,216.606l1.462,0.843v-7.499l-1.462-0.844V216.606z
			 M48.509,231.639l1.462,0.844v-7.5l-1.462-0.844V231.639z M48.509,246.606l1.462,0.843v-7.5l-1.462-0.843V246.606z
			 M48.509,351.623l1.462,0.844v-7.5l-1.462-0.844V351.623z M48.509,201.606l1.462,0.844v-7.5l-1.462-0.844V201.606z M48.509,0v6.64
			l1.462,0.843V0H48.509z M48.509,321.656l1.462,0.844V315l-1.462-0.844V321.656z M48.509,306.623l1.462,0.844v-7.5l-1.462-0.844
			V306.623z M48.509,336.623l1.462,0.844v-7.5l-1.462-0.844V336.623z M48.509,66.606l1.462,0.843v-7.5l-1.462-0.843V66.606z
			 M48.509,51.64l1.462,0.843v-7.5l-1.462-0.843V51.64z M48.509,81.606l1.462,0.843v-7.5l-1.462-0.843V81.606z M48.509,96.656
			l1.462,0.843V90l-1.462-0.843V96.656z M48.509,36.606l1.462,0.843v-7.5l-1.462-0.843V36.606z M48.509,21.606l1.462,0.843v-7.5
			l-1.462-0.843V21.606z M48.509,186.639l1.462,0.844v-7.5l-1.462-0.843V186.639z M48.509,360h1.462v-0.017l-1.462-0.844V360z
			 M48.509,111.623l1.462,0.844v-7.5l-1.462-0.844V111.623z M48.509,171.623l1.462,0.844v-7.5l-1.462-0.844V171.623z
			 M48.509,156.623l1.462,0.844v-7.5l-1.462-0.844V156.623z M48.509,126.623l1.462,0.844v-7.5l-1.462-0.844V126.623z
			 M48.509,141.656l1.462,0.843V135l-1.462-0.843V141.656z"/>
		<path fill="#FFF7AB" d="M37.025,285l1.434,0.827v-7.5l-1.434-0.827V285z M37.025,330l1.434,0.827v-7.5l-1.434-0.827V330z
			 M37.055,255l1.404,0.811v-7.5l-1.404-0.811V255z M36.996,225l1.463,0.844v-7.5l-1.463-0.844V225z M37.055,240l1.404,0.811v-7.5
			l-1.404-0.811V240z M36.996,90.017l1.463,0.843v-7.5l-1.463-0.843V90.017z M36.996,135.017l1.463,0.843v-7.5l-1.463-0.843V135.017
			z M37.055,210l1.404,0.811v-7.5l-1.404-0.811V210z M36.996,0l1.463,0.844V0H36.996z M36.996,270.016l1.463,0.844v-7.5
			l-1.463-0.844V270.016z M37.025,345l1.434,0.827v-7.5l-1.434-0.827V345z M36.996,315.016l1.463,0.844v-7.5l-1.463-0.844V315.016z
			 M37.025,300l1.434,0.827v-7.5l-1.434-0.827V300z M36.996,45l1.463,0.844v-7.5L36.996,37.5V45z M37.055,60l1.404,0.81v-7.5
			l-1.404-0.81V60z M37.055,30l1.404,0.81v-7.5l-1.404-0.81V30z M36.996,360h1.463v-6.656l-1.463-0.844V360z M37.055,75l1.404,0.81
			v-7.5l-1.404-0.81V75z M37.055,15l1.404,0.81v-7.5L37.055,7.5V15z M37.055,195l1.404,0.811v-7.5l-1.404-0.811V195z M36.996,180
			l1.463,0.844v-7.5l-1.463-0.844V180z M37.025,165l1.434,0.827v-7.5l-1.434-0.827V165z M37.025,150l1.434,0.827v-7.5l-1.434-0.827
			V150z M37.025,120l1.434,0.827v-7.5l-1.434-0.827V120z M37.025,105l1.434,0.827v-7.5L37.025,97.5V105z"/>
	</g>
</g>
</svg>
